<svg xmlns="http://www.w3.org/2000/svg" width="25" height="25" viewBox="0 0 25 25"><defs><style>.cls-1,.cls-2,.cls-3{fill:none;}.cls-1,.cls-2{stroke:#a8a8a8;stroke-miterlimit:10;stroke-width:0.86px;}.cls-2{stroke-linecap:round;}</style></defs><g id="Layer_2" data-name="Layer 2"><g id="Layer_1-2" data-name="Layer 1"><path class="cls-1" d="M21.35,10.07a.87.87,0,0,1-.18.49,2.74,2.74,0,0,1-1,.73A20.1,20.1,0,0,1,12.5,12.5a20.1,20.1,0,0,1-7.66-1.21,2.74,2.74,0,0,1-1-.73.87.87,0,0,1-.18-.49c0-1.27,3.52-2.3,8-2.41h1.66C17.83,7.77,21.35,8.8,21.35,10.07Z"/><path class="cls-2" d="M12.5,14.93c3.6,0,8.85-1,8.85-2.78"/><path class="cls-2" d="M12.5,14.93c-3.6,0-8.85-1-8.85-2.78"/><path class="cls-2" d="M12.5,17.36c3.6,0,8.85-1,8.85-2.78"/><path class="cls-2" d="M12.5,17.36c-3.6,0-8.85-1-8.85-2.78"/><rect class="cls-3" width="25" height="25"/></g></g></svg>
