<svg xmlns="http://www.w3.org/2000/svg" width="26" height="18.571" viewBox="0 0 26 18.571"><defs><style>.a{fill:#26a48b;}</style></defs><g transform="translate(68 186)"><g transform="translate(-68 -186)"><path class="a" d="M12.729,10.3,9.513,7.484l-9.2,7.884a1.883,1.883,0,0,0,1.283.5h22.26a1.869,1.869,0,0,0,1.278-.5L15.946,7.484Z" transform="translate(0.271 2.701)"/><path class="a" d="M25.141,2.5A1.87,1.87,0,0,0,23.857,2H1.6a1.863,1.863,0,0,0-1.28.507L12.727,13.143Z" transform="translate(0.273 -2)"/><path class="a" d="M0,2.878V18.307L8.976,10.68Z" transform="translate(0 -1.247)"/><path class="a" d="M9.167,10.682l8.976,7.627V2.875Z" transform="translate(7.857 -1.25)"/></g></g></svg>
