<svg xmlns="http://www.w3.org/2000/svg" width="17.016" height="17.016" viewBox="0 0 17.016 17.016"><defs><style>.a{fill:none;}.b{fill:#fff;}</style></defs><g transform="translate(0 -2.561)"><g transform="translate(0 2.561)"><rect class="a" width="17.016" height="17.016"/><path class="b" d="M.874,12.276l2.868-2.189a5.02,5.02,0,0,0,4.779,3.448,5.273,5.273,0,0,0,2.829-.744,3.828,3.828,0,0,0,1.74-2.543H8.521V6.961H16.46a7.075,7.075,0,0,1,.193,1.547A8.464,8.464,0,0,1,14.072,14.9a8.12,8.12,0,0,1-5.551,2.12A8.5,8.5,0,0,1,.874,12.276ZM0,8.507a8.507,8.507,0,0,1,14.135-6.38L11.656,4.6A4.929,4.929,0,0,0,8.52,3.48a5.028,5.028,0,0,0-4.781,6.6L.873,12.274A8.5,8.5,0,0,1,0,8.507Z" transform="translate(0.181 0)"/></g></g></svg>