<svg xmlns="http://www.w3.org/2000/svg" width="24.646" height="24.646" viewBox="0 0 24.646 24.646"><defs><style>.a{fill-rule:evenodd;}</style></defs><path class="a" d="M12.323,2.191a37.785,37.785,0,0,1,4.929.137,6.351,6.351,0,0,1,2.328.411,4.809,4.809,0,0,1,2.328,2.328,6.351,6.351,0,0,1,.411,2.328c0,1.232.137,1.643.137,4.929a37.785,37.785,0,0,1-.137,4.929,6.351,6.351,0,0,1-.411,2.328,4.809,4.809,0,0,1-2.328,2.328,6.351,6.351,0,0,1-2.328.411c-1.232,0-1.643.137-4.929.137a37.785,37.785,0,0,1-4.929-.137,6.351,6.351,0,0,1-2.328-.411A4.809,4.809,0,0,1,2.738,19.58a6.351,6.351,0,0,1-.411-2.328c0-1.232-.137-1.643-.137-4.929a37.785,37.785,0,0,1,.137-4.929,6.351,6.351,0,0,1,.411-2.328A4.918,4.918,0,0,1,3.7,3.7a2.315,2.315,0,0,1,1.369-.958,6.351,6.351,0,0,1,2.328-.411,37.785,37.785,0,0,1,4.929-.137m0-2.191A40.456,40.456,0,0,0,7.257.137,8.453,8.453,0,0,0,4.245.685,5.36,5.36,0,0,0,2.054,2.054,5.36,5.36,0,0,0,.685,4.245,6.239,6.239,0,0,0,.137,7.257,40.456,40.456,0,0,0,0,12.323a40.457,40.457,0,0,0,.137,5.066A8.453,8.453,0,0,0,.685,20.4a5.36,5.36,0,0,0,1.369,2.191,5.36,5.36,0,0,0,2.191,1.369,8.453,8.453,0,0,0,3.012.548,40.456,40.456,0,0,0,5.066.137,40.456,40.456,0,0,0,5.066-.137,8.453,8.453,0,0,0,3.012-.548,5.745,5.745,0,0,0,3.56-3.56,8.453,8.453,0,0,0,.548-3.012c0-1.369.137-1.78.137-5.066a40.456,40.456,0,0,0-.137-5.066,8.453,8.453,0,0,0-.548-3.012,5.36,5.36,0,0,0-1.369-2.191A5.36,5.36,0,0,0,20.4.685,8.453,8.453,0,0,0,17.389.137,40.456,40.456,0,0,0,12.323,0m0,6.025a6.2,6.2,0,0,0-6.3,6.3,6.3,6.3,0,1,0,6.3-6.3m0,10.406a4.034,4.034,0,0,1-4.108-4.108,4.034,4.034,0,0,1,4.108-4.108,4.034,4.034,0,0,1,4.108,4.108,4.034,4.034,0,0,1-4.108,4.108M18.9,4.245A1.506,1.506,0,1,0,20.4,5.751,1.52,1.52,0,0,0,18.9,4.245"/></svg>