<svg xmlns="http://www.w3.org/2000/svg" width="38.572" height="38.572" viewBox="0 0 38.572 38.572"><defs><style>.a{fill:#fff;}</style></defs><path class="a" d="M171.206,148.332H154.9a11.133,11.133,0,0,0-11.133,11.133v16.305A11.133,11.133,0,0,0,154.9,186.9h16.305a11.133,11.133,0,0,0,11.133-11.133V159.465A11.133,11.133,0,0,0,171.206,148.332Zm7.581,27.725a7.39,7.39,0,0,1-7.39,7.39H154.71a7.39,7.39,0,0,1-7.39-7.39V159.37a7.39,7.39,0,0,1,7.39-7.39H171.4a7.39,7.39,0,0,1,7.39,7.39Z" transform="translate(-143.767 -148.332)"/><path class="a" d="M239.889,235.335A10.008,10.008,0,1,0,249.9,245.343,10.008,10.008,0,0,0,239.889,235.335Zm0,16.5a6.488,6.488,0,1,1,6.488-6.488A6.488,6.488,0,0,1,239.889,251.831Z" transform="translate(-220.603 -225.961)"/><ellipse class="a" cx="2.332" cy="2.332" rx="2.332" ry="2.332" transform="translate(27.296 6.661)"/></svg>