<svg xmlns="http://www.w3.org/2000/svg" width="34.53" height="29.76" viewBox="0 0 34.53 29.76"><g transform="translate(-1301.412 -659.081)"><path d="M1315.613,681.646h4.539l1.339-1.339" transform="translate(4.534 6.82)" fill="none" stroke="#26a48b" stroke-miterlimit="10" stroke-width="0.75"/><line x2="2.216" transform="translate(1315.915 688.466)" fill="none" stroke="#26a48b" stroke-miterlimit="10" stroke-width="0.75"/><path d="M1327.865,683.332l3.4-3.4v-18.2H1305.3V687.69h6.012" transform="translate(1.18 0.775)" fill="none" stroke="#26a48b" stroke-miterlimit="10" stroke-width="0.75"/><line x1="10.991" y2="10.991" transform="translate(1324.686 677.474)" fill="none" stroke="#26a48b" stroke-miterlimit="10" stroke-width="0.75"/><line x1="3.159" y2="3.159" transform="translate(1314.972 659.346)" fill="none" stroke="#26a48b" stroke-miterlimit="10" stroke-width="0.75"/><line x1="4.7" y2="4.7" transform="translate(1301.677 671.099)" fill="none" stroke="#26a48b" stroke-miterlimit="10" stroke-width="0.75"/><g transform="translate(1309.62 665.785)"><path d="M1315.682,666.7a2.449,2.449,0,0,0-2.408,2.708c0,1.885,1.079,3.036,2.408,3.036s2.408-1.152,2.408-3.036A2.449,2.449,0,0,0,1315.682,666.7Z" transform="translate(-1305.847 -663.391)" fill="none"/><path d="M1327.356,664.2H1307.67v16h4.378v-1.411a4.009,4.009,0,0,1,.682-2.26,6.059,6.059,0,0,1,9.551,0,4.009,4.009,0,0,1,.682,2.26v1.411h1.455l2.937-2.937Zm-9.85,9.058c-1.329,0-2.408-1.152-2.408-3.036a2.425,2.425,0,1,1,4.816,0C1319.914,672.11,1318.835,673.262,1317.506,673.262Z" transform="translate(-1307.67 -664.204)" fill="#26a48b"/></g></g></svg>