<svg xmlns="http://www.w3.org/2000/svg" width="25" height="25" viewBox="0 0 25 25"><g transform="translate(-120 -453)"><rect width="25" height="25" transform="translate(120 453)" fill="none"/><g transform="translate(17.328 77.223)"><g transform="translate(110.672 379.777)" fill="#fcfcfc" stroke="#a8a8a8" stroke-width="1.2"><circle cx="4" cy="4" r="4" stroke="none"/><circle cx="4" cy="4" r="3.4" fill="none"/></g><g transform="translate(107.672 388.777)" fill="#fcfcfc"><path d="M 14.3996696472168 7.400000095367432 L 0.6003124117851257 7.400000095367432 C 0.6001045107841492 7.378010749816895 0.6000000238418579 7.356011390686035 0.6000000238418579 7.333990097045898 C 0.6000000238418579 5.537700176239014 1.315919995307922 3.848069906234741 2.615869998931885 2.576359987258911 C 3.91907000541687 1.301910042762756 5.653470039367676 0.6000000238418579 7.499509811401367 0.6000000238418579 C 9.345999717712402 0.6000000238418579 11.0803804397583 1.30188000202179 12.38315010070801 2.576359987258911 C 13.68379020690918 3.847860097885132 14.39999961853027 5.537439823150635 14.39999961853027 7.333990097045898 C 14.39999961853027 7.355987548828125 14.39988994598389 7.377988815307617 14.3996696472168 7.400000095367432 Z" stroke="none"/><path d="M 13.77659893035889 6.800000190734863 C 13.65046977996826 5.367464065551758 13.01794815063477 4.036009311676025 11.96356964111328 3.005249977111816 C 10.77357959747314 1.841120004653931 9.188220024108887 1.200000047683716 7.499509811401367 1.200000047683716 C 5.811210155487061 1.200000047683716 4.225790023803711 1.841169953346252 3.035449981689453 3.005249977111816 C 1.981730818748474 4.036080837249756 1.349475979804993 5.367572784423828 1.223396301269531 6.800000190734863 L 13.77659893035889 6.800000190734863 M 14.96924018859863 8 L 14.96875 8 L 0.029789999127388 8 C 0.009770000353455544 7.780270099639893 -8.881784197001252e-16 7.556640148162842 -8.881784197001252e-16 7.333990097045898 C -8.881784197001252e-16 5.374509811401367 0.780269980430603 3.53272008895874 2.196290016174316 2.147459983825684 C 3.612790107727051 0.7622100114822388 5.496089935302734 0 7.499509811401367 0 C 9.5029296875 0 11.38671970367432 0.7622100114822388 12.80272960662842 2.147459983825684 C 14.21973037719727 3.53272008895874 15 5.374020099639893 15 7.333990097045898 C 15 7.555180072784424 14.98974990844727 7.779300212860107 14.96924018859863 7.999020099639893 L 14.96924018859863 8 Z" stroke="none" fill="#a8a8a8"/></g></g></g></svg>