<svg xmlns="http://www.w3.org/2000/svg" xmlns:xlink="http://www.w3.org/1999/xlink" width="29.014" height="29.014" viewBox="0 0 29.014 29.014"><defs><style>.a{fill:url(#a);}.b{fill:url(#b);}.c{fill:#9a2590;}</style><linearGradient id="a" x1="0.555" x2="0.561" y2="1" gradientUnits="objectBoundingBox"><stop offset="0" stop-color="#660ec6"/><stop offset="0.452" stop-color="#e0005e"/><stop offset="1" stop-color="#e3861f"/></linearGradient><linearGradient id="b" x1="0.54" y1="-0.065" x2="0.293" y2="1" gradientUnits="objectBoundingBox"><stop offset="0" stop-color="#6f2cb8"/><stop offset="0.391" stop-color="#bc2a67"/><stop offset="1" stop-color="#d69144"/></linearGradient></defs><path class="a" d="M164.407,148.332H152.142a8.375,8.375,0,0,0-8.375,8.375v12.265a8.375,8.375,0,0,0,8.375,8.375h12.265a8.375,8.375,0,0,0,8.375-8.375V156.707A8.375,8.375,0,0,0,164.407,148.332Zm5.7,20.855a5.559,5.559,0,0,1-5.559,5.559H152a5.559,5.559,0,0,1-5.559-5.559V156.635A5.559,5.559,0,0,1,152,151.076H164.55a5.559,5.559,0,0,1,5.559,5.559Z" transform="translate(-143.767 -148.332)"/><path class="b" d="M237.409,235.335a7.528,7.528,0,1,0,7.528,7.528A7.528,7.528,0,0,0,237.409,235.335Zm0,12.408a4.88,4.88,0,1,1,4.88-4.88A4.88,4.88,0,0,1,237.409,247.743Z" transform="translate(-222.902 -228.284)"/><circle class="c" cx="1.754" cy="1.754" r="1.754" transform="translate(20.533 5.011)"/></svg>