<svg xmlns="http://www.w3.org/2000/svg" width="37.567" height="26.424" viewBox="0 0 37.567 26.424"><defs><style>.a{fill:#4361c3;}.a,.d{fill-rule:evenodd;}.b{fill:#ffaf38;}.c{fill:#eb3636;}.d{fill:#fff;opacity:0.102;}</style></defs><path class="a" d="M2.14,0H35.429a2.162,2.162,0,0,1,2.139,2.184V24.238a2.163,2.163,0,0,1-2.139,2.186H2.14A2.163,2.163,0,0,1,0,24.238V2.184A2.162,2.162,0,0,1,2.14,0Z"/><path class="b" d="M0,5.558a5.566,5.566,0,1,1,5.558,5.574A5.566,5.566,0,0,1,0,5.558Z" transform="translate(18.097 6.93)"/><path class="c" d="M5.558,11.132a5.569,5.569,0,1,1,.009,0Z" transform="translate(8.364 6.931)"/><path class="d" d="M2.14,26.424A2.163,2.163,0,0,1,0,24.238V2.184A2.162,2.162,0,0,1,2.14,0H35.429a2.162,2.162,0,0,1,2.139,2.184"/></svg>