<svg xmlns="http://www.w3.org/2000/svg" width="15" height="15" viewBox="0 0 15 15"><defs><style>.a{fill:#fff;}</style></defs><g transform="translate(0 -0.188)"><g transform="translate(0 0.188)"><path class="a" d="M14.993,12.026a.726.726,0,0,1-.222.636l-2.112,2.1a1.189,1.189,0,0,1-.373.27,1.541,1.541,0,0,1-.452.143l-.1.008q-.079.008-.206.008a7.316,7.316,0,0,1-.977-.1A7.413,7.413,0,0,1,8.9,14.576a13.859,13.859,0,0,1-2.215-1.216,16.518,16.518,0,0,1-2.636-2.225,17.409,17.409,0,0,1-1.842-2.1A14.946,14.946,0,0,1,1.035,7.187,9.974,9.974,0,0,1,.368,5.646a8.182,8.182,0,0,1-.3-1.192A3.938,3.938,0,0,1,0,3.668q.016-.286.016-.318A1.545,1.545,0,0,1,.161,2.9a1.191,1.191,0,0,1,.27-.373L2.543.41A.7.7,0,0,1,3.052.188a.592.592,0,0,1,.365.119A1.1,1.1,0,0,1,3.687.6l1.7,3.226a.774.774,0,0,1,.079.556.991.991,0,0,1-.27.508l-.778.779a.265.265,0,0,0-.056.1.392.392,0,0,0-.024.119,2.87,2.87,0,0,0,.286.763,7,7,0,0,0,.588.93A10.319,10.319,0,0,0,6.339,8.848a10.52,10.52,0,0,0,1.27,1.136,7.336,7.336,0,0,0,.929.6,2.468,2.468,0,0,0,.572.23l.2.04a.378.378,0,0,0,.1-.024.265.265,0,0,0,.1-.056l.905-.922a.972.972,0,0,1,.667-.254.829.829,0,0,1,.429.1h.016L14.6,11.5A.8.8,0,0,1,14.993,12.026Z" transform="translate(0 -0.188)"/></g></g></svg>
