<svg xmlns="http://www.w3.org/2000/svg" width="25" height="25" viewBox="0 0 25 25"><g transform="translate(-123 -410)"><rect width="25" height="25" transform="translate(123 410)" fill="none"/><g transform="translate(126 414.001)"><ellipse cx="2.306" cy="2.306" rx="2.306" ry="2.306" transform="translate(11.775 0)" fill="none" stroke="#a8a8a8" stroke-miterlimit="10" stroke-width="1.2"/><path d="M2245.911,4183.183h-3.4a7.333,7.333,0,0,1-2.428-3.885s-4.127-.971-5.584,4.613l3.885,2.671.243,3.4h1.457" transform="translate(-2229.644 -4176.506)" fill="none" stroke="#a8a8a8" stroke-miterlimit="10" stroke-width="1.2"/><path d="M2246.87,4185.5a5.156,5.156,0,0,0-4.37,4.127" transform="translate(-2235.702 -4181.251)" fill="none" stroke="#a8a8a8" stroke-miterlimit="10" stroke-width="1.2"/><ellipse cx="3.642" cy="3.642" rx="3.642" ry="3.642" transform="translate(11.654 9.347)" fill="none" stroke="#a8a8a8" stroke-miterlimit="10" stroke-width="1.2"/><ellipse cx="3.642" cy="3.642" rx="3.642" ry="3.642" transform="translate(0 9.347)" fill="none" stroke="#a8a8a8" stroke-miterlimit="10" stroke-width="1.2"/><line x2="2.428" y2="4.856" transform="translate(12.989 8.255)" fill="none" stroke="#a8a8a8" stroke-miterlimit="10" stroke-width="1.2"/></g></g></svg>