<svg xmlns="http://www.w3.org/2000/svg" width="23.603" height="23.572" viewBox="0 0 23.603 23.572"><defs><style>.a{fill:#2ab758;stroke:rgba(0,0,0,0);}</style></defs><g transform="translate(-321.341 -348.333)"><path class="a" d="M10.664,22.572h0a11.741,11.741,0,0,1-4.073-1.011,11.153,11.153,0,0,1-5.582-5.582A11.718,11.718,0,0,1,0,11.908V10.665A11.293,11.293,0,0,1,10.723,0h1.124A11.072,11.072,0,0,1,21.61,6.769a11,11,0,0,1,.571,7.474,11.321,11.321,0,0,1-10.274,8.329H10.664ZM9.542,14.958h0a11.851,11.851,0,0,1,4.152.7,13.562,13.562,0,0,1,1.825.873.708.708,0,0,0,.345.091.7.7,0,0,0,.374-1.288,3.326,3.326,0,0,0-.3-.185l-.048-.027a12.786,12.786,0,0,0-6.453-1.575H9.286a19.02,19.02,0,0,0-3.963.494.791.791,0,0,0-.51.332.7.7,0,0,0,.612,1.07.9.9,0,0,0,.19-.021,19.845,19.845,0,0,1,2.7-.416C8.731,14.975,9.145,14.958,9.542,14.958Zm-.2-3.339h0a16.444,16.444,0,0,1,3.363.361,12.586,12.586,0,0,1,3.9,1.506.95.95,0,0,0,.488.139.86.86,0,0,0,.746-.426.883.883,0,0,0-.333-1.222c-.151-.095-.3-.18-.432-.25A15.889,15.889,0,0,0,9.759,9.853H9.643a16.574,16.574,0,0,0-4.692.621,1.042,1.042,0,0,0-.37.172.884.884,0,0,0-.252,1.086.849.849,0,0,0,.782.478,1.174,1.174,0,0,0,.321-.047A14.232,14.232,0,0,1,9.344,11.619Zm.241-3.544c.7,0,1.425.037,2.154.11A15.173,15.173,0,0,1,17.951,10a1.115,1.115,0,0,0,.552.151A1.053,1.053,0,0,0,19,8.176c-.338-.2-.643-.364-.932-.5A19.837,19.837,0,0,0,10,5.963c-.132,0-.269-.006-.407-.006-.451,0-.938.019-1.534.061a17.1,17.1,0,0,0-3.786.649,1.05,1.05,0,0,0-.754,1.3,1.038,1.038,0,0,0,1.017.768,1.282,1.282,0,0,0,.327-.044l.236-.064c.174-.048.353-.1.532-.136A18.651,18.651,0,0,1,9.585,8.075Z" transform="translate(321.841 348.833)"/></g></svg>