<svg xmlns="http://www.w3.org/2000/svg" width="142.059" height="43.3" viewBox="0 0 142.059 43.3"><defs><style>.a,.b{fill:#1ed660;}.a,.c,.d{stroke:rgba(0,0,0,0);}.c{fill:#26d865;}.d{fill:#20d761;}</style></defs><g transform="translate(-321.341 -348.333)"><path class="a" d="M19.984,42.3h0a22,22,0,0,1-7.633-1.894A20.9,20.9,0,0,1,1.89,29.945,21.959,21.959,0,0,1,0,22.316V19.985A21.163,21.163,0,0,1,20.1,0H22.2C30.81.715,36.965,4.982,40.5,12.684a20.615,20.615,0,0,1,1.07,14.006A21.216,21.216,0,0,1,22.314,42.3h-2.33Zm-2.1-14.269h0a22.207,22.207,0,0,1,7.781,1.313,25.415,25.415,0,0,1,3.42,1.636,1.327,1.327,0,0,0,.646.171,1.318,1.318,0,0,0,.7-2.414,6.234,6.234,0,0,0-.569-.347l-.09-.051a23.96,23.96,0,0,0-12.094-2.952H17.4a35.643,35.643,0,0,0-7.427.926,1.481,1.481,0,0,0-.955.622,1.312,1.312,0,0,0,1.147,2.005,1.692,1.692,0,0,0,.356-.039,37.188,37.188,0,0,1,5.055-.779C16.362,28.062,17.138,28.031,17.881,28.031Zm-.371-6.257h0a30.816,30.816,0,0,1,6.3.677,23.586,23.586,0,0,1,7.31,2.823,1.781,1.781,0,0,0,.915.261,1.611,1.611,0,0,0,1.4-.8,1.655,1.655,0,0,0-.624-2.291c-.282-.178-.568-.337-.81-.469a29.776,29.776,0,0,0-13.712-3.512h-.217a31.059,31.059,0,0,0-8.793,1.164,1.953,1.953,0,0,0-.692.322,1.657,1.657,0,0,0-.472,2.035,1.591,1.591,0,0,0,1.465.9,2.2,2.2,0,0,0,.6-.088A26.67,26.67,0,0,1,17.51,21.774Zm.452-6.641c1.312,0,2.67.07,4.036.207a28.433,28.433,0,0,1,11.641,3.4,2.089,2.089,0,0,0,1.035.282,1.974,1.974,0,0,0,.935-3.7c-.634-.375-1.2-.681-1.746-.936a37.173,37.173,0,0,0-15.133-3.212c-.247-.007-.5-.01-.763-.01-.845,0-1.758.036-2.875.113A32.045,32.045,0,0,0,8,12.493a1.968,1.968,0,0,0-1.413,2.438A1.946,1.946,0,0,0,8.49,16.37a2.4,2.4,0,0,0,.613-.082c.147-.039.295-.079.442-.12.325-.089.662-.182,1-.255A34.952,34.952,0,0,1,17.962,15.133Z" transform="translate(321.841 348.833)"/><path class="b" d="M1365.256,460.633c1.138-3.243,2.247-6.371,3.327-9.509.147-.428.32-.623.8-.6.862.045,1.727.011,2.591.013.674,0,.718.066.477.689q-2.444,6.311-4.89,12.62c-.325.838-.653,1.675-1,2.5-1.445,3.489-4.228,3.982-7.395,2.766-.9-.347-.889-.388-.481-1.286.22-.484.462-.96.654-1.455.162-.418.358-.532.782-.3a3.018,3.018,0,0,0,1.536.366,1.814,1.814,0,0,0,1.678-1.28.648.648,0,0,0-.088-.467q-2.177-5.233-4.349-10.467a.544.544,0,0,0-.6-.414c-.716.028-1.435.032-2.15,0-.4-.018-.483.131-.482.5.013,3.383.008,6.765.007,10.148,0,.826,0,.827-.809.827-.754,0-1.509-.028-2.261.01-.52.026-.7-.128-.692-.674.024-3.4,0-6.8.023-10.2,0-.479-.107-.623-.6-.615-1.411.024-1.227.188-1.239-1.21,0-.533.012-1.067-.005-1.6-.011-.35.114-.525.477-.487a.278.278,0,0,0,.055,0c.415-.04.938.182,1.218-.1.254-.26.08-.771.1-1.171a4.142,4.142,0,0,1,4.507-4.338,9.575,9.575,0,0,1,2.508.294c.337.087.5.229.486.6-.023.753-.013,1.507-.005,2.261,0,.38-.154.5-.513.384a4.648,4.648,0,0,0-1.9-.255,1.729,1.729,0,0,0-1.416,2.191c.09.269.3.154.461.155,1.563.01,3.125.023,4.688,0a.734.734,0,0,1,.83.573c1.113,2.971,2.259,5.93,3.4,8.892C1365.059,460.179,1365.142,460.361,1365.256,460.633Z" transform="translate(-914.786 -85.468)"/><path class="a" d="M3.165,19.413c-.034,0-.071,0-.109,0-.357-.02-.732-.03-1.148-.03-.382,0-.793.008-1.332.026H.518a.536.536,0,0,1-.4-.119A.6.6,0,0,1,0,18.843c.017-.812.013-1.638.01-2.437,0-.3,0-.65,0-.982V11.889c0-3.168,0-7.111,0-10.857,0-.724,0-.724.72-.725H.781l.712,0H1.53l.686,0c.409,0,.742,0,1.048-.011H3.3a.477.477,0,0,1,.36.11.48.48,0,0,1,.1.365c-.009.291-.007.585,0,.87v0c0,.119,0,.243,0,.363a.315.315,0,0,0,.078.011A.205.205,0,0,0,4,1.926L4.024,1.9A5.761,5.761,0,0,1,6.057.451,5.873,5.873,0,0,1,8.343,0a6.807,6.807,0,0,1,2.9.665,6.511,6.511,0,0,1,2.293,1.791A7.519,7.519,0,0,1,14.9,5.088a8.559,8.559,0,0,1,.28,1.434,10.557,10.557,0,0,1,.053,1.5,10,10,0,0,1-.163,1.522,8.04,8.04,0,0,1-.406,1.428,7.176,7.176,0,0,1-.68,1.32,7.355,7.355,0,0,1-.984,1.2A6.126,6.126,0,0,1,12,14.28a6.709,6.709,0,0,1-1.146.587,6.98,6.98,0,0,1-1.247.364,6.845,6.845,0,0,1-1.3.125,6.142,6.142,0,0,1-2.3-.434,5.546,5.546,0,0,1-2-1.369,1.034,1.034,0,0,0-.121-.1c-.036-.028-.081-.063-.139-.111,0,.517,0,1.03,0,1.527v.022c0,1.309-.007,2.545.014,3.8a.787.787,0,0,1-.145.588A.607.607,0,0,1,3.165,19.413Zm4.42-16.1h0A3.73,3.73,0,0,0,4.934,4.43,4.139,4.139,0,0,0,3.983,5.9a5.1,5.1,0,0,0-.308,1.722A4.9,4.9,0,0,0,3.84,9.037a4.321,4.321,0,0,0,.6,1.291A3.982,3.982,0,0,0,5.8,11.6a3.6,3.6,0,0,0,1.752.43,4.667,4.667,0,0,0,.481-.026,3.562,3.562,0,0,0,1.809-.679A3.7,3.7,0,0,0,11,9.782a5.389,5.389,0,0,0,.45-2.249,5.056,5.056,0,0,0-.593-2.214,3.819,3.819,0,0,0-.616-.865A3.656,3.656,0,0,0,7.585,3.316h0Z" transform="translate(386.917 364.752)"/><path class="b" d="M771.1,471.134a11.831,11.831,0,0,1-7.441-2.876c-.334-.279-.36-.475-.062-.8.5-.541.95-1.122,1.424-1.684.526-.624.528-.623,1.146-.121a8.392,8.392,0,0,0,4.456,2,5.37,5.37,0,0,0,2.763-.292,1.938,1.938,0,0,0,1.286-1.823,1.836,1.836,0,0,0-1.227-1.789,27.572,27.572,0,0,0-4.1-1.236,15.437,15.437,0,0,1-2.218-.818,4.741,4.741,0,0,1-3-4.153,5.367,5.367,0,0,1,2.451-5.206,7.442,7.442,0,0,1,4.184-1.167,10.894,10.894,0,0,1,6.7,2.15c.4.3.532.519.172.954-.444.537-.818,1.131-1.221,1.7-.47.664-.468.663-1.118.215a8.231,8.231,0,0,0-4.174-1.573,3.944,3.944,0,0,0-2.19.4,1.81,1.81,0,0,0-1.027,1.642,1.731,1.731,0,0,0,1,1.644,17.8,17.8,0,0,0,3.813,1.231,15.159,15.159,0,0,1,2.836,1.044,4.77,4.77,0,0,1,2.9,4.167,5.426,5.426,0,0,1-2.529,5.23A8.555,8.555,0,0,1,771.1,471.134Z" transform="translate(-392.821 -91.047)"/><path class="a" d="M7.817,15.4H7.8a8.113,8.113,0,0,1-3.068-.6,7.764,7.764,0,0,1-1.326-.7,7.628,7.628,0,0,1-1.15-.927A7.5,7.5,0,0,1,.6,10.75,7.661,7.661,0,0,1,0,7.744,7.772,7.772,0,0,1,.605,4.713,7.688,7.688,0,0,1,4.733.6,7.867,7.867,0,0,1,7.777,0h.014a8,8,0,0,1,5.617,2.219,7.554,7.554,0,0,1,2.272,5.466,7.7,7.7,0,0,1-.61,3.028A7.579,7.579,0,0,1,13.4,13.161a7.716,7.716,0,0,1-1.16.935,7.829,7.829,0,0,1-1.337.7A8.12,8.12,0,0,1,7.817,15.4ZM7.847,3.342a4.194,4.194,0,0,0-1.056.138A3.928,3.928,0,0,0,4.832,4.611a4.153,4.153,0,0,0-.969,2.037,5.117,5.117,0,0,0,.079,2.537,3.945,3.945,0,0,0,.547,1.1,4.535,4.535,0,0,0,.929.954A3.842,3.842,0,0,0,7.8,12.1a4.323,4.323,0,0,0,1.928-.486A3.864,3.864,0,0,0,11.4,10.075a4.129,4.129,0,0,0,.531-1.918,5.13,5.13,0,0,0-1.376-3.685,3.851,3.851,0,0,0-1.235-.836,3.77,3.77,0,0,0-1.47-.294Z" transform="translate(403.182 364.75)"/><path class="b" d="M1208.942,471.091c0,1.048-.012,2.1,0,3.144.015.99.481,1.429,1.476,1.444a4.408,4.408,0,0,0,1.713-.354c.488-.195.568-.14.572.4.006.7-.013,1.4.008,2.1a.6.6,0,0,1-.388.641,6.213,6.213,0,0,1-4.821.286,3.639,3.639,0,0,1-2.305-3.672q-.039-3.557,0-7.114c.006-.508-.151-.6-.616-.595-1.388.015-1.209.2-1.221-1.228,0-.515.01-1.03,0-1.544-.01-.362.1-.538.5-.523s.96.184,1.224-.071c.292-.283.083-.836.1-1.27.02-.7.018-1.4,0-2.1-.009-.347.1-.505.468-.5q1.406.021,2.813,0c.362-.005.484.149.479.5-.013.956.031,1.914-.018,2.867-.026.517.156.608.619.59.918-.035,1.838,0,2.757-.016.364-.007.49.136.484.486-.013.772-.016,1.544,0,2.316.008.392-.165.512-.533.506-.937-.014-1.876.02-2.812-.015-.429-.016-.519.128-.509.528.027,1.066.009,2.132.009,3.2Z" transform="translate(-784.242 -99.018)"/><path class="b" d="M1306.026,503.2c0,2.242-.015,4.484.011,6.726.006.519-.161.671-.663.649-.844-.036-1.691-.022-2.536,0-.384.008-.572-.1-.571-.525q.014-6.864,0-13.728c0-.416.161-.536.558-.526.881.023,1.765.029,2.646,0,.447-.016.564.149.561.573C1306.018,498.641,1306.026,500.92,1306.026,503.2Z" transform="translate(-872.238 -130.738)"/><path class="b" d="M1300.605,441.652a2.333,2.333,0,1,1,2.356-2.325A2.331,2.331,0,0,1,1300.605,441.652Z" transform="translate(-868.672 -78.425)"/><path class="c" d="M2.3,4.592H2.284A2.3,2.3,0,0,1,.671,3.923,2.253,2.253,0,0,1,0,2.325,2.3,2.3,0,0,1,2.323,0h.019A2.274,2.274,0,0,1,3.968.671a2.309,2.309,0,0,1,.64,1.649,2.275,2.275,0,0,1-.673,1.617A2.307,2.307,0,0,1,2.3,4.592ZM2.3.233A2.026,2.026,0,0,0,.847.827,2.085,2.085,0,0,0,.266,2.3a2.205,2.205,0,0,0,.152.822A1.919,1.919,0,0,0,1.488,4.2a2.158,2.158,0,0,0,.815.155h0a2.059,2.059,0,0,0,1.479-.6,2.078,2.078,0,0,0,.587-1.5,2.039,2.039,0,0,0-.6-1.45A2.068,2.068,0,0,0,2.309.233Z" transform="translate(458.292 365.04)"/><path class="d" d="M1.8,2.437a.526.526,0,0,1-.459-.325,1.81,1.81,0,0,0-.135-.2c-.04-.053-.081-.108-.116-.165a.348.348,0,0,0-.319-.177.777.777,0,0,0-.167.021c-.145.032-.138.135-.131.235a.408.408,0,0,1,0,.132.491.491,0,0,0,0,.171.3.3,0,0,1-.031.23.236.236,0,0,1-.181.059H.249a.261.261,0,0,1-.208-.068A.356.356,0,0,1,.016,2.07a.758.758,0,0,0,.014-.14C.011,1.5.015,1.071.02.651v0c0-.1,0-.211,0-.317,0-.018,0-.038,0-.056A.293.293,0,0,1,.065.061.181.181,0,0,1,.2.016H.215l.1,0c.1,0,.206,0,.305-.009h0C.72,0,.822,0,.924,0a1.786,1.786,0,0,1,.551.072.848.848,0,0,1,.377.24.75.75,0,0,1,.183.363.616.616,0,0,1-.231.61c-.323.258-.24.4-.05.639.021.027.044.055.063.077a.722.722,0,0,1,.207.392A.657.657,0,0,1,1.8,2.437ZM.773.42a.28.28,0,0,0-.245.1.52.52,0,0,0-.07.306.432.432,0,0,0,.086.315.287.287,0,0,0,.214.072A.885.885,0,0,0,.892,1.2L1,1.19a1,1,0,0,0,.373-.068.32.32,0,0,0,.17-.328C1.53.452,1.275.443,1.028.435h0c-.053,0-.109,0-.16-.009A.876.876,0,0,0,.773.42Z" transform="translate(459.659 366.051)"/></g></svg>