<svg xmlns="http://www.w3.org/2000/svg" width="37.567" height="26.424" viewBox="0 0 37.567 26.424"><defs><style>.a{fill:#4144b3;}.a,.b,.d{fill-rule:evenodd;}.b{fill:#e59703;}.c,.d{fill:#fff;}.d{opacity:0.102;}.e{fill:#5457bb;}</style></defs><path class="a" d="M2.14,0H35.429a2.162,2.162,0,0,1,2.139,2.184V24.238a2.163,2.163,0,0,1-2.139,2.186H2.14A2.163,2.163,0,0,1,0,24.238V2.184A2.162,2.162,0,0,1,2.14,0Z"/><path class="b" d="M2.14,0H35.429a2.162,2.162,0,0,1,2.139,2.184v13.71a2.163,2.163,0,0,1-2.139,2.186H2.14A2.163,2.163,0,0,1,0,15.895V2.184A2.162,2.162,0,0,1,2.14,0Z" transform="translate(0 8.343)"/><path class="c" d="M0,0H37.544V12.515H0Z" transform="translate(0.024 6.927)"/><path class="d" d="M2.14,26.424A2.163,2.163,0,0,1,0,24.238V2.184A2.162,2.162,0,0,1,2.14,0H35.429a2.162,2.162,0,0,1,2.139,2.184"/><g transform="translate(-682.129 -525.617)"><path class="e" d="M694.471,540.835q.293-.747.575-1.3l1.909-3.8h1.066l-3.206,6.134h-1.082l-.6-6.134h.973l.311,3.8q.038.433.046.978l0,.319Z" transform="translate(0 -0.035)"/><path class="e" d="M699.274,541.875l1.305-6.134h.986l-1.306,6.134Z" transform="translate(-1.745 -0.035)"/><path class="e" d="M706.394,540.044a1.69,1.69,0,0,1-.607,1.381,2.555,2.555,0,0,1-1.672.5,3.034,3.034,0,0,1-1.46-.314v-.94a2.975,2.975,0,0,0,1.469.408,1.492,1.492,0,0,0,.907-.246.8.8,0,0,0,.331-.682.822.822,0,0,0-.172-.514,2.961,2.961,0,0,0-.722-.573,3.273,3.273,0,0,1-.65-.512,1.692,1.692,0,0,1-.321-.506,1.592,1.592,0,0,1-.111-.606,1.768,1.768,0,0,1,.258-.953,1.7,1.7,0,0,1,.73-.642,2.424,2.424,0,0,1,1.063-.226,3.391,3.391,0,0,1,1.6.386l-.361.8a2.866,2.866,0,0,0-1.237-.327,1.062,1.062,0,0,0-.734.246.813.813,0,0,0-.277.64.881.881,0,0,0,.063.347.838.838,0,0,0,.195.276,4.084,4.084,0,0,0,.564.4,2.878,2.878,0,0,1,.9.787A1.553,1.553,0,0,1,706.394,540.044Z" transform="translate(-2.704)"/><path class="e" d="M711.889,540.168h-2.035l-.877,1.7h-1.066l3.286-6.143h1.149l.7,6.143h-.982Zm-.067-.872q-.168-1.746-.191-2.113c-.015-.244-.023-.44-.023-.585a14.152,14.152,0,0,1-.6,1.288l-.722,1.41Z" transform="translate(-4.196 -0.032)"/></g></svg>