<svg xmlns="http://www.w3.org/2000/svg" width="41.736" height="37.133" viewBox="0 0 41.736 37.133"><defs><style>.a,.b{fill:none;}.a{stroke:#000;stroke-miterlimit:10;stroke-width:1.2px;}.b{stroke:#171717;}</style></defs><g transform="translate(0.392 0.225)"><path class="a" d="M734.179,431.307a13.335,13.335,0,0,0,5.07-5.641" transform="translate(-707.655 -421.062)"/><path class="a" d="M678.333,448.9s5.793-8.066,15.3-6.862a13.971,13.971,0,0,0,6.067-.476" transform="translate(-675.759 -430.138)"/><path class="a" d="M703.323,448.346a15.04,15.04,0,0,1,7.566-.98,12.919,12.919,0,0,0,13.724-7.291" transform="translate(-690.032 -429.292)"/><path class="a" d="M721.507,463.867a10.85,10.85,0,0,1,3.693,0,12.919,12.919,0,0,0,13.724-7.291" transform="translate(-699.726 -438.715)"/><path class="a" d="M696.062,483.677a19.124,19.124,0,0,1,4.9-4.43" transform="translate(-685.885 -451.663)"/><ellipse class="a" cx="3.702" cy="2.425" rx="3.702" ry="2.425" transform="translate(2.454 23.157) rotate(-14.362)"/><ellipse class="a" cx="3.702" cy="2.425" rx="3.702" ry="2.425" transform="translate(14.049 24.166) rotate(-14.362)"/><ellipse class="a" cx="2.714" cy="1.778" rx="2.714" ry="1.778" transform="translate(8.443 4.961) rotate(7.644)"/><line class="a" y1="10.953" transform="translate(10.227 12.718)"/><line class="a" y1="10.953" transform="translate(21.822 13.726)"/><line class="a" y1="8.029" transform="matrix(0.927, 0.375, -0.375, 0.927, 16.593, 0)"/><ellipse class="a" cx="3.701" cy="2.425" rx="3.701" ry="2.425" transform="translate(26.752 32.263) rotate(-38.362)"/><line class="a" y1="10.952" transform="matrix(0.914, -0.407, 0.407, 0.914, 29.606, 19.565)"/><line class="a" y1="2.359" x2="1.501" transform="translate(22.302 2.961)"/><line class="a" x1="2.573" y1="2.216" transform="translate(0 11.61)"/><line class="a" x2="1.787" y2="1.611" transform="translate(37.456 8.64)"/><line class="a" x2="1.787" y2="1.501" transform="translate(39.171 26.764)"/><line class="a" y1="1.956" x2="1.858" transform="translate(15.225 31.454)"/><path class="b" d="M692.629,441.588l11.814.99" transform="translate(-682.398 -428.669)"/><path class="b" d="M692.629,441.588l11.814.99" transform="translate(-682.398 -426.652)"/></g></svg>