<svg xmlns="http://www.w3.org/2000/svg" width="41" height="37" viewBox="0 0 40.12 35.829"><defs><style>.a{fill:none;stroke:#000;stroke-miterlimit:10;stroke-width:1.2px;}</style></defs><g transform="translate(0.593 0.177)"><path class="a" d="M242.872,525.923a8.714,8.714,0,0,0,.579.769c1.782,1.88,8.335,8.775,11.837,12.458" transform="translate(-241.509 -505.459)"/><path class="a" d="M238.441,514.878a8.667,8.667,0,0,0,.688,2.178" transform="translate(-238.406 -497.726)"/><path class="a" d="M266,497.934c1.145-1.2,2.075-2.185,2.6-2.735a8.666,8.666,0,1,0-14.132-9.915l-.03.052a8.669,8.669,0,0,0-16.1,2.964" transform="translate(-238.326 -473.969)"/><path class="a" d="M294.876,560.43c1.32-1.389,3.345-3.551,5.986-6.327" transform="translate(-277.922 -525.191)"/><path class="a" d="M312.043,515.488l2.735-2.735,2.69,2.69" transform="translate(-289.942 -496.237)"/><line class="a" y2="15.89" transform="translate(24.852 16.514)"/><line class="a" y1="4.197" x2="1.299" transform="translate(28.884)"/><line class="a" y1="0.4" x2="4.755" transform="translate(34.722 11.092)"/><line class="a" y1="2.733" x2="3.385" transform="translate(32.308 4.562)"/></g></svg>
