<svg xmlns="http://www.w3.org/2000/svg" width="41.736" height="37.133" viewBox="0 0 35.944 35.842"><defs><style>.a{fill:none;stroke:#000;stroke-miterlimit:10;stroke-width:1.2px;}</style></defs><g transform="translate(0.734 0.63)"><path class="a" d="M438.935,464.455q-.805.075-1.63.076a17.315,17.315,0,0,1-15.945-24.041" transform="translate(-419.999 -429.918)"/><path class="a" d="M505.349,530.08a17.178,17.178,0,0,1-3.819,1.19" transform="translate(-481.007 -496.958)"/><path class="a" d="M537.188,419.709a17.305,17.305,0,0,1-.414,24.348" transform="translate(-507.381 -414.369)"/><path class="a" d="M432,406.031a17.313,17.313,0,0,1,23.451-4.907" transform="translate(-428.98 -398.497)"/><g transform="translate(2.134 7.833)"><g transform="translate(9.445 0)"><ellipse class="a" cx="3.182" cy="3.182" rx="3.182" ry="3.182" transform="translate(2.581)"/><path class="a" d="M466,465.319a5.761,5.761,0,0,1,11.523,0" transform="translate(-466 -452.02)"/></g><g transform="translate(0 4.43)"><ellipse class="a" cx="3.182" cy="3.182" rx="3.182" ry="3.182" transform="translate(2.58 0)"/><path class="a" d="M428.474,482.917a5.761,5.761,0,0,1,11.522,0" transform="translate(-428.474 -469.618)"/></g><g transform="translate(18.887 4.43)"><ellipse class="a" cx="3.182" cy="3.182" rx="3.182" ry="3.182" transform="translate(2.58 0)"/><path class="a" d="M503.507,482.917a5.761,5.761,0,0,1,11.523,0" transform="translate(-503.507 -469.618)"/></g></g></g></svg>
