<svg xmlns="http://www.w3.org/2000/svg" xmlns:xlink="http://www.w3.org/1999/xlink" width="426.36" height="245.238" viewBox="0 0 426.36 245.238"><defs><style>.a,.b,.c,.g,.h,.k{fill:none;}.b{stroke:#f13747;}.c,.k{stroke:#78f7de;}.d{clip-path:url(#a);}.e{fill:#fff;}.f{clip-path:url(#b);}.g,.h{stroke:#fff;}.g{stroke-miterlimit:10;}.g,.h,.k{stroke-width:1.5px;}.i{clip-path:url(#c);}.j{clip-path:url(#d);}</style><clipPath id="a"><path class="a" d="M314.171,271.1H228.183L141,103h85.989Z" transform="translate(-141 -103)"/></clipPath><clipPath id="b"><path class="a" d="M492.237,271.1H378.183L291,103H405.054Z" transform="translate(-291 -103)"/></clipPath><clipPath id="c"><path class="a" d="M680.489,271.1H577.183L490,103H593.306Z" transform="translate(-490 -103)"/></clipPath><clipPath id="d"><path class="a" d="M206.069,271.1H182.183L95,103h23.886Z" transform="translate(-95 -103)"/></clipPath></defs><g transform="translate(-0.299 -102.506)"><line class="b" x2="111.407" y2="214.2" transform="translate(27.727 133.314)"/><line class="c" x2="86.586" y2="168.991" transform="translate(128.386 150.403)"/><line class="c" x2="86.586" y2="168.991" transform="translate(246.62 150.403)"/><path class="c" d="M0,0,7.464,13.137" transform="translate(221.54 157.639)"/><path class="c" d="M0,0,7.265,12.44" transform="translate(249.606 206.556)"/><path class="c" d="M0,0,4.479,6.668" transform="translate(260.951 226.244)"/><path class="c" d="M0,0,19.805,34.137" transform="translate(273.491 245.319)"/><line class="b" x2="26.274" y2="43.591" transform="translate(280.06 271.559)"/><line class="c" x2="14.929" y2="28.663" transform="translate(200.64 259.042)"/><line class="c" x2="11.346" y2="20.9" transform="translate(208.403 133.775)"/><line class="b" x2="11.346" y2="20.9" transform="translate(194.669 123.634)"/><line class="c" x2="11.346" y2="20.9" transform="translate(170.783 289.47)"/><line class="b" x2="11.346" y2="20.9" transform="translate(228.706 258.45)"/><line class="c" x2="11.346" y2="20.9" transform="translate(217.36 291.259)"/><path class="b" d="M0,0,9.256,17.616" transform="translate(159.437 148.689)"/><line class="b" x2="23.289" y2="45.383" transform="translate(86.586 125.416)"/><line class="c" x2="48.966" y2="95.543" transform="translate(373.811 198.277) rotate(180)"/><line class="c" x2="56.131" y2="108.083" transform="translate(67.799 144.712)"/><g transform="translate(0.299 129.833)"><g transform="translate(27.469)"><g class="d"><g transform="translate(9.814 36.442)"><path class="e" d="M157.435,196.213l6.6-3.823c1.738,2.838,4,4.923,7.994,4.923,3.36,0,5.5-1.68,5.5-4,0-2.78-2.2-3.765-5.909-5.387l-2.027-.869c-5.85-2.491-9.731-5.619-9.731-12.222,0-6.082,4.634-10.716,11.874-10.716,5.155,0,8.862,1.8,11.526,6.487l-6.313,4.055c-1.39-2.491-2.9-3.475-5.213-3.475-2.375,0-3.881,1.506-3.881,3.475,0,2.433,1.506,3.417,4.981,4.923l2.028.869c6.893,2.954,10.774,5.966,10.774,12.743,0,7.3-5.735,11.295-13.438,11.295C164.675,204.5,159.809,200.905,157.435,196.213Z" transform="translate(-157.435 -164.066)"/><path class="e" d="M220.76,172.024H209.523V164.9h30.583v7.124H228.869v32.263H220.76Z" transform="translate(-178.419 -164.379)"/><path class="e" d="M299.807,204.288h-9.383l-6.487-9.963a15.6,15.6,0,0,1-2.317.174h-2.78v9.789h-8.11V164.9h10.89c11.005,0,17.609,5.271,17.609,14.886,0,6.14-2.722,10.021-7.588,12.222Zm-18.419-16.856c6.6,0,9.5-2.085,9.5-7.646s-3.012-7.762-9.5-7.762h-2.549v15.408Z" transform="translate(-203.076 -164.379)"/><path class="e" d="M328.057,184.242c0-11.643,9.035-20.215,20.388-20.215s20.389,8.573,20.389,20.215-9.036,20.215-20.389,20.215S328.057,195.885,328.057,184.242Zm32.437,0c0-7.356-4.866-12.975-12.049-12.975S336.4,176.886,336.4,184.242s4.866,12.975,12.048,12.975S360.494,191.6,360.494,184.242Z" transform="translate(-226.171 -164.027)"/><path class="e" d="M419.587,185.749a58.53,58.53,0,0,1-4.692-5.387,69.336,69.336,0,0,1,.579,7.182v16.508h-7.588V164.318h.811l19.868,18.651a55.993,55.993,0,0,1,4.634,5.387s-.521-4.46-.521-7.182V164.666h7.588V204.4h-.811Z" transform="translate(-258.331 -164.144)"/><path class="e" d="M473.651,184.281c0-11.643,8.225-20.157,20.1-20.157,6.429,0,11.063,1.738,14.307,5.445l-5.5,5.445c-1.969-2.027-4.228-3.591-8.8-3.591-7.125,0-11.759,5.5-11.759,12.859s4.75,12.975,13.033,12.975a19.43,19.43,0,0,0,7.7-1.448v-5.792h-9.5v-7.125h16.913V199.92c-2.258,1.854-7.935,4.576-15.118,4.576C482.166,204.5,473.651,195.924,473.651,184.281Z" transform="translate(-284.825 -164.066)"/><path class="e" d="M547.565,164.9h26.066v7.124H555.675v12.511h15.813v6.951H555.675v5.676h18.767v7.125H547.565Z" transform="translate(-314.602 -164.379)"/><path class="e" d="M634.26,204.288h-9.384l-6.487-9.963a15.6,15.6,0,0,1-2.317.174h-2.78v9.789h-8.109V164.9h10.89c11.005,0,17.608,5.271,17.608,14.886,0,6.14-2.722,10.021-7.588,12.222Zm-18.419-16.856c6.6,0,9.5-2.085,9.5-7.646s-3.011-7.762-9.5-7.762h-2.549v15.408Z" transform="translate(-337.813 -164.379)"/></g><g transform="translate(70.005 88.782)"><path class="e" d="M269.555,259.736H258.233v-7.178h30.814v7.178H277.725v32.507h-8.17Z" transform="translate(-258.233 -252.033)"/><path class="e" d="M313.746,272.046c0-11.731,9.1-20.368,20.543-20.368s20.543,8.637,20.543,20.368-9.1,20.367-20.543,20.367S313.746,283.776,313.746,272.046Zm32.682,0c0-7.412-4.9-13.073-12.139-13.073s-12.139,5.661-12.139,13.073,4.9,13.073,12.139,13.073S346.428,279.458,346.428,272.046Z" transform="translate(-280.597 -251.678)"/><path class="e" d="M391.934,272.085c0-11.731,8.287-20.31,20.251-20.31,6.478,0,11.147,1.751,14.414,5.486l-5.544,5.486c-1.984-2.042-4.261-3.618-8.871-3.618-7.179,0-11.847,5.544-11.847,12.956s4.786,13.073,13.131,13.073a19.571,19.571,0,0,0,7.762-1.459v-5.836h-9.571v-7.178H428.7v17.158c-2.276,1.868-8,4.611-15.232,4.611C400.513,292.452,391.934,283.815,391.934,272.085Z" transform="translate(-312.095 -251.717)"/><path class="e" d="M466.407,252.558h26.262v7.178H474.578v12.606H490.51v7H474.578v5.719h18.909v7.178H466.407Z" transform="translate(-342.097 -252.033)"/><path class="e" d="M531.972,259.736H520.65v-7.178h30.814v7.178H540.143v32.507h-8.171Z" transform="translate(-363.95 -252.033)"/><path class="e" d="M582.32,252.558h8.17v20.309h16.983V252.558h8.171v39.685h-8.171V280.162H590.49v12.081h-8.17Z" transform="translate(-388.794 -252.033)"/><path class="e" d="M652,252.558h26.262v7.178H660.175v12.606h15.932v7H660.175v5.719h18.909v7.178H652Z" transform="translate(-416.867 -252.033)"/><path class="e" d="M739.356,292.243H729.9L723.366,282.2a15.756,15.756,0,0,1-2.334.175h-2.8v9.863h-8.17V252.558h10.971c11.088,0,17.742,5.31,17.742,15,0,6.186-2.743,10.1-7.645,12.314ZM720.8,275.26c6.653,0,9.571-2.1,9.571-7.7s-3.035-7.82-9.571-7.82H718.23V275.26Z" transform="translate(-440.255 -252.033)"/></g></g></g><g transform="translate(117.04)"><g class="f"><g transform="translate(-79.757 36.442)"><path class="g" d="M157.435,196.213l6.6-3.823c1.738,2.838,4,4.923,7.994,4.923,3.36,0,5.5-1.68,5.5-4,0-2.78-2.2-3.765-5.909-5.387l-2.027-.869c-5.85-2.491-9.731-5.619-9.731-12.222,0-6.082,4.634-10.716,11.874-10.716,5.155,0,8.862,1.8,11.526,6.487l-6.313,4.055c-1.39-2.491-2.9-3.475-5.213-3.475-2.375,0-3.881,1.506-3.881,3.475,0,2.433,1.506,3.417,4.981,4.923l2.028.869c6.893,2.954,10.774,5.966,10.774,12.743,0,7.3-5.735,11.295-13.438,11.295C164.675,204.5,159.809,200.905,157.435,196.213Z" transform="translate(-157.435 -164.066)"/><path class="g" d="M220.76,172.024H209.523V164.9h30.583v7.124H228.869v32.263H220.76Z" transform="translate(-178.419 -164.379)"/><path class="g" d="M299.807,204.288h-9.383l-6.487-9.963a15.6,15.6,0,0,1-2.317.174h-2.78v9.789h-8.11V164.9h10.89c11.005,0,17.609,5.271,17.609,14.886,0,6.14-2.722,10.021-7.588,12.222Zm-18.419-16.856c6.6,0,9.5-2.085,9.5-7.646s-3.012-7.762-9.5-7.762h-2.549v15.408Z" transform="translate(-203.076 -164.379)"/><path class="g" d="M328.057,184.242c0-11.643,9.035-20.215,20.388-20.215s20.389,8.573,20.389,20.215-9.036,20.215-20.389,20.215S328.057,195.885,328.057,184.242Zm32.437,0c0-7.356-4.866-12.975-12.049-12.975S336.4,176.886,336.4,184.242s4.866,12.975,12.048,12.975S360.494,191.6,360.494,184.242Z" transform="translate(-226.171 -164.027)"/><path class="g" d="M419.587,185.749a58.53,58.53,0,0,1-4.692-5.387,69.336,69.336,0,0,1,.579,7.182v16.508h-7.588V164.318h.811l19.868,18.651a55.993,55.993,0,0,1,4.634,5.387s-.521-4.46-.521-7.182V164.666h7.588V204.4h-.811Z" transform="translate(-258.331 -164.144)"/><path class="g" d="M473.651,184.281c0-11.643,8.225-20.157,20.1-20.157,6.429,0,11.063,1.738,14.307,5.445l-5.5,5.445c-1.969-2.027-4.228-3.591-8.8-3.591-7.125,0-11.759,5.5-11.759,12.859s4.75,12.975,13.033,12.975a19.43,19.43,0,0,0,7.7-1.448v-5.792h-9.5v-7.125h16.913V199.92c-2.258,1.854-7.935,4.576-15.118,4.576C482.166,204.5,473.651,195.924,473.651,184.281Z" transform="translate(-284.825 -164.066)"/><path class="g" d="M547.565,164.9h26.066v7.124H555.675v12.511h15.813v6.951H555.675v5.676h18.767v7.125H547.565Z" transform="translate(-314.602 -164.379)"/><path class="g" d="M634.26,204.288h-9.384l-6.487-9.963a15.6,15.6,0,0,1-2.317.174h-2.78v9.789h-8.109V164.9h10.89c11.005,0,17.608,5.271,17.608,14.886,0,6.14-2.722,10.021-7.588,12.222Zm-18.419-16.856c6.6,0,9.5-2.085,9.5-7.646s-3.011-7.762-9.5-7.762h-2.549v15.408Z" transform="translate(-337.813 -164.379)"/></g><g transform="translate(-19.567 88.782)"><path class="h" d="M269.555,259.736H258.233v-7.178h30.814v7.178H277.725v32.507h-8.17Z" transform="translate(-258.233 -252.033)"/><path class="h" d="M313.746,272.046c0-11.731,9.1-20.368,20.543-20.368s20.543,8.637,20.543,20.368-9.1,20.367-20.543,20.367S313.746,283.776,313.746,272.046Zm32.682,0c0-7.412-4.9-13.073-12.139-13.073s-12.139,5.661-12.139,13.073,4.9,13.073,12.139,13.073S346.428,279.458,346.428,272.046Z" transform="translate(-280.597 -251.678)"/><path class="h" d="M391.934,272.085c0-11.731,8.287-20.31,20.251-20.31,6.478,0,11.147,1.751,14.414,5.486l-5.544,5.486c-1.984-2.042-4.261-3.618-8.871-3.618-7.179,0-11.847,5.544-11.847,12.956s4.786,13.073,13.131,13.073a19.571,19.571,0,0,0,7.762-1.459v-5.836h-9.571v-7.178H428.7v17.158c-2.276,1.868-8,4.611-15.232,4.611C400.513,292.452,391.934,283.815,391.934,272.085Z" transform="translate(-312.095 -251.717)"/><path class="h" d="M466.407,252.558h26.262v7.178H474.578v12.606H490.51v7H474.578v5.719h18.909v7.178H466.407Z" transform="translate(-342.097 -252.033)"/><path class="h" d="M531.972,259.736H520.65v-7.178h30.814v7.178H540.143v32.507h-8.171Z" transform="translate(-363.95 -252.033)"/><path class="h" d="M582.32,252.558h8.17v20.309h16.983V252.558h8.171v39.685h-8.171V280.162H590.49v12.081h-8.17Z" transform="translate(-388.794 -252.033)"/><path class="h" d="M652,252.558h26.262v7.178H660.175v12.606h15.932v7H660.175v5.719h18.909v7.178H652Z" transform="translate(-416.867 -252.033)"/><path class="h" d="M739.356,292.243H729.9L723.366,282.2a15.756,15.756,0,0,1-2.334.175h-2.8v9.863h-8.17V252.558h10.971c11.088,0,17.742,5.31,17.742,15,0,6.186-2.743,10.1-7.645,12.314ZM720.8,275.26c6.653,0,9.571-2.1,9.571-7.7s-3.035-7.82-9.571-7.82H718.23V275.26Z" transform="translate(-440.255 -252.033)"/></g></g></g><g transform="translate(235.871)"><g class="i"><g transform="translate(-138.398 88.782)"><path class="e" d="M269.555,259.736H258.233v-7.178h30.814v7.178H277.725v32.507h-8.17Z" transform="translate(-258.233 -252.033)"/><path class="e" d="M313.746,272.046c0-11.731,9.1-20.368,20.543-20.368s20.543,8.637,20.543,20.368-9.1,20.367-20.543,20.367S313.746,283.776,313.746,272.046Zm32.682,0c0-7.412-4.9-13.073-12.139-13.073s-12.139,5.661-12.139,13.073,4.9,13.073,12.139,13.073S346.428,279.458,346.428,272.046Z" transform="translate(-280.597 -251.678)"/><path class="e" d="M391.934,272.085c0-11.731,8.287-20.31,20.251-20.31,6.478,0,11.147,1.751,14.414,5.486l-5.544,5.486c-1.984-2.042-4.261-3.618-8.871-3.618-7.179,0-11.847,5.544-11.847,12.956s4.786,13.073,13.131,13.073a19.571,19.571,0,0,0,7.762-1.459v-5.836h-9.571v-7.178H428.7v17.158c-2.276,1.868-8,4.611-15.232,4.611C400.513,292.452,391.934,283.815,391.934,272.085Z" transform="translate(-312.095 -251.717)"/><path class="e" d="M466.407,252.558h26.262v7.178H474.578v12.606H490.51v7H474.578v5.719h18.909v7.178H466.407Z" transform="translate(-342.097 -252.033)"/><path class="e" d="M531.972,259.736H520.65v-7.178h30.814v7.178H540.143v32.507h-8.171Z" transform="translate(-363.95 -252.033)"/><path class="e" d="M582.32,252.558h8.17v20.309h16.983V252.558h8.171v39.685h-8.171V280.162H590.49v12.081h-8.17Z" transform="translate(-388.794 -252.033)"/><path class="e" d="M652,252.558h26.262v7.178H660.175v12.606h15.932v7H660.175v5.719h18.909v7.178H652Z" transform="translate(-416.867 -252.033)"/><path class="e" d="M739.356,292.243H729.9L723.366,282.2a15.756,15.756,0,0,1-2.334.175h-2.8v9.863h-8.17V252.558h10.971c11.088,0,17.742,5.31,17.742,15,0,6.186-2.743,10.1-7.645,12.314ZM720.8,275.26c6.653,0,9.571-2.1,9.571-7.7s-3.035-7.82-9.571-7.82H718.23V275.26Z" transform="translate(-440.255 -252.033)"/></g><g transform="translate(-199.186 36.442)"><path class="e" d="M156.435,196.213l6.6-3.823c1.738,2.838,4,4.923,7.994,4.923,3.36,0,5.5-1.68,5.5-4,0-2.78-2.2-3.765-5.909-5.387l-2.027-.869c-5.85-2.491-9.731-5.619-9.731-12.222,0-6.082,4.634-10.716,11.874-10.716,5.155,0,8.862,1.8,11.526,6.487l-6.313,4.055c-1.39-2.491-2.9-3.475-5.213-3.475-2.375,0-3.881,1.506-3.881,3.475,0,2.433,1.506,3.417,4.981,4.923l2.028.869c6.893,2.954,10.774,5.966,10.774,12.743,0,7.3-5.735,11.295-13.438,11.295C163.675,204.5,158.809,200.905,156.435,196.213Z" transform="translate(-156.435 -164.066)"/><path class="e" d="M219.76,172.024H208.523V164.9h30.583v7.124H227.869v32.263H219.76Z" transform="translate(-177.419 -164.379)"/><path class="e" d="M298.807,204.288h-9.383l-6.487-9.963a15.6,15.6,0,0,1-2.317.174h-2.78v9.789h-8.11V164.9h10.89c11.005,0,17.609,5.271,17.609,14.886,0,6.14-2.722,10.021-7.588,12.222Zm-18.419-16.856c6.6,0,9.5-2.085,9.5-7.646s-3.012-7.762-9.5-7.762h-2.549v15.408Z" transform="translate(-202.076 -164.379)"/><path class="e" d="M327.057,184.242c0-11.643,9.035-20.215,20.388-20.215s20.389,8.573,20.389,20.215-9.036,20.215-20.389,20.215S327.057,195.885,327.057,184.242Zm32.437,0c0-7.356-4.866-12.975-12.049-12.975S335.4,176.886,335.4,184.242s4.866,12.975,12.048,12.975S359.494,191.6,359.494,184.242Z" transform="translate(-225.171 -164.027)"/><path class="e" d="M418.587,185.749a58.53,58.53,0,0,1-4.692-5.387,69.336,69.336,0,0,1,.579,7.182v16.508h-7.588V164.318h.811l19.868,18.651a55.983,55.983,0,0,1,4.634,5.387s-.521-4.46-.521-7.182V164.666h7.588V204.4h-.811Z" transform="translate(-257.331 -164.144)"/><path class="e" d="M472.651,184.281c0-11.643,8.225-20.157,20.1-20.157,6.429,0,11.063,1.738,14.307,5.445l-5.5,5.445c-1.969-2.027-4.228-3.591-8.8-3.591-7.125,0-11.759,5.5-11.759,12.859s4.75,12.975,13.033,12.975a19.43,19.43,0,0,0,7.7-1.448v-5.792h-9.5v-7.125h16.913V199.92c-2.258,1.854-7.935,4.576-15.118,4.576C481.166,204.5,472.651,195.924,472.651,184.281Z" transform="translate(-283.825 -164.066)"/><path class="e" d="M546.565,164.9h26.066v7.124H554.675v12.511h15.813v6.951H554.675v5.676h18.767v7.125H546.565Z" transform="translate(-313.602 -164.379)"/><path class="e" d="M633.26,204.288h-9.383l-6.487-9.963a15.6,15.6,0,0,1-2.317.174h-2.78v9.789h-8.109V164.9h10.89c11.005,0,17.609,5.271,17.609,14.886,0,6.14-2.722,10.021-7.588,12.222Zm-18.419-16.856c6.6,0,9.5-2.085,9.5-7.646s-3.011-7.762-9.5-7.762h-2.549v15.408Z" transform="translate(-336.813 -164.379)"/></g></g></g><g class="j"><g transform="translate(37.283 36.442)"><path class="g" d="M157.435,196.213l6.6-3.823c1.738,2.838,4,4.923,7.994,4.923,3.36,0,5.5-1.68,5.5-4,0-2.78-2.2-3.765-5.909-5.387l-2.027-.869c-5.85-2.491-9.731-5.619-9.731-12.222,0-6.082,4.634-10.716,11.874-10.716,5.155,0,8.862,1.8,11.526,6.487l-6.313,4.055c-1.39-2.491-2.9-3.475-5.213-3.475-2.375,0-3.881,1.506-3.881,3.475,0,2.433,1.506,3.417,4.981,4.923l2.028.869c6.893,2.954,10.774,5.966,10.774,12.743,0,7.3-5.735,11.295-13.438,11.295C164.675,204.5,159.809,200.905,157.435,196.213Z" transform="translate(-157.435 -164.066)"/><path class="g" d="M220.76,172.024H209.523V164.9h30.583v7.124H228.869v32.263H220.76Z" transform="translate(-178.419 -164.379)"/><path class="g" d="M299.807,204.288h-9.383l-6.487-9.963a15.6,15.6,0,0,1-2.317.174h-2.78v9.789h-8.11V164.9h10.89c11.005,0,17.609,5.271,17.609,14.886,0,6.14-2.722,10.021-7.588,12.222Zm-18.419-16.856c6.6,0,9.5-2.085,9.5-7.646s-3.012-7.762-9.5-7.762h-2.549v15.408Z" transform="translate(-203.076 -164.379)"/><path class="g" d="M328.057,184.242c0-11.643,9.035-20.215,20.388-20.215s20.389,8.573,20.389,20.215-9.036,20.215-20.389,20.215S328.057,195.885,328.057,184.242Zm32.437,0c0-7.356-4.866-12.975-12.049-12.975S336.4,176.886,336.4,184.242s4.866,12.975,12.048,12.975S360.494,191.6,360.494,184.242Z" transform="translate(-226.171 -164.027)"/><path class="g" d="M419.587,185.749a58.53,58.53,0,0,1-4.692-5.387,69.336,69.336,0,0,1,.579,7.182v16.508h-7.588V164.318h.811l19.868,18.651a55.993,55.993,0,0,1,4.634,5.387s-.521-4.46-.521-7.182V164.666h7.588V204.4h-.811Z" transform="translate(-258.331 -164.144)"/><path class="g" d="M473.651,184.281c0-11.643,8.225-20.157,20.1-20.157,6.429,0,11.063,1.738,14.307,5.445l-5.5,5.445c-1.969-2.027-4.228-3.591-8.8-3.591-7.125,0-11.759,5.5-11.759,12.859s4.75,12.975,13.033,12.975a19.43,19.43,0,0,0,7.7-1.448v-5.792h-9.5v-7.125h16.913V199.92c-2.258,1.854-7.935,4.576-15.118,4.576C482.166,204.5,473.651,195.924,473.651,184.281Z" transform="translate(-284.825 -164.066)"/><path class="g" d="M547.565,164.9h26.066v7.124H555.675v12.511h15.813v6.951H555.675v5.676h18.767v7.125H547.565Z" transform="translate(-314.602 -164.379)"/><path class="g" d="M634.26,204.288h-9.384l-6.487-9.963a15.6,15.6,0,0,1-2.317.174h-2.78v9.789h-8.109V164.9h10.89c11.005,0,17.608,5.271,17.608,14.886,0,6.14-2.722,10.021-7.588,12.222Zm-18.419-16.856c6.6,0,9.5-2.085,9.5-7.646s-3.011-7.762-9.5-7.762h-2.549v15.408Z" transform="translate(-337.813 -164.379)"/></g><g transform="translate(97.473 88.782)"><path d="M269.555,259.736H258.233v-7.178h30.814v7.178H277.725v32.507h-8.17Z" transform="translate(-258.233 -252.033)"/><path d="M313.746,272.046c0-11.731,9.1-20.368,20.543-20.368s20.543,8.637,20.543,20.368-9.1,20.367-20.543,20.367S313.746,283.776,313.746,272.046Zm32.682,0c0-7.412-4.9-13.073-12.139-13.073s-12.139,5.661-12.139,13.073,4.9,13.073,12.139,13.073S346.428,279.458,346.428,272.046Z" transform="translate(-280.597 -251.678)"/><path d="M391.934,272.085c0-11.731,8.287-20.31,20.251-20.31,6.478,0,11.147,1.751,14.414,5.486l-5.544,5.486c-1.984-2.042-4.261-3.618-8.871-3.618-7.179,0-11.847,5.544-11.847,12.956s4.786,13.073,13.131,13.073a19.571,19.571,0,0,0,7.762-1.459v-5.836h-9.571v-7.178H428.7v17.158c-2.276,1.868-8,4.611-15.232,4.611C400.513,292.452,391.934,283.815,391.934,272.085Z" transform="translate(-312.095 -251.717)"/><path d="M466.407,252.558h26.262v7.178H474.578v12.606H490.51v7H474.578v5.719h18.909v7.178H466.407Z" transform="translate(-342.097 -252.033)"/><path d="M531.972,259.736H520.65v-7.178h30.814v7.178H540.143v32.507h-8.171Z" transform="translate(-363.95 -252.033)"/><path d="M582.32,252.558h8.17v20.309h16.983V252.558h8.171v39.685h-8.171V280.162H590.49v12.081h-8.17Z" transform="translate(-388.794 -252.033)"/><path d="M652,252.558h26.262v7.178H660.175v12.606h15.932v7H660.175v5.719h18.909v7.178H652Z" transform="translate(-416.867 -252.033)"/><path d="M739.356,292.243H729.9L723.366,282.2a15.756,15.756,0,0,1-2.334.175h-2.8v9.863h-8.17V252.558h10.971c11.088,0,17.742,5.31,17.742,15,0,6.186-2.743,10.1-7.645,12.314ZM720.8,275.26c6.653,0,9.571-2.1,9.571-7.7s-3.035-7.82-9.571-7.82H718.23V275.26Z" transform="translate(-440.255 -252.033)"/></g></g></g><line class="k" x1="26.527" y1="49.414" transform="translate(376.2 202.9)"/></g></svg>