<svg xmlns="http://www.w3.org/2000/svg" width="377.117" height="108.66" viewBox="0 0 377.117 108.66"> <defs> <style>.a,.b,.c{fill:none;}.a{stroke:#fff;}.b{stroke:#26a48b;}.b,.c{stroke-width:1.5px;}.c{stroke:#f13747;}</style> <filter id="greenGlow" height="300%" width="300%" x="-75%" y="-75%"> <feMorphology operator="dilate" radius="2" in="SourceAlpha" result="thicken" /> <feGaussianBlur in="thicken" stdDeviation="10" result="blurred" /> <feFlood flood-color="#26a48b" result="glowColor" /> <feComposite in="glowColor" in2="blurred" operator="in" result="softGlow_colored" /> <feMerge> <feMergeNode in="softGlow_colored" /> <feMergeNode in="SourceGraphic" /> </feMerge> </filter> <filter id="redGlow" height="300%" width="300%" x="-75%" y="-75%"> <feMorphology operator="dilate" radius="2" in="SourceAlpha" result="thicken" /> <feGaussianBlur in="thicken" stdDeviation="10" result="blurred" /> <feFlood flood-color="#f13747" result="glowColor" /> <feComposite in="glowColor" in2="blurred" operator="in" result="softGlow_colored" /> <feMerge> <feMergeNode in="softGlow_colored" /> <feMergeNode in="SourceGraphic" /> </feMerge> </filter> </defs> <g transform="translate(-81.619 -479.593)"> <g transform="translate(95.635 519.301)"> <path class="a" d="M114.013,559.521v33.224h-7.607V567.027" transform="translate(-106.406 -555.307)" /> <path class="a" d="M145.138,572.34a54.9,54.9,0,0,1-4.4-5.054,65.064,65.064,0,0,1,.543,6.738V589.51h-7.118V552.235h.761l18.638,17.5a52.623,52.623,0,0,1,4.347,5.053s-.489-4.184-.489-6.738V552.561h7.118v37.275h-.761Z" transform="translate(-118.73 -552.072)" /> <path class="a" d="M196.907,582.141l6.195-3.586c1.63,2.662,3.749,4.618,7.5,4.618,3.152,0,5.162-1.576,5.162-3.749,0-2.608-2.065-3.531-5.542-5.053l-1.9-.815c-5.488-2.337-9.129-5.271-9.129-11.465,0-5.7,4.347-10.053,11.139-10.053,4.836,0,8.313,1.685,10.813,6.086l-5.922,3.8c-1.3-2.337-2.717-3.26-4.891-3.26-2.228,0-3.641,1.413-3.641,3.26,0,2.282,1.413,3.206,4.673,4.618l1.9.816c6.467,2.771,10.107,5.6,10.107,11.954,0,6.846-5.379,10.6-12.606,10.6C203.7,589.911,199.135,586.542,196.907,582.141Z" transform="translate(-146.591 -551.984)" /> <path class="a" d="M259.932,559.5H249.391v-6.683h28.69V559.5H267.539V589.77h-7.607Z" transform="translate(-169.895 -552.332)" /> <path class="a" d="M338.338,589.77h-8.8l-6.085-9.346a14.674,14.674,0,0,1-2.174.163h-2.608v9.183h-7.607V552.821h10.215c10.324,0,16.518,4.944,16.518,13.964,0,5.759-2.554,9.4-7.118,11.465Zm-17.28-15.812c6.2,0,8.911-1.956,8.911-7.173s-2.825-7.281-8.911-7.281h-2.391v14.454Z" transform="translate(-197.279 -552.332)" /> <path class="a" d="M369.8,576.4V552.821h7.607v23.147c0,5.38,2.337,7.445,7.389,7.445,5,0,7.281-2.065,7.281-7.445V552.821h7.608V576.4c0,9.345-6.467,13.856-14.889,13.856C376.266,590.259,369.8,585.748,369.8,576.4Z" transform="translate(-223.36 -552.332)" /> <path class="a" d="M434.891,570.948a18.609,18.609,0,0,1,19.017-18.91c6.683,0,11.466,2.391,14.78,7.553l-5.814,4.13a10.075,10.075,0,0,0-8.966-4.836c-6.684,0-11.193,5.162-11.193,12.063s4.509,12.171,11.193,12.171c4.782,0,7.444-2.282,9.509-5.434l5.923,4.075c-3.206,5-8.314,8.151-15.431,8.151A18.654,18.654,0,0,1,434.891,570.948Z" transform="translate(-252.263 -551.984)" /> <path class="a" d="M513.749,559.5H503.207v-6.683H531.9V559.5H521.356V589.77h-7.607Z" transform="translate(-282.597 -552.332)" /> <path class="a" d="M558.721,570.9a19.127,19.127,0,1,1,19.125,18.964A18.712,18.712,0,0,1,558.721,570.9Zm30.427,0c0-6.9-4.564-12.171-11.3-12.171s-11.3,5.271-11.3,12.171,4.565,12.171,11.3,12.171S589.148,577.805,589.148,570.9Z" transform="translate(-307.247 -551.941)" /> <path class="a" d="M666.433,589.77h-8.8l-6.086-9.346a14.668,14.668,0,0,1-2.173.163h-2.608v9.183h-7.607V552.821h10.215c10.324,0,16.518,4.944,16.518,13.964,0,5.759-2.554,9.4-7.118,11.465Zm-17.279-15.812c6.193,0,8.911-1.956,8.911-7.173s-2.825-7.281-8.911-7.281h-2.391v14.454Z" transform="translate(-342.962 -552.332)" /> <path class="a" d="M704.722,589.758a14.115,14.115,0,0,1-11.324-7.617l6.194-3.586c1.63,2.662,3.749,4.618,7.5,4.618,3.151,0,5.162-1.576,5.162-3.749,0-2.608-2.064-3.531-5.542-5.053l-1.9-.815c-5.488-2.337-9.129-5.271-9.129-11.465,0-5.7,4.347-10.053,11.139-10.053,4.836,0,8.314,1.685,10.813,6.086l-5.922,3.8c-1.3-2.337-2.717-3.26-4.891-3.26-2.227,0-3.64,1.413-3.64,3.26,0,2.282,1.413,3.206,4.673,4.618l1.9.816c4.905,2.1,8.184,4.235,9.482,7.917" transform="translate(-367.047 -551.984)" /> </g> <line class="b" filter="url(#greenGlow)" x1="29.92" y2="29.92" transform="translate(86.755 509.894)" /> <line class="b" filter="url(#greenGlow)" x1="13.375" y2="13.375" transform="translate(82.149 543.363)" /> <line class="c" filter="url(#redGlow)" x1="13.376" y2="13.376" transform="translate(87.086 556.739)" /> <line class="c" filter="url(#redGlow)" x1="12.718" y2="12.718" transform="translate(141.374 539.527)" /> <line class="c" filter="url(#redGlow)" x1="4.456" y2="4.456" transform="translate(159.922 529.241)" /> <line class="c" filter="url(#redGlow)" x1="13.396" y2="13.396" transform="translate(169.311 510.911)" /> <line class="b" filter="url(#greenGlow)" x1="7.908" y2="7.908" transform="translate(177.764 547.646)" /> <line class="b" filter="url(#greenGlow)" x1="16.138" y2="16.138" transform="translate(193.279 523.9)" /> <line class="c" filter="url(#redGlow)" x1="4.983" y2="4.983" transform="translate(204.434 549.334)" /> <line class="c" filter="url(#redGlow)" x1="10.107" y2="10.107" transform="translate(217.824 530.821)" /> <line class="b" filter="url(#greenGlow)" x1="7.098" y2="7.098" transform="translate(235.592 547.984)" /> <line class="c" filter="url(#redGlow)" x1="4.249" y2="4.249" transform="translate(249.682 536.743)" /> <line class="c" filter="url(#redGlow)" x1="5.211" y2="5.211" transform="translate(259.141 526.321)" /> <line class="c" filter="url(#redGlow)" x1="7.38" y2="7.38" transform="translate(270.883 512.41)" /> <line class="c" filter="url(#redGlow)" x1="11.675" y2="11.675" transform="translate(286.548 492.45)" /> <line class="b" filter="url(#greenGlow)" x1="11.667" y2="11.667" transform="translate(300.102 562.335)" /> <line class="b" filter="url(#greenGlow)" x1="8.796" y2="8.796" transform="translate(344.935 552.788)" /> <line class="b" filter="url(#greenGlow)" x1="11.205" y2="11.205" transform="translate(364.301 531.014)" /> <line class="b" filter="url(#greenGlow)" x1="2.847" y2="2.847" transform="translate(380.78 522.893)" /> <line class="b" filter="url(#greenGlow)" x1="6.308" y2="6.308" transform="translate(320.479 547.317)" /> <line class="b" filter="url(#greenGlow)" x1="16.201" y2="16.201" transform="translate(334.394 523.509)" /> <line class="b" filter="url(#greenGlow)" x1="13.063" y2="13.063" transform="translate(354.803 506.237)" /> <line class="c" filter="url(#redGlow)" x1="22.126" y2="22.126" transform="translate(331.469 497.229)" /> <line class="b" filter="url(#greenGlow)" x1="5.004" y2="5.004" transform="translate(372.741 496.359)" /> <line class="b" filter="url(#greenGlow)" x1="10.524" y2="10.524" transform="translate(377.745 485.836)" /> <line class="b" filter="url(#greenGlow)" x1="10.904" y2="10.904" transform="translate(269.417 547.07)" /> <line class="b" filter="url(#greenGlow)" x1="14.347" y2="14.347" transform="translate(286.347 526.697)" /> <line class="b" filter="url(#greenGlow)" x1="15.203" y2="15.203" transform="translate(306.104 506.083)" /> <line class="c" filter="url(#redGlow)" x1="12.503" y2="12.503" transform="translate(233.528 512.72)" /> <line class="b" filter="url(#greenGlow)" x1="8.612" y2="8.612" transform="translate(175.365 526.474)" /> <line class="b" filter="url(#greenGlow)" x1="10.688" y2="10.688" transform="translate(190.66 509.102)" /> <line class="b" filter="url(#greenGlow)" x1="18.81" y2="18.81" transform="translate(217.377 497.131)" /> <line class="b" filter="url(#greenGlow)" x1="7.923" y2="7.923" transform="translate(141.571 518.666)" /> <line class="b" filter="url(#greenGlow)" x1="7.089" y2="7.089" transform="translate(156.396 504.674)" /> <line class="b" filter="url(#greenGlow)" x1="7.645" y2="7.645" transform="translate(169.091 491.423)" /> <line class="c" filter="url(#redGlow)" x1="7.784" y2="7.784" transform="translate(103.15 546.267)" /> <line class="c" filter="url(#redGlow)" x1="1.963" y2="1.963" transform="translate(118.098 537.14)" /> <line class="c" filter="url(#redGlow)" x1="3.706" y2="3.706" transform="translate(125.203 528.29)" /> <line class="b" filter="url(#greenGlow)" x1="7.923" y2="7.923" transform="translate(103.098 527.868)" /> <line class="b" filter="url(#greenGlow)" x1="4.718" y2="4.718" transform="translate(115.739 518.431)" /> <line class="c" filter="url(#redGlow)" x1="6.788" y2="6.788" transform="translate(125.846 506.254)" /> <line class="c" filter="url(#redGlow)" x1="8.965" y2="8.965" transform="translate(138.958 490.965)" /> <line class="c" filter="url(#redGlow)" x1="10.841" y2="10.841" transform="translate(147.923 480.124)" /> <line class="c" filter="url(#redGlow)" x1="4.056" y2="4.056" transform="translate(387.773 526.238)" /> <line class="c" filter="url(#redGlow)" x1="22.561" y2="22.561" transform="translate(398.277 497.229)" /> <line class="b" filter="url(#greenGlow)" x1="7.351" y2="7.351" transform="translate(410.191 513.762)" /> <line class="b" filter="url(#greenGlow)" x1="11.281" y2="11.281" transform="translate(422.793 497.229)" /> <line class="c" filter="url(#redGlow)" x1="7.36" y2="7.36" transform="translate(434.23 512.042)" /> <line class="c" filter="url(#redGlow)" x1="6.602" y2="6.602" transform="translate(446.65 500.379)" /> <line class="c" filter="url(#redGlow)" x1="15.497" y2="15.497" transform="translate(370.923 504.293)" /> <line class="b" filter="url(#greenGlow)" x1="8.611" y2="8.611" transform="translate(383.218 552.974)" /> <line class="b" filter="url(#greenGlow)" x1="8.201" y2="8.201" transform="translate(390.067 579.522)" /> <line class="b" filter="url(#greenGlow)" x1="10.563" y2="10.563" transform="translate(404.87 562.356)" /> <line class="c" filter="url(#redGlow)" x1="14.418" y2="15.102" transform="translate(443.776 548.694)" /> <line class="b" filter="url(#greenGlow)" x1="31.614" y2="31.221" transform="translate(426.58 532.694)" /> <line class="b" filter="url(#greenGlow)" x1="3.473" y2="3.473" transform="translate(403.968 537.361)" /> <line class="b" filter="url(#greenGlow)" x1="13.025" y2="12.855" transform="translate(445.168 510.694)" /> </g> </svg>
