<svg xmlns="http://www.w3.org/2000/svg" width="954.748" height="256.438" viewBox="0 0 954.748 256.438"><defs><style>.a,.b,.c{fill:none;}.a{stroke:#fff;}.b{stroke:#26a48b;}.b,.c{stroke-width:1.5px;}.c{stroke:#f13747;}</style></defs><g transform="translate(-81.619 -477.902)"><g transform="translate(113.662 573.93)"><path class="a" d="M124.182,559.521v77.634H106.406v-60.1" transform="translate(-106.406 -549.674)"/><path class="a" d="M159.809,599.213A128.3,128.3,0,0,1,149.526,587.4a152.034,152.034,0,0,1,1.269,15.744v36.186H134.162v-87.1h1.777l43.551,40.882c4.188,3.936,10.157,11.808,10.157,11.808s-1.142-9.776-1.142-15.744V553h16.633v87.1h-1.779Z" transform="translate(-98.103 -551.853)"/><path class="a" d="M196.907,622.379,211.382,614c3.808,6.22,8.76,10.791,17.52,10.791,7.365,0,12.062-3.682,12.062-8.76,0-6.094-4.825-8.252-12.95-11.808l-4.443-1.9c-12.824-5.46-21.332-12.316-21.332-26.791,0-13.331,10.157-23.49,26.028-23.49,11.3,0,19.426,3.938,25.267,14.222L239.7,575.147c-3.048-5.46-6.349-7.618-11.428-7.618-5.206,0-8.507,3.3-8.507,7.618,0,5.333,3.3,7.491,10.919,10.792l4.443,1.906c15.11,6.475,23.617,13.077,23.617,27.933,0,16-12.569,24.759-29.457,24.759C212.777,640.536,202.113,632.663,196.907,622.379Z" transform="translate(-79.334 -551.912)"/><path class="a" d="M274.023,568.438H249.391V552.821H316.43v15.617H291.8v70.721H274.023Z" transform="translate(-63.635 -551.678)"/><path class="a" d="M374.8,639.159h-20.57L340.01,617.32a34.29,34.29,0,0,1-5.08.381h-6.094v21.458H311.061V552.821H334.93c24.125,0,38.6,11.553,38.6,32.63,0,13.458-5.967,21.966-16.633,26.791Zm-40.377-36.947c14.476,0,20.822-4.57,20.822-16.76s-6.6-17.013-20.822-17.013h-5.586v33.774Z" transform="translate(-45.187 -551.678)"/><path class="a" d="M369.8,607.925v-55.1h17.776v54.087c0,12.57,5.462,17.4,17.267,17.4,11.683,0,17.013-4.825,17.013-17.4V552.821h17.777v55.1c0,21.837-15.11,32.377-34.791,32.377C384.909,640.3,369.8,629.762,369.8,607.925Z" transform="translate(-27.617 -551.678)"/><path class="a" d="M434.891,596.224c0-25.52,19.679-44.186,44.437-44.186,15.617,0,26.792,5.588,34.536,17.649l-13.585,9.65c-4.065-6.6-11.048-11.3-20.951-11.3-15.618,0-26.155,12.062-26.155,28.187s10.537,28.441,26.155,28.441c11.174,0,17.4-5.333,22.219-12.7l13.84,9.523c-7.491,11.682-19.427,19.047-36.059,19.047C454.57,640.536,434.891,621.744,434.891,596.224Z" transform="translate(-8.146 -551.912)"/><path class="a" d="M527.84,568.438H503.207V552.821h67.04v15.617H545.615v70.721H527.84Z" transform="translate(12.29 -551.678)"/><path class="a" d="M558.721,596.253c0-25.52,19.807-44.312,44.69-44.312S648.1,570.733,648.1,596.253s-19.807,44.312-44.693,44.312S558.721,621.773,558.721,596.253Zm71.1,0c0-16.125-10.665-28.441-26.409-28.441S577,580.128,577,596.253s10.667,28.441,26.409,28.441S629.82,612.378,629.82,596.253Z" transform="translate(28.896 -551.941)"/><path class="a" d="M702.893,639.159H682.325L668.1,617.32a34.27,34.27,0,0,1-5.078.381h-6.094v21.458H639.156V552.821h23.869c24.124,0,38.6,11.553,38.6,32.63,0,13.458-5.968,21.966-16.632,26.791Zm-40.375-36.947c14.472,0,20.821-4.57,20.821-16.76s-6.6-17.013-20.821-17.013h-5.587v33.774Z" transform="translate(52.957 -551.678)"/><path class="a" d="M719.859,640.178c-13.171-1.647-21.906-8.8-26.461-17.8L707.872,614c3.809,6.22,8.761,10.791,17.523,10.791,7.364,0,12.061-3.682,12.061-8.76,0-6.094-4.824-8.252-12.951-11.808l-4.443-1.9c-12.824-5.46-21.332-12.316-21.332-26.791,0-13.331,10.157-23.49,26.028-23.49,11.3,0,19.426,3.938,25.267,14.222l-13.838,8.887c-3.048-5.46-6.349-7.618-11.428-7.618-5.2,0-8.505,3.3-8.505,7.618,0,5.333,3.3,7.491,10.919,10.792l4.442,1.906c11.462,4.912,19.124,9.9,22.157,18.5" transform="translate(69.182 -551.912)"/></g><line class="b" x1="69.915" y2="69.915" transform="translate(92.912 551.948)"/><line class="b" x1="31.254" y2="31.254" transform="translate(82.149 630.156)"/><line class="c" x1="31.254" y2="31.254" transform="translate(93.685 661.41)"/><line class="c" x1="29.718" y2="29.718" transform="translate(220.539 621.19)"/><line class="c" x1="10.411" y2="10.411" transform="translate(263.879 597.157)"/><line class="c" x1="31.302" y2="31.302" transform="translate(285.82 554.325)"/><line class="b" x1="18.479" y2="18.479" transform="translate(305.571 640.162)"/><line class="b" x1="37.71" y2="37.71" transform="translate(341.825 584.677)"/><line class="c" x1="11.644" y2="11.644" transform="translate(367.891 644.107)"/><line class="c" x1="23.616" y2="23.616" transform="translate(399.179 600.848)"/><line class="b" x1="16.585" y2="16.585" transform="translate(440.698 640.952)"/><line class="c" x1="9.928" y2="9.928" transform="translate(473.621 614.685)"/><line class="c" x1="12.176" y2="12.176" transform="translate(495.725 590.334)"/><line class="c" x1="17.245" y2="17.245" transform="translate(523.162 557.828)"/><line class="c" x1="27.282" y2="27.282" transform="translate(559.765 511.188)"/><line class="b" x1="27.262" y2="27.262" transform="translate(591.438 674.486)"/><line class="b" x1="20.554" y2="20.554" transform="translate(696.199 652.179)"/><line class="b" x1="26.183" y2="26.183" transform="translate(741.45 601.299)"/><line class="b" x1="6.653" y2="6.653" transform="translate(779.956 582.322)"/><line class="b" x1="14.739" y2="14.739" transform="translate(639.053 639.394)"/><line class="b" x1="37.857" y2="37.857" transform="translate(671.566 583.763)"/><line class="b" x1="30.525" y2="30.525" transform="translate(719.257 543.404)"/><line class="c" x1="51.702" y2="51.702" transform="translate(664.733 522.354)"/><line class="b" x1="11.692" y2="11.692" transform="translate(761.171 520.322)"/><line class="b" x1="24.59" y2="24.59" transform="translate(772.864 495.732)"/><line class="b" x1="25.478" y2="25.478" transform="translate(519.736 638.818)"/><line class="b" x1="33.524" y2="33.524" transform="translate(559.295 591.213)"/><line class="b" x1="35.525" y2="35.525" transform="translate(605.463 543.044)"/><line class="c" x1="29.216" y2="29.216" transform="translate(435.875 558.552)"/><line class="b" x1="20.124" y2="20.124" transform="translate(299.965 590.69)"/><line class="b" x1="24.974" y2="24.974" transform="translate(335.706 550.099)"/><line class="b" x1="43.954" y2="43.954" transform="translate(398.134 522.124)"/><line class="b" x1="18.513" y2="18.513" transform="translate(220.999 572.446)"/><line class="b" x1="16.564" y2="16.564" transform="translate(255.642 539.751)"/><line class="b" x1="17.863" y2="17.863" transform="translate(285.306 508.788)"/><line class="c" x1="18.188" y2="18.188" transform="translate(131.222 636.941)"/><line class="c" x1="4.587" y2="4.587" transform="translate(166.15 615.613)"/><line class="c" x1="8.661" y2="8.661" transform="translate(182.754 594.935)"/><line class="b" x1="18.513" y2="18.513" transform="translate(131.1 593.947)"/><line class="b" x1="11.025" y2="11.025" transform="translate(160.637 571.897)"/><line class="c" x1="15.862" y2="15.862" transform="translate(184.254 543.444)"/><line class="c" x1="20.949" y2="20.949" transform="translate(214.894 507.717)"/><line class="c" x1="25.333" y2="25.333" transform="translate(235.842 482.384)"/><line class="c" x1="9.479" y2="9.479" transform="translate(796.297 590.139)"/><line class="c" x1="52.718" y2="52.718" transform="translate(820.842 522.354)"/><line class="b" x1="17.176" y2="17.176" transform="translate(848.68 560.986)"/><line class="b" x1="26.359" y2="26.359" transform="translate(878.129 522.354)"/><line class="c" x1="17.199" y2="17.199" transform="translate(904.852 556.967)"/><line class="c" x1="15.427" y2="15.427" transform="translate(933.876 529.715)"/><line class="c" x1="13.479" y2="13.479" transform="translate(960.67 504.869)"/><line class="c" x1="36.211" y2="36.211" transform="translate(756.924 538.862)"/><line class="b" x1="20.121" y2="20.121" transform="translate(785.654 652.612)"/><line class="b" x1="19.162" y2="19.162" transform="translate(801.657 714.647)"/><line class="b" x1="24.684" y2="24.684" transform="translate(836.247 674.537)"/><line class="c" x1="51.387" y2="51.387" transform="translate(927.159 626.513)"/><line class="b" x1="79.029" y2="79.029" transform="translate(886.976 599.15)"/><line class="c" x1="1.861" y2="1.861" transform="translate(986.754 616.444)"/><line class="c" x1="13.641" y2="13.641" transform="translate(988.614 602.803)"/><line class="b" x1="8.116" y2="8.116" transform="translate(834.14 616.131)"/><line class="b" x1="63.419" y2="63.419" transform="translate(930.413 520.438)"/><line class="b" x1="1.26" y2="1.26" transform="translate(1004.982 508.027)"/><line class="b" x1="29.595" y2="29.595" transform="translate(1006.242 478.432)"/></g></svg>