<svg xmlns="http://www.w3.org/2000/svg" width="854.764" height="214.61" viewBox="0 0 854.764 214.61"><defs><style>.a,.b{fill:none;stroke-width:1.5px;}.a{stroke:#26a48b;}.b{stroke:#f13747;}.c,.d{fill:#fcfcfc;}.c{stroke:#000;}</style></defs><g transform="translate(8.304 -4058.194)"><line class="a" x1="34.765" y2="35.318" transform="translate(504.5 4181.182)"/><line class="b" x1="57.993" y2="57.993" transform="translate(34.03 4080.746)"/><line class="b" x1="26.651" y2="26.651" transform="translate(42.279 4195.685)"/><line class="b" x1="26.651" y2="26.651" transform="translate(268.279 4139.685)"/><line class="a" x1="26.651" y2="26.651" transform="translate(339.279 4215.685)"/><line class="a" x1="26.651" y2="26.651" transform="translate(216.279 4139.685)"/><line class="a" x1="26.651" y2="26.651" transform="translate(416.279 4193.685)"/><line class="a" x1="26.651" y2="26.651" transform="translate(606.279 4087.685)"/><line class="b" x1="26.651" y2="26.651" transform="translate(688.279 4091.685)"/><line class="b" x1="26.651" y2="26.651" transform="translate(644.279 4202.685)"/><line class="b" x1="26.651" y2="26.651" transform="translate(770.279 4091.685)"/><line class="b" x1="26.651" y2="26.651" transform="translate(819.279 4153.685)"/><line class="a" x1="26.651" y2="26.651" transform="translate(371.279 4091.685)"/><line class="a" x1="26.651" y2="26.651" transform="translate(720.279 4231.685)"/><line class="a" x1="26.651" y2="26.651" transform="translate(98.279 4184.685)"/><line class="a" x1="26.651" y2="26.651" transform="translate(255.279 4098.685)"/><line class="b" x1="26.651" y2="26.651" transform="translate(138.279 4166.685)"/><line class="a" x1="16.681" y2="16.681" transform="translate(153.51 4094.423)"/><line class="b" x1="27.447" y2="27.447" transform="translate(178.443 4058.724)"/><line class="a" x1="44.059" y2="44.059" transform="translate(80.795 4080.746)"/><line class="a" y2="84" transform="translate(314.198 4172.802) rotate(45)"/><line class="a" y2="84" transform="translate(547.198 4091.802) rotate(45)"/><line class="b" y2="84" transform="translate(369.198 4064.802) rotate(45)"/><line class="b" y2="84" transform="translate(472.198 4088.802) rotate(45)"/><line class="b" y2="84" transform="translate(398.198 4162.802) rotate(45)"/><line class="a" y2="21" transform="translate(30.925 4175.575) rotate(45)"/><line class="b" y2="63" transform="translate(36.774 4227.726) rotate(45)"/><line class="b" y2="126" transform="translate(261.048 4069.952) rotate(45)"/><line class="b" y2="126" transform="translate(653.048 4148.953) rotate(45)"/><g transform="translate(-1328.723 3095.445)"><path class="c" d="M1379.992,1079.049h-7.27v-13.734h10.637l2.558-10.1h-7.271v-13.735h10.637l3.367-13.06h14.139l-3.366,13.06h10.1l3.367-13.06h14.139l-3.231,13.06h7.136v13.735h-10.5l-2.559,10.1H1429v13.734h-10.637l-3.367,13.6h-14.138l3.366-13.6h-10.1l-3.366,13.6h-14.138Zm27.738-13.734,2.559-10.1h-10.1l-2.559,10.1Z" transform="translate(0 -4.916)"/><path class="c" d="M1534.554,1015.861h18.851v75h41.472v16.561h-60.323Z" transform="translate(-55.998 -0.57)"/><path class="c" d="M1650.061,1015.861h60.592v16.563h-41.741v29.084h36.76v16.158h-36.76v13.2h43.627v16.561h-62.478Z" transform="translate(-95.966 -0.57)"/><path class="c" d="M1790.456,1032.424h-26.123v-16.562h71.1v16.563h-26.122v75h-18.851Z" transform="translate(-135.507 -0.57)"/><path class="c" d="M1895.991,1035.022a10.879,10.879,0,1,1,15.754-9.964c0,4.173-1.615,7.406-4.039,11.579l-8.079,13.735h-8.753Z" transform="translate(-178.967 -0.072)"/><path class="c" d="M1933.993,1088.81l15.35-8.887c4.039,6.6,9.29,11.444,18.582,11.444,7.809,0,12.791-3.9,12.791-9.29,0-6.463-5.117-8.752-13.734-12.522l-4.713-2.021c-13.6-5.789-22.621-13.06-22.621-28.41,0-14.138,10.771-24.911,27.6-24.911,11.984,0,20.6,4.175,26.8,15.081l-14.677,9.426c-3.232-5.791-6.733-8.079-12.119-8.079-5.521,0-9.021,3.5-9.021,8.079,0,5.655,3.5,7.943,11.58,11.444l4.712,2.021c16.025,6.867,25.046,13.869,25.046,29.623,0,16.966-13.331,26.256-31.239,26.256C1950.824,1108.065,1939.513,1099.716,1933.993,1088.81Z" transform="translate(-194.213 0)"/><path class="c" d="M2169.8,1107.423H2147.99l-15.081-23.159a36.35,36.35,0,0,1-5.386.4h-6.463v22.756h-18.85v-91.562h25.313c25.584,0,40.935,12.253,40.935,34.605,0,14.272-6.329,23.294-17.639,28.411Zm-42.82-39.182c15.35,0,22.083-4.848,22.083-17.774s-7-18.043-22.083-18.043h-5.925v35.817Z" transform="translate(-252.42 -0.57)"/><path class="c" d="M2229.248,1015.861H2248.1v91.562h-18.851Z" transform="translate(-296.378 -0.57)"/><path class="c" d="M2287.722,1015.861h28.142c28.141,0,48.2,18.716,48.2,45.782s-19.929,45.78-48.2,45.78h-28.142Zm27.2,75c20.332,0,29.624-12.118,29.624-29.219s-9.292-29.219-29.624-29.219h-8.348v58.438Z" transform="translate(-316.612 -0.57)"/><path class="c" d="M2428.763,1015.861h60.593v16.563h-41.743v29.084h36.761v16.158h-36.761v13.2h43.627v16.561h-62.477Z" transform="translate(-365.415 -0.57)"/></g><path class="d" d="M2366.29,5673.415l97.108-95.5v94.958Z" transform="translate(2495.906 9751.074) rotate(180)"/><line class="a" y2="84" transform="translate(97.198 4108.802) rotate(45)"/><path class="d" d="M2366.977,5625.117l40.7-42.947-1.768,42.947Z" transform="translate(-1599 -1415)"/><line class="a" y2="84" transform="translate(815.198 4161.802) rotate(45)"/></g></svg>