<svg xmlns="http://www.w3.org/2000/svg" width="376.684" height="95.142" viewBox="0 0 376.684 95.142"><defs><style>.a,.b{fill:none;}.a{stroke:#26a48b;}.b{stroke:#f13747;}.c,.d{fill:#fcfcfc;}.c{stroke:#000;}</style></defs><g transform="translate(-5.24 -4058.371)"><line class="a" x1="16.447" y2="16.709" transform="translate(234.58 4116.658)"/><line class="b" x1="27.436" y2="27.436" transform="translate(12.003 4069.142)"/><line class="b" x1="12.608" y2="12.608" transform="translate(15.906 4123.52)"/><line class="b" x1="12.608" y2="12.608" transform="translate(122.825 4097.026)"/><line class="a" x1="12.608" y2="12.608" transform="translate(156.415 4132.981)"/><line class="a" x1="12.608" y2="12.608" transform="translate(98.224 4097.026)"/><line class="a" x1="12.608" y2="12.608" transform="translate(192.843 4122.573)"/><line class="a" x1="12.608" y2="12.608" transform="translate(282.731 4072.425)"/><line class="b" x1="12.608" y2="12.608" transform="translate(321.525 4074.318)"/><line class="b" x1="12.608" y2="12.608" transform="translate(300.709 4126.831)"/><line class="b" x1="12.608" y2="12.608" transform="translate(360.319 4074.318)"/><line class="a" x1="12.608" y2="12.608" transform="translate(171.554 4074.318)"/><line class="a" x1="12.608" y2="12.608" transform="translate(336.664 4140.551)"/><line class="a" x1="12.608" y2="12.608" transform="translate(42.399 4118.315)"/><line class="a" x1="12.608" y2="12.608" transform="translate(116.675 4077.629)"/><line class="b" x1="12.608" y2="12.608" transform="translate(61.323 4109.8)"/><line class="a" x1="7.892" y2="7.892" transform="translate(68.529 4075.613)"/><line class="b" x1="12.985" y2="12.985" transform="translate(80.325 4058.724)"/><line class="a" x1="20.844" y2="20.844" transform="translate(34.127 4069.142)"/><line class="a" y2="39.74" transform="translate(144.549 4112.694) rotate(45)"/><line class="a" y2="39.74" transform="translate(254.781 4074.373) rotate(45)"/><line class="b" y2="39.74" transform="translate(170.57 4061.599) rotate(45)"/><line class="b" y2="39.74" transform="translate(219.298 4072.954) rotate(45)"/><line class="b" y2="39.74" transform="translate(184.289 4107.963) rotate(45)"/><path class="a" d="M0,0V6.371" transform="translate(10.534 4114.006) rotate(45)"/><line class="b" x1="7.712" y2="7.562" transform="translate(5.59 4138.678)"/><line class="b" y2="59.61" transform="translate(119.404 4064.036) rotate(45)"/><line class="b" y2="59.61" transform="translate(304.857 4101.411) rotate(45)"/><g transform="translate(16.72 4082.821)"><path class="c" d="M1376.162,1052.373h-3.439v-6.5h5.032l1.21-4.778h-3.44v-6.5h5.032l1.593-6.179h6.689l-1.593,6.179h4.777l1.593-6.179h6.689l-1.529,6.179h3.376v6.5h-4.969l-1.211,4.778h3.376v6.5h-5.032l-1.593,6.434h-6.688l1.592-6.434h-4.778l-1.592,6.434h-6.689Zm13.123-6.5,1.211-4.778h-4.778l-1.211,4.778Z" transform="translate(-1372.722 -1024.025)"/><path class="c" d="M1534.554,1015.861h8.918v35.482h19.62v7.835h-28.539Z" transform="translate(-1484.485 -1015.351)"/><path class="c" d="M1650.061,1015.861h28.666v7.836H1658.98v13.76h17.391v7.644H1658.98v6.243h20.64v7.835h-29.558Z" transform="translate(-1564.255 -1015.351)"/><path class="c" d="M1776.692,1023.7h-12.358v-7.836h33.635v7.836H1785.61v35.482h-8.918Z" transform="translate(-1643.172 -1015.351)"/><path class="c" d="M1892.8,1024.167a5.147,5.147,0,1,1,7.453-4.714c0,1.974-.764,3.5-1.911,5.478l-3.822,6.5h-4.141Z" transform="translate(-1729.91 -1014.357)"/><path class="c" d="M1933.993,1049.5l7.262-4.2c1.911,3.121,4.4,5.414,8.791,5.414,3.695,0,6.052-1.847,6.052-4.4,0-3.058-2.421-4.141-6.5-5.924l-2.23-.956c-6.434-2.739-10.7-6.178-10.7-13.441,0-6.688,5.1-11.785,13.059-11.785,5.67,0,9.746,1.975,12.677,7.135l-6.944,4.459c-1.529-2.74-3.185-3.822-5.733-3.822-2.612,0-4.268,1.656-4.268,3.822,0,2.675,1.656,3.758,5.478,5.414l2.229.956c7.581,3.249,11.849,6.561,11.849,14.015,0,8.026-6.307,12.422-14.779,12.422C1941.956,1058.614,1936.6,1054.664,1933.993,1049.5Z" transform="translate(-1760.34 -1014.213)"/><path class="c" d="M2134.188,1059.179h-10.32l-7.135-10.956a17.221,17.221,0,0,1-2.548.191h-3.058v10.766h-8.918v-43.317h11.976c12.1,0,19.366,5.8,19.366,16.371,0,6.752-2.994,11.021-8.345,13.441Zm-20.258-18.537c7.262,0,10.447-2.294,10.447-8.409s-3.312-8.536-10.447-8.536h-2.8v16.945Z" transform="translate(-1876.511 -1015.351)"/><path class="c" d="M2229.248,1015.861h8.918v43.317h-8.918Z" transform="translate(-1964.245 -1015.351)"/><path class="c" d="M2287.722,1015.861h13.314c13.313,0,22.8,8.854,22.8,21.659s-9.428,21.658-22.8,21.658h-13.314Zm12.868,35.482c9.619,0,14.015-5.733,14.015-13.823s-4.4-13.823-14.015-13.823h-3.95v27.647Z" transform="translate(-2004.627 -1015.351)"/><path class="c" d="M2428.763,1015.861h28.666v7.836h-19.748v13.76h17.391v7.644h-17.391v6.243h20.64v7.835h-29.557Z" transform="translate(-2102.031 -1015.351)"/></g><path class="d" d="M0,45.179,45.941,0V44.924Z" transform="translate(57.225 4112.861) rotate(180)"/><line class="a" y2="39.74" transform="translate(41.888 4082.416) rotate(45)"/><path class="d" d="M2366.977,5602.488l19.255-20.318-.836,20.318Z" transform="translate(-2007.747 -1472.141)"/><line class="a" y2="39.74" transform="translate(381.57 4107.49) rotate(45)"/></g></svg>