<svg xmlns="http://www.w3.org/2000/svg" width="758.636" height="223.483" viewBox="0 0 758.636 223.483"><defs><style>.a{opacity:0.8;}.b,.d,.e{fill:none;}.b{stroke:#000;}.c{fill:#fcfcfc;}.d{stroke:#26a48b;}.d,.e{stroke-width:1.5px;}.e{stroke:#f13747;}</style></defs><g transform="translate(-366.694 -230.219)"><g class="a" transform="translate(60.912 291.531)"><path class="b" d="M370.45,270.88h24.389c24.651,0,39.44,12.843,39.44,34.121s-14.919,33.991-39.44,33.991h-6.227V359.1H370.45Zm23.872,52.153c14.789,0,21.276-5.968,21.276-18.032,0-12.2-6.746-18.164-21.276-18.164h-5.709v36.2Z" transform="translate(48.344 -269.842)"/><path class="b" d="M455.762,270.293h1.557l40.348,89H478.6l-4.152-9.989H438.637l-4.152,9.989H416.972Zm12.2,63.831L461.6,318.816c-2.6-6.227-5.32-15.829-5.32-15.829a159.764,159.764,0,0,1-5.189,15.829l-6.357,15.308Z" transform="translate(63.578 -270.034)"/><path class="b" d="M478.642,315.247c0-26.078,20.108-45.149,45.407-45.149,15.957,0,27.375,5.709,35.288,18.034l-13.881,9.86c-4.152-6.746-11.287-11.546-21.406-11.546-15.959,0-26.726,12.325-26.726,28.8s10.767,29.059,26.726,29.059c11.416,0,17.773-5.448,22.7-12.973l14.141,9.73c-7.654,11.935-19.851,19.459-36.845,19.459C498.75,360.523,478.642,341.323,478.642,315.247Z" transform="translate(83.772 -270.098)"/><path class="b" d="M575.288,302.406l23.353-31.526h20.629l-29.58,39.959L622.9,359.1H600.977l-23.483-34.639-8.563,10.249V359.1H550.77V270.88h18.161v30.488a144.707,144.707,0,0,1-1.167,14.791A77.069,77.069,0,0,1,575.288,302.406Z" transform="translate(107.391 -269.842)"/><path class="b" d="M648.1,270.293h1.557l40.348,89H670.935l-4.151-9.989H630.977l-4.152,9.989H609.312Zm12.2,63.831-6.356-15.308c-2.6-6.227-5.32-15.829-5.32-15.829a159.8,159.8,0,0,1-5.189,15.829l-6.357,15.308Z" transform="translate(126.561 -270.034)"/><path class="b" d="M670.982,315.247C670.982,289.17,689.4,270.1,716,270.1c14.4,0,24.78,3.892,32.043,12.2l-12.324,12.194c-4.411-4.541-9.471-8.043-19.719-8.043-15.959,0-26.337,12.325-26.337,28.8s10.637,29.059,29.191,29.059c5.708,0,12.713-1.038,17.254-3.243V328.091H714.832V312.133h37.883v38.142c-5.06,4.152-17.775,10.248-33.861,10.248C690.052,360.523,670.982,341.323,670.982,315.247Z" transform="translate(146.755 -270.098)"/><path class="b" d="M745.455,270.88h58.382v15.957H763.617v28.024h35.418v15.567H763.617v12.714h42.035V359.1h-60.2Z" transform="translate(171.142 -269.842)"/><path class="b" d="M831.313,360.523c-16.865,0-27.764-8.042-33.082-18.55l14.789-8.563c3.892,6.357,8.951,11.027,17.9,11.027,7.524,0,12.325-3.762,12.325-8.951,0-6.227-4.93-8.435-13.233-12.067l-4.541-1.946c-13.1-5.578-21.8-12.583-21.8-27.375,0-13.621,10.378-24,26.6-24,11.546,0,19.849,4.021,25.818,14.53l-14.141,9.081c-3.114-5.578-6.487-7.783-11.676-7.783-5.319,0-8.692,3.373-8.692,7.783,0,5.451,3.373,7.655,11.159,11.028l4.54,1.946c13.938,5.974,22.378,12.052,23.886,24.348" transform="translate(188.424 -270.098)"/></g><path class="c" d="M476.56,314.163,506.8,284.846l-33.622,2.041Z"/><line class="d" x1="13.821" y2="13.821" transform="translate(367.224 373.008)"/><line class="d" x1="14.849" y2="14.849" transform="translate(393.217 345.987)"/><line class="d" x1="36.506" y2="36.506" transform="translate(421.637 295.909)"/><line class="d" x1="7.08" y2="7.08" transform="translate(458.143 288.83)"/><line class="d" x1="17.921" y2="17.921" transform="translate(472.303 263.829)"/><line class="d" x1="38.531" y2="38.531" transform="translate(518.942 344.054)"/><line class="d" x1="30.189" y2="30.189" transform="translate(590.521 280.818)"/><line class="d" x1="20.047" y2="20.047" transform="translate(578.918 370.831)"/><line class="d" x1="12.338" y2="12.338" transform="translate(611.816 345.642)"/><line class="d" x1="42.147" y2="42.147" transform="translate(606.725 378.671)"/><line class="e" x1="50.311" y2="50.311" transform="translate(603.349 396.998)"/><line class="d" x1="16.578" y2="16.578" transform="translate(662.493 348.471)"/><line class="e" x1="22.966" y2="22.966" transform="translate(696.107 308.47)"/><line class="e" x1="31.278" y2="31.278" transform="translate(749.343 246.921)"/><line class="e" x1="24.258" y2="24.258" transform="translate(700.673 380.79)"/><line class="d" x1="81.993" y2="81.993" transform="translate(755.139 371.178)"/><line class="d" x1="27.098" y2="27.098" transform="translate(864.312 426.073)"/><line class="d" x1="23.882" y2="23.882" transform="translate(940.214 429.289)"/><line class="d" x1="35.086" y2="35.086" transform="translate(977.51 380.79)"/><line class="e" x1="61.264" y2="61.264" transform="translate(1048.849 353.285)"/><line class="e" x1="16.72" y2="16.72" transform="translate(1108.079 338.598)"/><line class="d" x1="31.272" y2="31.272" transform="translate(1028.554 333.559)"/><line class="d" x1="12.164" y2="12.164" transform="translate(1072.78 308.441)"/><line class="e" x1="29.056" y2="29.056" transform="translate(1077.412 262.475)"/><line class="d" x1="9.351" y2="9.351" transform="translate(1097.022 287.012)"/><line class="e" x1="27.098" y2="27.098" transform="translate(880.381 377.958)"/><line class="d" x1="25.794" y2="25.794" transform="translate(910.493 381.197)"/><line class="d" x1="17.127" y2="17.127" transform="translate(960.382 339.974)"/><line class="d" x1="13.286" y2="13.286" transform="translate(995.671 308.526)"/><line class="d" x1="53.179" y2="53.179" transform="translate(1024.914 239.39)"/><line class="d" x1="59.714" y2="59.714" transform="translate(950.73 239.39)"/><line class="d" x1="72.382" y2="72.382" transform="translate(705.578 380.79)"/><line class="d" x1="12.133" y2="12.133" transform="translate(785.806 360.811)"/><line class="e" x1="17.294" y2="17.294" transform="translate(861.896 329.121)"/><line class="e" x1="9.443" y2="9.443" transform="translate(916.52 282.347)"/><line class="e" x1="14.128" y2="14.128" transform="translate(737.235 354.358)"/><line class="e" x1="21.579" y2="21.579" transform="translate(764.189 319.953)"/><line class="e" x1="25.505" y2="25.505" transform="translate(796.785 283.43)"/><line class="d" x1="17.182" y2="17.182" transform="translate(643.621 308.992)"/><line class="d" x1="18.278" y2="18.278" transform="translate(677.226 274.291)"/><line class="e" x1="38.804" y2="39.286" transform="translate(631.495 230.746)"/><line class="e" x1="22.17" y2="22.17" transform="translate(436.892 332.67)"/><path class="d" d="M28.74,0-29.53,57.64" transform="translate(499.162 263.829)"/></g></svg>