<svg xmlns="http://www.w3.org/2000/svg" width="376.351" height="104.497" viewBox="0 0 376.351 104.497"><defs><style>.a{opacity:0.8;}.b,.c,.d{fill:none;}.b{stroke:#000;}.c{stroke:#26a48b;}.d{stroke:#f13747;}</style></defs><g transform="translate(-182.803 -230.394)"><g class="a" transform="translate(206.536 263.939)"><path class="b" d="M370.45,270.88h13.318c13.461,0,21.537,7.013,21.537,18.632s-8.147,18.561-21.537,18.561h-3.4v10.98H370.45Zm13.036,28.479c8.076,0,11.618-3.259,11.618-9.847,0-6.659-3.684-9.919-11.618-9.919h-3.118v19.765Z" transform="translate(-370.45 -270.313)"/><path class="b" d="M438.154,270.293H439l22.033,48.6H450.623l-2.267-5.455H428.8l-2.267,5.455h-9.563Zm6.659,34.856-3.471-8.359c-1.417-3.4-2.905-8.643-2.905-8.643a87.243,87.243,0,0,1-2.834,8.643l-3.471,8.359Z" transform="translate(-383.249 -270.152)"/><path class="b" d="M478.642,294.753c0-14.24,10.98-24.655,24.8-24.655,8.714,0,14.948,3.118,19.269,9.848l-7.58,5.384a13.133,13.133,0,0,0-11.689-6.3c-8.715,0-14.594,6.731-14.594,15.728s5.88,15.868,14.594,15.868c6.234,0,9.705-2.975,12.4-7.084l7.722,5.313c-4.18,6.517-10.84,10.626-20.12,10.626C489.622,319.476,478.642,308.991,478.642,294.753Z" transform="translate(-400.216 -270.098)"/><path class="b" d="M564.159,288.1l12.752-17.215h11.265L572.023,292.7l18.136,26.354H578.186l-12.823-18.915-4.676,5.6v13.318H550.77V270.88h9.917v16.648a79.006,79.006,0,0,1-.637,8.077A42.085,42.085,0,0,1,564.159,288.1Z" transform="translate(-420.059 -270.313)"/><path class="b" d="M630.494,270.293h.85l22.033,48.6H642.962l-2.267-5.455H621.143l-2.267,5.455h-9.563Zm6.66,34.856-3.471-8.359c-1.417-3.4-2.905-8.643-2.905-8.643a87.251,87.251,0,0,1-2.834,8.643l-3.471,8.359Z" transform="translate(-436.165 -270.152)"/><path class="b" d="M670.982,294.753c0-14.24,10.059-24.655,24.583-24.655,7.864,0,13.531,2.125,17.5,6.66l-6.73,6.659c-2.409-2.48-5.172-4.392-10.768-4.392-8.715,0-14.382,6.731-14.382,15.728s5.809,15.868,15.94,15.868a23.77,23.77,0,0,0,9.422-1.771v-7.084H694.927v-8.714h20.687V313.88c-2.763,2.267-9.706,5.6-18.49,5.6C681.4,319.476,670.982,308.991,670.982,294.753Z" transform="translate(-453.132 -270.098)"/><path class="b" d="M745.455,270.88h31.88v8.714H755.373v15.3h19.341v8.5H755.373v6.943h22.954v8.714H745.455Z" transform="translate(-473.621 -270.313)"/><path class="b" d="M816.3,319.476c-9.21,0-15.161-4.391-18.065-10.129l8.076-4.676c2.125,3.471,4.888,6.022,9.777,6.022,4.109,0,6.73-2.054,6.73-4.888,0-3.4-2.692-4.606-7.226-6.589l-2.48-1.063c-7.155-3.046-11.9-6.871-11.9-14.948,0-7.438,5.667-13.106,14.523-13.106,6.3,0,10.839,2.2,14.1,7.935l-7.722,4.959c-1.7-3.046-3.542-4.25-6.376-4.25-2.9,0-4.746,1.842-4.746,4.25,0,2.976,1.842,4.18,6.093,6.022l2.479,1.063c7.611,3.262,12.22,6.581,13.043,13.3" transform="translate(-488.141 -270.098)"/></g><line class="c" x1="21.041" y2="21.041" transform="translate(227.962 292.62)"/><line class="c" x1="16.485" y2="16.485" transform="translate(267.048 258.088)"/><line class="c" x1="10.947" y2="10.947" transform="translate(260.712 307.242)"/><line class="c" x1="6.737" y2="6.737" transform="translate(278.677 293.487)"/><line class="c" x1="23.015" y2="23.015" transform="translate(275.897 311.523)"/><line class="c" x1="9.053" y2="9.053" transform="translate(306.35 295.032)"/><line class="d" x1="12.541" y2="12.541" transform="translate(324.705 273.188)"/><line class="d" x1="17.08" y2="17.08" transform="translate(353.776 239.578)"/><line class="d" x1="13.246" y2="13.246" transform="translate(327.199 312.68)"/><line class="c" x1="19.16" y2="19.16" transform="translate(478.37 312.68)"/><line class="d" x1="33.454" y2="33.454" transform="translate(517.327 297.66)"/><line class="d" x1="9.13" y2="9.13" transform="translate(549.67 289.641)"/><line class="c" x1="17.077" y2="17.077" transform="translate(506.244 286.889)"/><line class="c" x1="6.643" y2="6.643" transform="translate(530.394 273.173)"/><line class="d" x1="15.867" y2="15.867" transform="translate(532.924 248.072)"/><line class="c" x1="5.106" y2="5.106" transform="translate(543.632 261.471)"/><line class="d" x1="14.797" y2="14.797" transform="translate(425.331 311.134)"/><line class="c" x1="14.085" y2="14.085" transform="translate(441.775 312.902)"/><line class="c" x1="9.353" y2="9.353" transform="translate(469.018 290.392)"/><line class="c" x1="7.255" y2="7.255" transform="translate(488.288 273.219)"/><line class="c" x1="29.04" y2="29.04" transform="translate(504.257 235.466)"/><line class="c" x1="32.608" y2="32.608" transform="translate(463.747 235.466)"/><line class="c" x1="6.625" y2="6.625" transform="translate(373.687 301.77)"/><line class="d" x1="9.444" y2="9.444" transform="translate(415.238 284.465)"/><line class="d" x1="5.156" y2="5.156" transform="translate(445.066 258.924)"/><line class="d" x1="7.715" y2="7.715" transform="translate(347.164 298.246)"/><line class="d" x1="11.784" y2="11.784" transform="translate(361.883 279.459)"/><line class="d" x1="13.928" y2="13.928" transform="translate(379.682 259.515)"/><line class="c" x1="9.383" y2="9.383" transform="translate(296.045 273.474)"/><line class="c" x1="9.981" y2="9.981" transform="translate(314.395 254.525)"/><line class="d" x1="21.19" y2="21.453" transform="translate(289.423 230.746)"/><line class="d" x1="12.106" y2="12.106" transform="translate(183.157 286.403)"/><line class="c" x1="6.199" y2="6.199" transform="translate(200.337 275.13)"/><line class="c" x1="15.694" y2="15.694" transform="translate(217.161 248.812)"/></g></svg>