<svg xmlns="http://www.w3.org/2000/svg" width="375.714" height="123.71" viewBox="0 0 375.714 123.71"><defs><style>.a,.b{fill:none;}.a{stroke:#f13747;}.b{stroke:#26a48b;}.c,.d{fill:#fcfcfc;}.c{stroke:#000;}</style></defs><g transform="translate(-4.255 -3435.656)"><line class="a" x1="13.189" y2="13.189" transform="translate(111.587 3469.286)"/><line class="b" x1="15.14" y2="15.591" transform="translate(242.44 3517.631)"/><path class="a" d="M12.666,0-1.646,13.15" transform="translate(345.321 3465.261)"/><line class="a" x1="18.757" y2="18.757" transform="translate(236.947 3489.878)"/><path class="a" d="M13.475,0,7.79,5.685,0,13.475" transform="translate(306.588 3496.546)"/><path class="b" d="M13.475,0,7.79,5.685,0,13.475" transform="translate(333.323 3534.657)"/><line class="b" x1="22.859" y2="22.859" transform="translate(315.656 3436.01)"/><line class="a" x1="17.521" y2="16.686" transform="translate(209.343 3484.07)"/><line class="a" x1="20.081" y2="20.081" transform="translate(232.4 3457.619)"/><line class="a" x1="32.988" y2="32.988" transform="translate(21.251 3457.475)"/><line class="a" x1="10.934" y2="10.714" transform="translate(25.943 3527.301)"/><line class="a" x1="10.934" y2="10.714" transform="translate(89.651 3525.025)"/><line class="b" x1="10.934" y2="10.714" transform="translate(135.157 3474.4)"/><line class="a" x1="15.612" y2="15.612" transform="translate(69.836 3540.511)"/><line class="b" x1="12.507" y2="12.499" transform="translate(367.108 3505.02)"/><line class="b" y2="47.781" transform="translate(313.154 3461.489) rotate(45)"/><line class="b" y2="15.358" transform="translate(20.691 3509.072) rotate(45)"/><line class="a" x1="15.415" y2="16.011" transform="translate(4.615 3543.009)"/><line class="b" y2="29.579" transform="translate(83.739 3477.025) rotate(45)"/><line class="b" y2="29.579" transform="translate(182.715 3465.649) rotate(45)"/><line class="a" y2="29.579" transform="translate(111.043 3450.29) rotate(45)"/><path class="b" d="M0,0V29.579" transform="translate(137.209 3514.568) rotate(45)"/><path class="b" d="M0,0V29.579" transform="translate(306.719 3522.531) rotate(45)"/><path class="b" d="M0,0V29.579" transform="translate(177.026 3508.879) rotate(45)"/><line class="b" y2="62.571" transform="translate(230.784 3457.397) rotate(45)"/><g transform="translate(28.629 3475.822)"><path class="c" d="M777.581,621.755H764.732l-8.883-13.642a21.381,21.381,0,0,1-3.172.238H748.87v13.4h-11.1V567.822h14.911c15.07,0,24.111,7.217,24.111,20.384,0,8.407-3.728,13.721-10.39,16.735Zm-25.222-23.08c9.042,0,13.008-2.856,13.008-10.469s-4.124-10.628-13.008-10.628h-3.49v21.1Z" transform="translate(-737.766 -567.188)"/><path class="c" d="M860.992,567.822h35.691v9.755H872.1v17.132h21.653v9.518H872.1V612h25.7v9.755h-36.8Z" transform="translate(-812.295 -567.188)"/><path class="c" d="M967.158,567.822h11.9l9.279,20.78a112.411,112.411,0,0,1,4.2,12.214,110.76,110.76,0,0,1,4.124-12.214l9.041-20.78h10.787l-23.635,54.409h-1.11Z" transform="translate(-876.505 -567.188)"/><path class="c" d="M1111.054,567.822h11.1v53.933h-11.1Z" transform="translate(-963.535 -567.188)"/><path class="c" d="M1168.049,567.822h35.691v9.755h-24.587v17.132h21.653v9.518h-21.653V612h25.7v9.755h-36.8Z" transform="translate(-998.007 -567.188)"/><path class="c" d="M1274.415,567.093h11.739l7.852,21.653c1.348,3.727,2.855,9.756,2.855,9.756a68.724,68.724,0,0,1,3.331-9.756l10.39-22.129h1.11l10.549,22.129a68.635,68.635,0,0,1,3.331,9.756s1.507-6.028,2.855-9.756l7.773-21.653h10.787L1327.4,621.5h-1.11l-12.135-26.015a81.349,81.349,0,0,1-3.014-8.01s-1.666,5-3.093,8.01L1295.433,621.5h-1.11Z" transform="translate(-1062.338 -566.459)"/><path class="c" d="M1462.666,610.156l9.042-5.235c2.379,3.886,5.473,6.742,10.945,6.742,4.6,0,7.535-2.3,7.535-5.473,0-3.807-3.014-5.155-8.09-7.376l-2.776-1.19c-8.011-3.41-13.324-7.693-13.324-16.735,0-8.328,6.345-14.673,16.259-14.673,7.059,0,12.135,2.459,15.783,8.883l-8.645,5.552c-1.9-3.411-3.966-4.759-7.138-4.759-3.252,0-5.314,2.063-5.314,4.759,0,3.331,2.062,4.68,6.821,6.742l2.776,1.19c9.439,4.045,14.752,8.169,14.752,17.449,0,9.994-7.852,15.467-18.4,15.467C1472.58,621.5,1465.918,616.58,1462.666,610.156Z" transform="translate(-1176.194 -566.216)"/></g><path class="d" d="M0,54.014,54.847,0V54.014Z" transform="translate(75.232 3510.04) rotate(180)"/><line class="b" y2="47.781" transform="translate(58.32 3471.727) rotate(45)"/><path class="d" d="M2366.977,5608.234l22.146-22.274v22.274Z" transform="translate(-2032.333 -2076.6)"/><line class="a" x1="34.848" y2="34.848" transform="translate(331.272 3499.735)"/></g></svg>