<svg xmlns="http://www.w3.org/2000/svg" width="709.259" height="225.936" viewBox="0 0 709.259 225.936"><defs><style>.a,.b{fill:none;stroke-width:1.5px;}.a{stroke:#f13747;}.b{stroke:#26a48b;}.c,.d{fill:#fcfcfc;}.c{stroke:#000;}</style></defs><g transform="translate(1.415 -3435.479)"><line class="a" x1="23.187" y2="23.187" transform="translate(196.841 3494.51)"/><line class="b" x1="26.617" y2="27.41" transform="translate(426.883 3579.5)"/><path class="a" d="M23.514,0-1.646,23.119" transform="translate(606.5 3487.433)"/><line class="a" x1="32.976" y2="32.976" transform="translate(417.226 3530.71)"/><path class="a" d="M23.689,0,13.7,9.994,0,23.689" transform="translate(539.656 3542.434)"/><path class="b" d="M23.689,0,13.7,9.994,0,23.689" transform="translate(586.656 3609.434)"/><line class="b" x1="40.186" y2="40.186" transform="translate(555.597 3436.01)"/><line class="a" x1="30.802" y2="29.334" transform="translate(368.698 3520.5)"/><line class="a" x1="35.303" y2="35.303" transform="translate(409.232 3473.999)"/><line class="a" x1="57.993" y2="57.993" transform="translate(38.03 3473.746)"/><line class="a" x1="19.221" y2="18.836" transform="translate(46.279 3596.5)"/><line class="a" x1="19.221" y2="18.836" transform="translate(158.279 3592.5)"/><line class="b" x1="19.221" y2="18.836" transform="translate(238.279 3503.5)"/><line class="a" x1="27.447" y2="27.447" transform="translate(123.443 3619.724)"/><line class="b" x1="61.264" y2="61.264" transform="translate(646.05 3518.039)"/><line class="b" y2="84" transform="translate(551.198 3480.802) rotate(45)"/><line class="b" y2="27" transform="translate(37.046 3564.454) rotate(45)"/><line class="a" y2="52" transform="translate(35.885 3624.115) rotate(45)"/><line class="b" y2="52" transform="translate(147.885 3508.115) rotate(45)"/><line class="b" y2="52" transform="translate(321.885 3488.115) rotate(45)"/><line class="a" y2="52" transform="translate(195.885 3461.115) rotate(45)"/><path class="b" d="M0,0V52" transform="translate(241.885 3574.115) rotate(45)"/><path class="b" d="M0,0V52" transform="translate(539.885 3588.115) rotate(45)"/><path class="b" d="M0,0V52" transform="translate(311.885 3564.115) rotate(45)"/><line class="b" y2="110" transform="translate(406.391 3473.609) rotate(45)"/><g transform="translate(-686.766 2939.783)"><path class="c" d="M807.761,662.637H785.173l-15.617-23.983a37.586,37.586,0,0,1-5.577.418h-6.693v23.564h-19.52V567.822h26.213c26.493,0,42.388,12.688,42.388,35.835,0,14.78-6.553,24.122-18.266,29.42Zm-44.341-40.575c15.9,0,22.867-5.02,22.867-18.405s-7.25-18.684-22.867-18.684h-6.135v37.09Z" transform="translate(0 -0.49)"/><path class="c" d="M860.992,567.822h62.746v17.15H880.513V615.09h38.066v16.732H880.513v13.665h45.176v17.15h-64.7Z" transform="translate(-37.616 -0.49)"/><path class="c" d="M967.158,567.822h20.915l16.313,36.532c3.626,8.087,7.391,21.473,7.391,21.473s3.625-13.247,7.25-21.473l15.895-36.532h18.964l-41.551,95.652h-1.952Z" transform="translate(-70.023 -0.49)"/><path class="c" d="M1111.054,567.822h19.52v94.815h-19.52Z" transform="translate(-113.949 -0.49)"/><path class="c" d="M1168.049,567.822h62.745v17.15h-43.225V615.09h38.067v16.732h-38.067v13.665h45.177v17.15h-64.7Z" transform="translate(-131.347 -0.49)"/><path class="c" d="M1274.415,567.454h20.637l13.8,38.066c2.37,6.553,5.02,17.15,5.02,17.15s2.789-10.737,5.857-17.15l18.266-38.9h1.952l18.545,38.9c3.068,6.414,5.856,17.15,5.856,17.15s2.65-10.6,5.02-17.15l13.665-38.066H1402l-34.441,95.652h-1.951l-21.334-45.734a143.018,143.018,0,0,1-5.3-14.082s-2.928,8.784-5.438,14.082l-22.17,45.734h-1.952Z" transform="translate(-163.816 -0.122)"/><path class="c" d="M1462.666,643.463l15.9-9.2c4.182,6.832,9.621,11.852,19.241,11.852,8.088,0,13.247-4.043,13.247-9.622,0-6.693-5.3-9.063-14.222-12.967l-4.88-2.091c-14.083-6-23.425-13.525-23.425-29.42,0-14.641,11.154-25.8,28.584-25.8,12.41,0,21.333,4.323,27.747,15.617l-15.2,9.76c-3.347-6-6.972-8.366-12.549-8.366-5.717,0-9.342,3.626-9.342,8.366,0,5.857,3.625,8.227,11.991,11.852l4.88,2.092c16.593,7.111,25.935,14.362,25.935,30.675,0,17.569-13.8,27.19-32.348,27.19C1480.1,663.4,1468.383,654.757,1462.666,643.463Z" transform="translate(-221.28)"/></g><path class="d" d="M2366.977,5672.876l96.422-94.958v94.958Z" transform="translate(2499.906 9144.074) rotate(180)"/><line class="b" y2="84" transform="translate(103.198 3498.802) rotate(45)"/><path class="d" d="M2366.977,5625.117l38.934-39.157v39.157Z" transform="translate(-1778 -2021)"/><line class="a" x1="61.264" y2="61.264" transform="translate(583.05 3548.039)"/></g></svg>