<svg xmlns="http://www.w3.org/2000/svg" width="375.699" height="94.775" viewBox="0 0 375.699 94.775">
  <g id="Group_7486" data-name="Group 7486" transform="translate(8.305 -4058.193)">
    <line id="Line_2805" data-name="Line 2805" x1="14.349" y2="14.349" transform="translate(221.419 4073.24)" fill="none" stroke="#26a48b" stroke-width="1.5"/>
    <g id="Group_7495" data-name="Group 7495" transform="translate(19.335 4085.465)">
      <path id="Path_8995" data-name="Path 8995" d="M-1059.372,988.254h-2.743v-5.181h4.013l.965-3.81h-2.743v-5.181h4.013l1.27-4.927h5.333l-1.27,4.927h3.81l1.27-4.927h5.334l-1.219,4.927h2.692v5.181h-3.962l-.965,3.81h2.692v5.181h-4.013l-1.27,5.13h-5.334l1.27-5.13h-3.81l-1.27,5.13h-5.333Zm10.464-5.181.965-3.81h-3.81l-.965,3.81Z" transform="translate(1062.115 -965.599)" fill="none" stroke="#000" stroke-width="1"/>
      <path id="Path_8996" data-name="Path 8996" d="M-927.785,991.946h-8.229l-5.689-8.737a13.66,13.66,0,0,1-2.032.153h-2.438v8.584h-7.111V957.405h9.55c9.651,0,15.442,4.622,15.442,13.054,0,5.385-2.387,8.788-6.654,10.718Zm-16.153-14.782c5.791,0,8.331-1.828,8.331-6.705s-2.642-6.806-8.331-6.806h-2.235v13.511Z" transform="translate(981.983 -956.948)" fill="none" stroke="#000" stroke-width="1"/>
      <path id="Path_8997" data-name="Path 8997" d="M-834.435,957.405h7.112v34.541h-7.112Z" transform="translate(894.474 -956.948)" fill="none" stroke="#000" stroke-width="1"/>
      <path id="Path_8998" data-name="Path 8998" d="M-779.73,957.405h10.616c10.616,0,18.185,7.061,18.185,17.271s-7.518,17.271-18.185,17.271H-779.73Zm10.261,28.293c7.67,0,11.175-4.571,11.175-11.022s-3.5-11.023-11.175-11.023h-3.149V985.7Z" transform="translate(854.195 -956.948)" fill="none" stroke="#000" stroke-width="1"/>
      <path id="Path_8999" data-name="Path 8999" d="M-647.781,957.405h22.858v6.248h-15.746v10.972H-626.8v6.1h-13.867V985.7h16.458v6.248h-23.569Z" transform="translate(757.041 -956.948)" fill="none" stroke="#000" stroke-width="1"/>
      <path id="Path_9000" data-name="Path 9000" d="M-485.237,956.248h.609l15.8,34.846H-476.3l-1.625-3.911h-14.02l-1.625,3.911h-6.858Zm4.775,24.992-2.489-5.994c-1.016-2.438-2.083-6.2-2.083-6.2a62.6,62.6,0,0,1-2.032,6.2l-2.489,5.994Z" transform="translate(648.543 -956.096)" fill="none" stroke="#000" stroke-width="1"/>
      <path id="Path_9001" data-name="Path 9001" d="M-375.219,984l5.791-3.352c1.524,2.489,3.5,4.318,7.01,4.318,2.946,0,4.826-1.473,4.826-3.5,0-2.438-1.93-3.3-5.181-4.724l-1.778-.762c-5.131-2.184-8.534-4.927-8.534-10.718,0-5.333,4.064-9.4,10.413-9.4,4.521,0,7.772,1.575,10.108,5.689l-5.537,3.556c-1.219-2.184-2.54-3.048-4.572-3.048a3.094,3.094,0,0,0-3.4,3.048c0,2.133,1.321,3,4.369,4.318l1.778.762c6.045,2.591,9.448,5.232,9.448,11.175,0,6.4-5.029,9.9-11.785,9.9C-368.87,991.268-373.136,988.119-375.219,984Z" transform="translate(556.354 -955.812)" fill="none" stroke="#000" stroke-width="1"/>
      <path id="Path_9002" data-name="Path 9002" d="M-222.276,973.4a17.493,17.493,0,0,1,17.88-17.728,17.493,17.493,0,0,1,17.88,17.728,17.493,17.493,0,0,1-17.88,17.727A17.493,17.493,0,0,1-222.276,973.4Zm28.446,0c0-6.451-4.267-11.378-10.566-11.378s-10.565,4.927-10.565,11.378,4.267,11.378,10.565,11.378S-193.83,979.85-193.83,973.4Z" transform="translate(443.742 -955.671)" fill="none" stroke="#000" stroke-width="1"/>
      <path id="Path_9003" data-name="Path 9003" d="M-53.486,975.043a51.324,51.324,0,0,1-4.114-4.724,60.8,60.8,0,0,1,.508,6.3v14.477h-6.654V956.248h.711L-45.613,972.6a49.122,49.122,0,0,1,4.064,4.724s-.457-3.911-.457-6.3V956.553h6.654V991.4h-.711Z" transform="translate(327.017 -956.096)" fill="none" stroke="#000" stroke-width="1"/>
      <path id="Path_9004" data-name="Path 9004" d="M71.282,957.405H94.14v6.248H78.393v10.972H92.261v6.1H78.393V985.7H94.851v6.248H71.282Z" transform="translate(227.596 -956.948)" fill="none" stroke="#000" stroke-width="1"/>
    </g>
    <line id="Line_2351" data-name="Line 2351" x1="15.256" y2="15.499" transform="translate(217.031 4112.463)" fill="none" stroke="#26a48b" stroke-width="1.5"/>
    <line id="Line_2369" data-name="Line 2369" x1="25.45" y2="25.45" transform="translate(10.571 4068.388)" fill="none" stroke="#f13747" stroke-width="1.5"/>
    <line id="Line_2373" data-name="Line 2373" x1="11.695" y2="11.695" transform="translate(14.191 4118.828)" fill="none" stroke="#f13747" stroke-width="1.5"/>
    <line id="Line_2808" data-name="Line 2808" x1="11.695" y2="11.695" transform="translate(144.526 4127.604)" fill="none" stroke="#26a48b" stroke-width="1.5"/>
    <line id="Line_2804" data-name="Line 2804" x1="11.695" y2="11.695" transform="translate(178.316 4117.95)" fill="none" stroke="#26a48b" stroke-width="1.5"/>
    <line id="Line_2810" data-name="Line 2810" x1="11.695" y2="11.695" transform="translate(261.695 4071.433)" fill="none" stroke="#26a48b" stroke-width="1.5"/>
    <line id="Line_2811" data-name="Line 2811" x1="11.695" y2="11.695" transform="translate(297.68 4073.188)" fill="none" stroke="#f13747" stroke-width="1.5"/>
    <line id="Line_2812" data-name="Line 2812" x1="11.695" y2="11.695" transform="translate(278.371 4121.899)" fill="none" stroke="#f13747" stroke-width="1.5"/>
    <line id="Line_2815" data-name="Line 2815" x1="11.695" y2="11.695" transform="translate(333.664 4073.188)" fill="none" stroke="#f13747" stroke-width="1.5"/>
    <line id="Line_2816" data-name="Line 2816" x1="11.695" y2="11.695" transform="translate(355.167 4100.396)" fill="none" stroke="#f13747" stroke-width="1.5"/>
    <line id="Line_2803" data-name="Line 2803" x1="11.695" y2="11.695" transform="translate(158.568 4073.188)" fill="none" stroke="#26a48b" stroke-width="1.5"/>
    <line id="Line_2814" data-name="Line 2814" x1="11.695" y2="11.695" transform="translate(311.722 4134.625)" fill="none" stroke="#26a48b" stroke-width="1.5"/>
    <line id="Line_2797" data-name="Line 2797" x1="8.526" y2="8.696" transform="translate(110.832 4076.26)" fill="none" stroke="#26a48b" stroke-width="1.5"/>
    <line id="Line_2375" data-name="Line 2375" x1="7.32" y2="7.32" transform="translate(63.003 4074.39)" fill="none" stroke="#26a48b" stroke-width="1.5"/>
    <line id="Line_2376" data-name="Line 2376" x1="12.045" y2="12.045" transform="translate(73.945 4058.724)" fill="none" stroke="#f13747" stroke-width="1.5"/>
    <line id="Line_2346" data-name="Line 2346" x1="19.335" y2="19.335" transform="translate(31.093 4068.388)" fill="none" stroke="#26a48b" stroke-width="1.5"/>
    <line id="Line_2799" data-name="Line 2799" x1="19.177" y2="19.177" transform="translate(107.454 4115.674)" fill="none" stroke="#26a48b" stroke-width="1.5"/>
    <line id="Line_2800" data-name="Line 2800" x1="20.932" y2="21.809" transform="translate(136.724 4061.391)" fill="none" stroke="#f13747" stroke-width="1.5"/>
    <line id="Line_2806" data-name="Line 2806" x1="15.666" y2="15.666" transform="translate(187.19 4071.923)" fill="none" stroke="#f13747" stroke-width="1.5"/>
    <line id="Line_2807" data-name="Line 2807" y2="36.862" transform="translate(170.382 4104.397) rotate(45)" fill="none" stroke="#f13747" stroke-width="1.5"/>
    <line id="Line_2792" data-name="Line 2792" y2="9.216" transform="translate(9.208 4110.002) rotate(45)" fill="none" stroke="#26a48b" stroke-width="1.5"/>
    <line id="Line_2793" data-name="Line 2793" y2="27.647" transform="translate(11.775 4132.888) rotate(45)" fill="none" stroke="#f13747" stroke-width="1.5"/>
    <line id="Line_2794" data-name="Line 2794" x1="21.305" y2="21.304" transform="translate(88.89 4063.651)" fill="none" stroke="#f13747" stroke-width="1.5"/>
    <line id="Line_2809" data-name="Line 2809" x1="15.6" y2="15.6" transform="translate(243.121 4121.818)" fill="none" stroke="#f13747" stroke-width="1.5"/>
    <path id="Path_7937" data-name="Path 7937" d="M0,41.907,42.615,0V41.671Z" transform="translate(52.518 4108.941) rotate(180)" fill="#fcfcfc"/>
    <line id="Line_2791" data-name="Line 2791" y2="36.862" transform="translate(38.292 4080.7) rotate(45)" fill="none" stroke="#26a48b" stroke-width="1.5"/>
    <path id="Path_7936" data-name="Path 7936" d="M2366.977,5601.017l17.861-18.847-.776,18.847Z" transform="translate(-2034.323 -1475.856)" fill="#fcfcfc"/>
    <line id="Line_2813" data-name="Line 2813" y2="36.862" transform="translate(353.377 4103.958) rotate(45)" fill="none" stroke="#26a48b" stroke-width="1.5"/>
  </g>
</svg>
