<svg xmlns="http://www.w3.org/2000/svg" viewBox="0 0 1311.75 219.47"><defs><style>.cls-1,.cls-2,.cls-3{fill:none;}.cls-1{stroke:#26a48b;}.cls-1,.cls-2{stroke-width:1.5px;}.cls-2{stroke:#f13747;}.cls-3{stroke:#000;}</style></defs><g id="Layer_2" data-name="Layer 2"><g id="Layer_1-2" data-name="Layer 1"><line id="Line_843" data-name="Line 843" class="cls-1" x1="465.48" y1="145.31" x2="420.86" y2="189.94"/><line id="Line_843-2" data-name="Line 843" class="cls-1" x1="506.53" y1="104.26" x2="478.55" y2="132.24"/><line id="Line_823" data-name="Line 823" class="cls-1" x1="14.97" y1="139.17" x2="0.53" y2="153.61"/><line id="Line_824" data-name="Line 824" class="cls-1" x1="43.2" y1="110.94" x2="27.69" y2="126.46"/><line id="Line_826" data-name="Line 826" class="cls-1" x1="102.93" y1="51.22" x2="95.53" y2="58.62"/><line id="Line_827" data-name="Line 827" class="cls-1" x1="129.05" y1="25.1" x2="110.33" y2="43.82"/><line id="Line_831" data-name="Line 831" class="cls-1" x1="139.32" y1="140.92" x2="99.06" y2="181.18"/><line id="Line_832" data-name="Line 832" class="cls-1" x1="243.39" y1="35.85" x2="211.85" y2="67.39"/><line id="Line_833" data-name="Line 833" class="cls-1" x1="227.17" y1="152.4" x2="206.22" y2="173.35"/><line id="Line_836" data-name="Line 836" class="cls-2" x1="299.82" y1="164.24" x2="247.25" y2="216.81"/><line id="Line_844" data-name="Line 844" class="cls-1" x1="561.42" y1="181.44" x2="533.11" y2="209.76"/><line id="Line_845" data-name="Line 845" class="cls-1" x1="624.19" y1="181.98" x2="599.24" y2="206.94"/><line id="Line_846" data-name="Line 846" class="cls-1" x1="674.87" y1="131.3" x2="638.21" y2="167.97"/><line id="Line_848" data-name="Line 848" class="cls-2" x1="785.1" y1="66.22" x2="767.63" y2="83.69"/><line id="Line_849" data-name="Line 849" class="cls-1" x1="736.22" y1="85.96" x2="703.54" y2="118.63"/><line id="Line_851" data-name="Line 851" class="cls-2" x1="772.95" y1="23.68" x2="742.59" y2="54.04"/><line id="Line_852" data-name="Line 852" class="cls-1" x1="767.35" y1="54.82" x2="757.58" y2="64.59"/><line id="Line_853" data-name="Line 853" class="cls-2" x1="590.38" y1="104.15" x2="562.07" y2="132.46"/><line id="Line_854" data-name="Line 854" class="cls-1" x1="608.77" y1="134.09" x2="581.82" y2="161.04"/><line id="Line_856" data-name="Line 856" class="cls-1" x1="674.57" y1="68.3" x2="660.68" y2="82.18"/><line id="Line_857" data-name="Line 857" class="cls-1" x1="724.13" y1="18.73" x2="687.74" y2="55.13"/><line id="Line_859" data-name="Line 859" class="cls-1" x1="425.27" y1="151.73" x2="377.04" y2="199.96"/><line id="Line_860" data-name="Line 860" class="cls-1" x1="503.08" y1="73.93" x2="490.4" y2="86.61"/><line id="Line_861" data-name="Line 861" class="cls-2" x1="550.94" y1="77.85" x2="530.29" y2="98.5"/><line id="Line_862" data-name="Line 862" class="cls-2" x1="577.85" y1="50.94" x2="567.98" y2="60.81"/><line id="Line_864" data-name="Line 864" class="cls-2" x1="424.48" y1="103.12" x2="397.84" y2="129.76"/><line id="Line_866" data-name="Line 866" class="cls-1" x1="291.29" y1="62.29" x2="273.33" y2="80.24"/><line id="Line_867" data-name="Line 867" class="cls-1" x1="343.54" y1="36.03" x2="324.45" y2="55.12"/><line id="Line_868" data-name="Line 868" class="cls-2" x1="317.21" y1="0.53" x2="276.66" y2="41.58"/><line id="Line_869" data-name="Line 869" class="cls-2" x1="89.49" y1="141.03" x2="66.33" y2="164.19"/><path id="Path_8881" data-name="Path 8881" class="cls-1" d="M184.42,19.1,123.53,79.32"/><line id="Line_836-2" data-name="Line 836" class="cls-2" x1="812.82" y1="157.24" x2="760.25" y2="209.81"/><line id="Line_837" data-name="Line 837" class="cls-1" x1="848.37" y1="109.54" x2="831.05" y2="126.86"/><line id="Line_838" data-name="Line 838" class="cls-2" x1="908.67" y1="49.24" x2="884.67" y2="73.24"/><line id="Line_839" data-name="Line 839" class="cls-2" x1="873.48" y1="41.43" x2="817.82" y2="97.09"/><line id="Line_840" data-name="Line 840" class="cls-2" x1="873.29" y1="149.3" x2="847.94" y2="174.65"/><line id="Line_843-3" data-name="Line 843" class="cls-1" x1="1037.53" y1="121.26" x2="951.86" y2="206.94"/><line id="Line_844-2" data-name="Line 844" class="cls-1" x1="1070.24" y1="190.62" x2="1041.93" y2="218.94"/><line id="Line_845-2" data-name="Line 845" class="cls-1" x1="1146.19" y1="193.98" x2="1121.24" y2="218.94"/><line id="Line_846-2" data-name="Line 846" class="cls-1" x1="1196.87" y1="143.3" x2="1160.21" y2="179.97"/><line id="Line_849-2" data-name="Line 849" class="cls-1" x1="1311.22" y1="77.96" x2="1278.54" y2="110.63"/><line id="Line_850" data-name="Line 850" class="cls-1" x1="1243.46" y1="136.71" x2="1230.75" y2="149.42"/><line id="Line_851-2" data-name="Line 851" class="cls-2" x1="1257.45" y1="52.18" x2="1227.09" y2="82.54"/><line id="Line_852-2" data-name="Line 852" class="cls-1" x1="1294.85" y1="45.32" x2="1285.08" y2="55.09"/><line id="Line_853-2" data-name="Line 853" class="cls-2" x1="1087.03" y1="140.35" x2="1058.72" y2="168.66"/><line id="Line_854-2" data-name="Line 854" class="cls-1" x1="1117.13" y1="143.73" x2="1090.18" y2="170.68"/><line id="Line_855" data-name="Line 855" class="cls-1" x1="1088.21" y1="69.66" x2="1070.31" y2="87.55"/><line id="Line_856-2" data-name="Line 856" class="cls-1" x1="1190.07" y1="70.8" x2="1176.18" y2="84.68"/><line id="Line_857-2" data-name="Line 857" class="cls-1" x1="1230.82" y1="30.05" x2="1205.74" y2="55.13"/><line id="Line_859-2" data-name="Line 859" class="cls-1" x1="951.7" y1="143.3" x2="876.07" y2="218.93"/><line id="Line_860-2" data-name="Line 860" class="cls-1" x1="972.58" y1="122.43" x2="959.9" y2="135.11"/><line id="Line_861-2" data-name="Line 861" class="cls-2" x1="1029.47" y1="82.32" x2="1011.4" y2="100.39"/><line id="Line_862-2" data-name="Line 862" class="cls-2" x1="1087.35" y1="54.44" x2="1077.48" y2="64.31"/><line id="Line_864-2" data-name="Line 864" class="cls-2" x1="916.86" y1="79.74" x2="894.31" y2="102.28"/><path class="cls-3" d="M114.26,96.14V82.37H107.1l3.24-13.09H96.17L92.79,82.37H82.67L86,69.28H84.86L58,96.14h7.11l-2.57,10.13H51.89V120h7.29L55.8,133.67H70L73.35,120H83.48L80.1,133.67H94.28L97.65,120h10.67V106.27h-7.16l2.57-10.13ZM87,106.27H76.86l2.57-10.13H89.55Z"/><path class="cls-3" d="M176,59.83c-26.46,0-47.52,20-47.52,47.11s21.06,47.12,47.52,47.12,47.52-20,47.52-47.12S202.41,59.83,176,59.83Zm0,77.35c-16.74,0-28.08-13.09-28.08-30.24S159.21,76.7,176,76.7,204,89.8,204,106.94,192.69,137.18,176,137.18Z"/><path class="cls-3" d="M300.69,61V99.52c0,6.34,1.21,16.74,1.21,16.74s-6.34-8.37-10.8-12.56L244.8,60.23h-1.89v92.61H260.6V114.37a160.29,160.29,0,0,0-1.36-16.74,137,137,0,0,0,10.94,12.55l46.3,43.47h1.89V61Z"/><path class="cls-3" d="M359.82,136.24V123h36.85v-16.2H359.82V77.65h41.85V61H340.92v91.8h47.84L403.56,138v-1.79Z"/><path class="cls-3" d="M473.22,124.22c11.34-5.13,17.68-14.17,17.68-28.48,0-22.41-15.39-34.7-41-34.7H424.48v91.8h18.9V130h6.48a36.26,36.26,0,0,0,5.4-.41l15.12,23.22h21.87Zm-23.9-10.66h-5.94V77.65h5.94c15.12,0,22.14,5.13,22.14,18.09S464.71,113.56,449.32,113.56Z"/><path class="cls-3" d="M529.65,136.24V123H566.5v-16.2H529.65V77.65H571.5V61H510.75v91.8h62.64v-16.6Z"/><path class="cls-3" d="M651.15,61,635.76,96.41c-3.51,8-7,20.79-7,20.79s-3.65-13-7.16-20.79L607.44,64.73,593.51,78.67l33.88,75h1.89L669.5,61Z"/><path class="cls-3" d="M721.61,59.83c-26.45,0-47.51,20-47.51,47.11s21.06,47.12,47.51,47.12A50,50,0,0,0,738,151.35l28.58-28.58a48.87,48.87,0,0,0,2.58-15.83C769.13,79.81,748.07,59.83,721.61,59.83Zm0,77.35c-16.74,0-28.08-13.09-28.08-30.24S704.87,76.7,721.61,76.7s28.08,13.1,28.08,30.24S738.35,137.18,721.61,137.18Z"/><path class="cls-3" d="M807.47,136.24V61h-18.9v91.8h50.5l10-10v-6.62Z"/><path class="cls-3" d="M919.25,61v57.51c0,13.37-5.67,18.5-18.09,18.5s-18.36-5.13-18.36-18.5V61H863.9v58.59c0,23.22,16.07,34.43,37.26,34.43,20.93,0,37-11.21,37-34.43V61Z"/><path class="cls-3" d="M967.56,61,955,73.56v4.09h26.19v75.19h18.89V77.65h26.19V61Z"/><path class="cls-3" d="M1044,61v91.8h18.9V61Z"/><path class="cls-3" d="M1130.12,59.83c-26.46,0-47.52,20-47.52,47.11s21.06,47.12,47.52,47.12a49.77,49.77,0,0,0,18.51-3.51l25.65-25.65a48.52,48.52,0,0,0,3.36-18C1177.64,79.81,1156.58,59.83,1130.12,59.83Zm0,77.35c-16.74,0-28.08-13.09-28.08-30.24s11.34-30.24,28.08-30.24,28.08,13.1,28.08,30.24S1146.86,137.18,1130.12,137.18Z"/><path class="cls-3" d="M1254.86,61V99.52c0,6.34,1.21,16.74,1.21,16.74s-6.34-8.37-10.8-12.56L1199,60.23h-1.89v92.61h17.68V114.37a161.45,161.45,0,0,0-1.35-16.74,137,137,0,0,0,10.94,12.55L1265,148.34l7.55-7.56V61Z"/><polyline class="cls-1" points="57.39 96.76 58.01 96.14 84.86 69.28 95.53 58.61"/><polyline class="cls-2" points="381.95 159.65 388.76 152.84 403.56 138.03 407.29 134.3"/><polyline class="cls-1" points="584.61 87.56 593.51 78.67 607.44 64.73 647.01 25.17"/><polyline class="cls-2" points="715.75 173.58 737.97 151.35 766.55 122.77 779.76 109.56"/><polyline class="cls-1" points="812.78 179.13 839.07 152.84 849.05 142.86 856.82 135.09"/><polyline class="cls-2" points="946.37 82.22 955.03 73.56 967.56 61.04 978.87 49.73"/><polyline class="cls-1" points="1127.23 171.95 1148.63 150.55 1174.28 124.9 1189.62 109.56"/><polyline class="cls-2" points="1234.75 178.58 1264.99 148.34 1272.54 140.78 1298.76 114.56"/></g></g></svg>