<svg xmlns="http://www.w3.org/2000/svg" width="376.719" height="119.927" viewBox="0 0 376.719 119.927"><defs><style>.a,.b,.c{fill:none;}.a{stroke:#000;}.b{stroke:#26a48b;}.c{stroke:#f13747;}</style></defs><g transform="translate(-125.307 -85.343)"><g transform="translate(139.034 118.635)"><path class="a" d="M161.559,133.5c6.761.4,11.733,3.177,15.388,9.613l-9.4,6.039c-2.071-3.71-4.314-5.176-7.765-5.176-3.538,0-5.781,2.243-5.781,5.176,0,3.624,2.243,5.091,7.42,7.334l3.021,1.295c10.267,4.4,16.048,8.887,16.048,18.982,0,10.872-8.542,16.824-20.017,16.824-11.217,0-18.465-5.349-22-12.337l9.837-5.695c2.588,4.228,5.953,7.334,11.907,7.334,5,0,8.2-2.5,8.2-5.953,0-4.142-3.278-5.61-8.8-8.025l-3.02-1.294c-7.712-3.283-13.127-7.31-14.271-15.012" transform="translate(-138.465 -133.36)"/><path class="a" d="M222.166,145.034H205.428V134.422h45.557v10.612H234.246v48.06h-12.08Z" transform="translate(-159.093 -133.645)"/><path class="a" d="M283.739,171.868V134.422h12.079v36.756c0,8.542,3.71,11.821,11.735,11.821,7.937,0,11.562-3.279,11.562-11.821V134.422h12.079v37.446c0,14.84-10.267,22-23.641,22C294.005,193.87,283.739,186.709,283.739,171.868Z" transform="translate(-183.217 -133.645)"/><path class="a" d="M369.653,134.422h18.033c18.033,0,30.889,11.993,30.889,29.336s-12.77,29.336-30.889,29.336H369.653Zm17.43,48.059c13.028,0,18.981-7.764,18.981-18.723s-5.953-18.724-18.981-18.724h-5.35v37.447Z" transform="translate(-209.682 -133.645)"/><path class="a" d="M455.445,134.422h12.079v58.672H455.445Z" transform="translate(-236.111 -133.645)"/><path class="a" d="M487.99,163.412c0-17.343,13.46-30.113,30.371-30.113s30.372,12.77,30.372,30.113-13.46,30.112-30.372,30.112S487.99,180.754,487.99,163.412Zm48.318,0c0-10.958-7.248-19.328-17.947-19.328s-17.946,8.37-17.946,19.328,7.248,19.327,17.946,19.327S536.308,174.37,536.308,163.412Z" transform="translate(-246.136 -133.299)"/><path class="a" d="M604.638,193.562c-11.216,0-18.465-5.349-22-12.337l9.837-5.695c2.588,4.228,5.953,7.334,11.907,7.334,5,0,8.2-2.5,8.2-5.953,0-4.142-3.278-5.61-8.8-8.025l-3.02-1.294c-8.714-3.71-14.5-8.369-14.5-18.206,0-9.06,6.9-15.962,17.688-15.962,7.679,0,13.2,2.674,17.171,9.664l-9.406,6.039c-2.071-3.71-4.314-5.176-7.765-5.176-3.538,0-5.781,2.243-5.781,5.176,0,3.624,2.243,5.091,7.421,7.334l3.019,1.295c9.376,4.017,15.01,8.108,15.919,16.474" transform="translate(-275.292 -133.337)"/></g><line class="b" x1="55.391" y2="56.227" transform="translate(125.663 99.899)"/><path class="b" d="M13.628,0-6.6,20.612" transform="translate(132.42 174.591)"/><line class="c" x1="9.25" y2="9.25" transform="translate(147.823 178.623)"/><line class="c" x1="21.377" y2="21.377" transform="translate(180.744 166.496)"/><line class="c" x1="25.369" y2="25.369" transform="translate(214.187 129.061)"/><line class="c" x1="56.855" y2="56.855" transform="translate(442.505 148.061)"/><line class="c" x1="21.231" y2="22.398" transform="translate(480.432 164.126)"/><line class="b" x1="26.39" y2="26.39" transform="translate(398.902 136.785)"/><line class="c" x1="10.442" y2="10.442" transform="translate(347.927 152.733)"/><line class="c" x1="12.834" y2="12.834" transform="translate(370.448 127.819)"/><line class="c" x1="14.531" y2="14.531" transform="translate(390.375 106.196)"/><line class="c" x1="11.071" y2="11.071" transform="translate(412.691 87.34)"/><line class="b" x1="7.643" y2="7.643" transform="translate(433.822 120.612)"/><line class="b" x1="11.183" y2="11.183" transform="translate(229.787 165.536)"/><line class="b" x1="15.085" y2="15.085" transform="translate(251.635 139.787)"/><line class="b" x1="7.399" y2="7.399" transform="translate(291.607 156.795)"/><line class="b" transform="translate(299.005 156.795)"/><line class="b" x1="6.087" y2="6.087" transform="translate(318.436 131.277)"/><line class="b" x1="15.151" y2="15.151" transform="translate(332.776 107.873)"/><line class="b" x1="30.669" y2="30.669" transform="translate(323.466 88.984)"/><line class="c" x1="33.716" y2="33.716" transform="translate(249.205 85.696)"/><line class="c" x1="10.516" y2="10.516" transform="translate(180.06 145.12)"/><line class="b" x1="10.288" y2="10.288" transform="translate(154.174 156.177)"/><line class="b" x1="17.344" y2="17.344" transform="translate(173.271 130.024)"/><line class="b" x1="19.513" y2="19.513" transform="translate(201.227 99.899)"/></g></svg>