<svg xmlns="http://www.w3.org/2000/svg" width="622.101" height="192.777" viewBox="0 0 622.101 192.777"><defs><style>.a,.b,.c{fill:none;}.a{stroke:#000;}.b{stroke:#26a48b;}.b,.c{stroke-width:1.5px;}.c{stroke:#f13747;}</style></defs><g transform="translate(-131.632 -85.166)"><g transform="translate(143.213 138.665)"><path class="a" d="M175.6,133.5c10.872.642,18.868,5.108,24.746,15.459l-15.124,9.712c-3.33-5.966-6.938-8.324-12.487-8.324-5.689,0-9.3,3.607-9.3,8.324,0,5.828,3.607,8.186,11.932,11.794l4.858,2.082c16.511,7.076,25.807,14.291,25.807,30.525,0,17.483-13.737,27.055-32.19,27.055-18.038,0-29.693-8.6-35.382-19.84l15.818-9.158c4.162,6.8,9.573,11.794,19.148,11.794,8.046,0,13.18-4.024,13.18-9.573,0-6.661-5.272-9.021-14.153-12.905l-4.856-2.081c-12.4-5.28-21.109-11.755-22.949-24.14" transform="translate(-138.465 -133.277)"/><path class="a" d="M232.345,151.487H205.428V134.422h73.259v17.065H251.77v77.285H232.345Z" transform="translate(-130.917 -133.172)"/><path class="a" d="M283.739,194.639V134.422h19.424v59.106c0,13.736,5.966,19.01,18.871,19.01,12.764,0,18.592-5.273,18.592-19.01V134.422h19.424v60.217c0,23.864-16.511,35.38-38.016,35.38C300.248,230.019,283.739,218.5,283.739,194.639Z" transform="translate(-122.09 -133.172)"/><path class="a" d="M369.653,134.422h29c29,0,49.673,19.286,49.673,47.175s-20.535,47.175-49.673,47.175h-29ZM397.681,211.7c20.95,0,30.523-12.486,30.523-30.108s-9.573-30.11-30.523-30.11h-8.6V211.7Z" transform="translate(-112.406 -133.172)"/><path class="a" d="M455.445,134.422H474.87v94.349H455.445Z" transform="translate(-102.736 -133.172)"/><path class="a" d="M487.99,181.723c0-27.889,21.645-48.424,48.839-48.424s48.841,20.535,48.841,48.424-21.645,48.422-48.841,48.422S487.99,209.611,487.99,181.723Zm77.7,0c0-17.621-11.656-31.08-28.86-31.08S507.97,164.1,507.97,181.723,519.626,212.8,536.829,212.8,565.69,199.345,565.69,181.723Z" transform="translate(-99.068 -133.299)"/><path class="a" d="M618.017,230.131c-18.037,0-29.693-8.6-35.382-19.84l15.818-9.158c4.161,6.8,9.573,11.794,19.148,11.794,8.047,0,13.18-4.024,13.18-9.573,0-6.661-5.272-9.021-14.152-12.905l-4.857-2.081c-14.013-5.966-23.31-13.458-23.31-29.277,0-14.569,11.1-25.668,28.444-25.668,12.349,0,21.229,4.3,27.612,15.54l-15.125,9.712c-3.331-5.966-6.938-8.324-12.487-8.324-5.689,0-9.3,3.607-9.3,8.324,0,5.828,3.607,8.186,11.934,11.794l4.855,2.082c15.077,6.46,24.138,13.038,25.6,26.492" transform="translate(-88.4 -133.285)"/></g><line class="b" x1="78.622" y2="78.622" transform="translate(132.162 108.535)"/><line class="b" x1="21.914" y2="21.914" transform="translate(132.577 228.647)"/><line class="c" x1="14.875" y2="14.875" transform="translate(157.346 235.13)"/><line class="c" x1="34.375" y2="34.375" transform="translate(210.286 215.63)"/><line class="c" x1="40.795" y2="40.795" transform="translate(264.066 155.43)"/><line class="c" x1="91.428" y2="91.428" transform="translate(631.22 185.984)"/><line class="c" x1="49.516" y2="49.516" transform="translate(692.211 198.32)"/><line class="b" x1="42.438" y2="42.438" transform="translate(561.103 167.851)"/><line class="c" x1="16.791" y2="16.791" transform="translate(479.131 193.498)"/><line class="c" x1="20.639" y2="20.639" transform="translate(515.347 153.434)"/><line class="c" x1="23.367" y2="23.367" transform="translate(547.391 118.661)"/><line class="c" x1="17.803" y2="17.803" transform="translate(583.276 88.34)"/><line class="b" x1="12.291" y2="12.291" transform="translate(617.257 141.844)"/><line class="c" x1="20.401" y2="20.401" transform="translate(732.801 155.43)"/><line class="b" x1="17.984" y2="17.984" transform="translate(289.152 214.086)"/><line class="b" x1="24.259" y2="24.259" transform="translate(324.285 172.678)"/><line class="b" x1="11.898" y2="11.898" transform="translate(388.563 200.03)"/><line class="b" transform="translate(400.46 200.03)"/><line class="b" x1="9.789" y2="9.789" transform="translate(431.706 158.995)"/><line class="b" x1="24.365" y2="24.365" transform="translate(454.766 121.359)"/><line class="b" x1="49.318" y2="49.318" transform="translate(439.796 90.984)"/><line class="c" x1="54.218" y2="54.218" transform="translate(320.377 85.696)"/><line class="c" x1="16.911" y2="16.911" transform="translate(209.187 181.254)"/><line class="b" x1="16.544" y2="16.544" transform="translate(167.558 199.036)"/><line class="b" x1="27.89" y2="27.89" transform="translate(198.269 156.979)"/><line class="b" x1="31.378" y2="31.378" transform="translate(243.225 108.535)"/></g></svg>