<svg xmlns="http://www.w3.org/2000/svg" width="70.705" height="95.531" viewBox="0 0 70.705 95.531"><defs><style>.a{fill:#bbb6ac;}.b{fill:#3ea178;}.c{fill:#e20a0d;}</style></defs><g transform="translate(-41.67 -18.264)"><g transform="translate(41.67 18.264)"><path class="a" d="M66.7,133.512H65.213V94.6h8.776v1.489H66.7Z" transform="translate(-52.665 -53.916)"/><path class="a" d="M94.608,79.832l-25.59-45.6H99.537a16.834,16.834,0,0,1,1.807,33.57l-.156-1.48a15.344,15.344,0,0,0-1.651-30.6H71.564L95.908,79.1Z" transform="translate(-54.442 -25.721)"/><path class="a" d="M126.822,136.966l-7.734-13.8,1.3-.724,7.744,13.8Z" transform="translate(-77.826 -66.916)"/><rect class="a" width="1.488" height="5.578" transform="matrix(0.872, -0.489, 0.489, 0.872, 50.273, 72.356)"/><path class="a" d="M149.46,177.283l-5.362-9.531,1.311-.755,5.33,9.588Z" transform="translate(-89.506 -87.725)"/><path class="b" d="M82.677,131.515H81.188V110.578H86.16v1.488H82.677Z" transform="translate(-60.125 -61.376)"/><path class="c" d="M166.527,174.463,160.38,163.62l1.3-.728,6.135,10.859Z" transform="translate(-97.11 -85.808)"/><path class="c" d="M129.078,108.535,96.36,50.208h15.946a8.32,8.32,0,0,1,0,16.639H109.3V65.356h3.011a6.83,6.83,0,0,0,0-13.66H98.9l31.442,56.017Z" transform="translate(-67.211 -33.182)"/><path class="b" d="M84.259,94.06,49.454,32.067l-7.784-13.8H86.765A25.347,25.347,0,0,1,93.1,68.153l-.374-1.444a23.857,23.857,0,0,0-5.961-46.957H44.22l6.53,11.584,34.8,61.947Z" transform="translate(-41.67 -18.264)"/><path class="b" d="M126.311,168.346l-3.531-6.294,1.316-.7,3.516,6.26Z" transform="translate(-79.55 -85.09)"/><path class="c" d="M50.729,108.6h-1.49V78.629h12.4V80.12H50.729Z" transform="translate(-45.205 -46.456)"/><path class="a" d="M74.691,123.072l-1.491.022v-20.5h6.746v1.489H74.691Z" transform="translate(-56.395 -57.646)"/><path class="a" d="M87.164,82.916,59.545,33.7l-4.206-7.454h37.81a21.089,21.089,0,0,1,4.113,41.774l-.29-1.463A19.6,19.6,0,0,0,93.149,27.74H57.891l2.951,5.234L88.459,82.185Z" transform="translate(-48.054 -21.994)"/><path class="a" d="M125.268,150.044l-7.225-12.887,1.3-.729,7.245,12.883Z" transform="translate(-77.338 -73.449)"/><path class="a" d="M136.533,170.262l-2.466-4.4,1.3-.728,2.472,4.4Z" transform="translate(-84.821 -86.856)"/><path class="c" d="M58.716,117.607H57.225V86.616H67.858v1.492H58.716Z" transform="translate(-48.934 -50.186)"/><path class="c" d="M129.238,124.983,82.685,42.22H105.92a12.577,12.577,0,0,1,0,25.154h-.61V65.882h.61a11.085,11.085,0,1,0,0-22.17H85.233l45.252,80.546Z" transform="translate(-60.825 -29.452)"/></g><rect class="c" width="1.49" height="11.127" transform="translate(45.704 82.024)"/><rect class="c" width="1.49" height="4.944" transform="translate(45.704 94.586)"/><rect class="c" width="1.49" height="16.118" transform="translate(49.96 87.587)"/><rect class="a" width="1.49" height="9.108" transform="translate(58.475 85.685)"/><rect class="b" width="1.49" height="8.5" transform="translate(62.732 91.03)"/></g></svg>