<svg xmlns="http://www.w3.org/2000/svg" xmlns:xlink="http://www.w3.org/1999/xlink" width="67.193" height="19.066" viewBox="0 0 67.193 19.066"><defs><style>.a{fill:#f4f4f4;}.b{fill:#171717;font-size:11px;font-family:BrandonGrotesque-Medium, Brandon Grotesque;font-weight:500;letter-spacing:0.025em;}.c{fill:url(#a);}</style><linearGradient id="a" y1="0.241" x2="1" y2="0.828" gradientUnits="objectBoundingBox"><stop offset="0" stop-color="#171717"/><stop offset="0.502" stop-color="#53565c"/><stop offset="1" stop-color="#171717"/></linearGradient></defs><rect class="a" width="67.193" height="19.066" rx="4"/><text class="b" transform="translate(24.881 13.388)"><tspan x="0" y="0">BLACK</tspan></text><g transform="translate(19.931 16.704) rotate(180)"><path class="c" d="M14.473,14.457v-2.1a1.107,1.107,0,1,1,0-2.214V2.535c-1.187.722-2.583,2.054-2.407,3.482a2.159,2.159,0,1,1-2.84-.225A2.331,2.331,0,0,0,9.6,3.947C9.274,2.1,7.236,0,7.236,0S5.183,2.1,4.878,3.947a2.211,2.211,0,0,0,.369,1.845A2.166,2.166,0,1,1,1.781,7.525a2.121,2.121,0,0,1,.626-1.508C2.583,4.589,1.187,3.273,0,2.535v7.622a1.109,1.109,0,0,1,1.107,1.107A1.106,1.106,0,0,1,0,12.355v2.086H14.473ZM7.236,10.141a1.107,1.107,0,1,1-1.107,1.107A1.109,1.109,0,0,1,7.236,10.141Z" transform="translate(14.473 14.457) rotate(180)"/></g></svg>