<svg xmlns="http://www.w3.org/2000/svg" xmlns:xlink="http://www.w3.org/1999/xlink" width="752.109" height="802.953" viewBox="0 0 752.109 802.953">
    <defs>
        <style>.a,.b,.c,.d,.h,.i{fill:none;}.b,.d{stroke:#78f7de;}.c{stroke:#f13747;}.d,.h,.i{stroke-width:1.5px;}.e{clip-path:url(#a);}.f{fill:#fff;}.g{clip-path:url(#b);}.h,.i{stroke:#fff;}.h{stroke-miterlimit:10;}.j{clip-path:url(#c);}.k{clip-path:url(#d);}</style>
        <clipPath id="a">
            <path class="a" d="M431,384.5H287L141,103H285Z" transform="translate(-141 -103)" />
        </clipPath>
        <clipPath id="b">
            <path class="a" d="M628,384.5H437L291,103H482Z" transform="translate(-291 -103)" />
        </clipPath>
        <clipPath id="c">
            <path class="a" d="M809,384.5H636L490,103H663Z" transform="translate(-490 -103)" />
        </clipPath>
        <clipPath id="d">
            <path class="a" d="M281,384.5H241L95,103h40Z" transform="translate(-95 -103)" />
        </clipPath>
    </defs>
    <g transform="translate(-0.055 -0.272)">
        <line class="b" x2="53" y2="105" transform="translate(290.5 698)" />
        <line class="c" x2="233" y2="455" transform="translate(0.5 133.459)" />
        <line class="b" x2="145" y2="283" transform="translate(215.5 258.744)" />
        <line class="b" x2="145" y2="283" transform="translate(413.5 258.744)" />
        <path class="b" d="M0,0,12.5,22" transform="translate(371.5 270.365)" />
        <path class="b" d="M0,0,12.167,20.833" transform="translate(418.5 352.627)" />
        <path class="b" d="M0,0,7.5,11.167" transform="translate(437.5 385.718)" />
        <path class="b" d="M0,0,33.167,57.167" transform="translate(458.5 417.901)" />
        <line class="c" x2="44" y2="73" transform="translate(469.5 462.082)" />
        <line class="b" x2="25" y2="48" transform="translate(336.5 440.96)" />
        <line class="b" x2="19" y2="35" transform="translate(349.5 230.25)" />
        <line class="c" x2="19" y2="35" transform="translate(326.5 213.194)" />
        <line class="b" x2="19" y2="35" transform="translate(286.5 492.102)" />
        <line class="c" x2="19" y2="35" transform="translate(383.5 439.932)" />
        <line class="b" x2="19" y2="35" transform="translate(364.5 495.112)" />
        <path class="c" d="M0,0,15.5,29.5" transform="translate(267.5 255.325)" />
        <line class="c" x2="39" y2="76" transform="translate(145.5 216.244)" />
        <line class="d" x1="121" y1="231" transform="translate(630.5 347.017)" />
        <line class="b" x2="82" y2="160" transform="translate(626.5 338.193) rotate(180)" />
        <line class="b" x2="82" y2="160" transform="translate(534.5 160.5) rotate(180)" />
        <line class="b" x2="94" y2="181" transform="translate(51.5 231.43)" />
        <g transform="translate(1 224.074)">
            <g transform="translate(46)">
                <g class="e">
                    <g transform="translate(16.435 61.027)">
                        <path class="f" d="M157.435,217.862l11.057-6.4c2.91,4.753,6.694,8.245,13.387,8.245,5.626,0,9.215-2.813,9.215-6.693,0-4.656-3.687-6.3-9.895-9.021l-3.394-1.455c-9.8-4.171-16.3-9.409-16.3-20.467,0-10.185,7.76-17.945,19.885-17.945,8.632,0,14.84,3.007,19.3,10.864l-10.572,6.79c-2.328-4.171-4.851-5.82-8.73-5.82-3.977,0-6.5,2.522-6.5,5.82,0,4.074,2.522,5.723,8.341,8.245l3.4,1.455c11.543,4.947,18.042,9.991,18.042,21.34,0,12.222-9.6,18.915-22.5,18.915C169.56,231.733,161.411,225.719,157.435,217.862Z" transform="translate(-157.435 -164.027)" />
                        <path class="f" d="M228.341,176.831H209.523V164.9h51.216v11.931H241.921V230.86h-13.58Z" transform="translate(-157.435 -164.027)" />
                        <path class="f" d="M319.424,230.86H303.71l-10.864-16.684a26.122,26.122,0,0,1-3.88.291H284.31V230.86H270.729V164.9h18.237c18.43,0,29.488,8.827,29.488,24.929,0,10.282-4.559,16.781-12.707,20.467Zm-30.846-28.227c11.058,0,15.907-3.492,15.907-12.8s-5.044-13-15.907-13H284.31v25.8Z" transform="translate(-157.435 -164.027)" />
                        <path class="f" d="M328.057,197.88c0-19.5,15.131-33.853,34.143-33.853s34.145,14.356,34.145,33.853-15.132,33.853-34.145,33.853S328.057,217.377,328.057,197.88Zm54.32,0c0-12.319-8.148-21.728-20.177-21.728s-20.176,9.409-20.176,21.728,8.149,21.728,20.176,21.728S382.377,210.2,382.377,197.88Z" transform="translate(-157.435 -164.027)" />
                        <path class="f" d="M427.481,200.208a98.013,98.013,0,0,1-7.857-9.021,116.111,116.111,0,0,1,.97,12.028V230.86H407.887V164.318h1.358l33.271,31.234a93.765,93.765,0,0,1,7.76,9.021s-.873-7.469-.873-12.028V164.9H462.11v66.542h-1.358Z" transform="translate(-157.435 -164.027)" />
                        <path class="f" d="M473.651,197.88c0-19.5,13.774-33.756,33.66-33.756,10.766,0,18.526,2.91,23.959,9.118l-9.216,9.118c-3.3-3.4-7.08-6.014-14.743-6.014-11.932,0-19.692,9.215-19.692,21.534s7.954,21.728,21.825,21.728c4.268,0,9.506-.776,12.9-2.425v-9.7H506.437V195.552h28.324V224.07c-3.782,3.1-13.288,7.663-25.317,7.663C487.91,231.733,473.651,217.377,473.651,197.88Z" transform="translate(-157.435 -164.027)" />
                        <path class="f" d="M547.565,164.9h43.651v11.931h-30.07v20.952h26.481v11.64H561.146v9.506h31.428V230.86H547.565Z" transform="translate(-157.435 -164.027)" />
                        <path class="f" d="M653.877,230.86H638.163L627.3,214.176a26.121,26.121,0,0,1-3.88.291h-4.656V230.86h-13.58V164.9h18.236c18.43,0,29.488,8.827,29.488,24.929,0,10.282-4.559,16.781-12.707,20.467Zm-30.846-28.227c11.058,0,15.907-3.492,15.907-12.8s-5.043-13-15.907-13h-4.268v25.8Z" transform="translate(-157.435 -164.027)" />
                    </g>
                    <g transform="translate(117.233 148.678)">
                        <path class="f" d="M277.193,264.579h-18.96V252.558h51.6v12.021H290.875v54.437H277.193Z" transform="translate(-258.233 -251.678)" />
                        <path class="f" d="M313.746,285.787c0-19.645,15.247-34.109,34.4-34.109s34.4,14.464,34.4,34.109-15.246,34.108-34.4,34.108S313.746,305.431,313.746,285.787Zm54.731,0c0-12.412-8.21-21.892-20.329-21.892s-20.328,9.48-20.328,21.892,8.209,21.892,20.328,21.892S368.477,298.2,368.477,285.787Z" transform="translate(-258.233 -251.678)" />
                        <path class="f" d="M391.934,285.787c0-19.645,13.878-34.012,33.913-34.012,10.848,0,18.667,2.933,24.139,9.187l-9.284,9.187c-3.323-3.42-7.135-6.059-14.855-6.059-12.022,0-19.84,9.285-19.84,21.7s8.014,21.892,21.99,21.892c4.3,0,9.577-.782,13-2.444v-9.773H424.967V283.441h28.538v28.733c-3.812,3.128-13.389,7.721-25.508,7.721C406.3,319.895,391.934,305.431,391.934,285.787Z" transform="translate(-258.233 -251.678)" />
                        <path class="f" d="M466.407,252.558h43.98v12.021h-30.3v21.11h26.681v11.728H480.09v9.578h31.665v12.021H466.407Z" transform="translate(-258.233 -251.678)" />
                        <path class="f" d="M539.61,264.579H520.65V252.558h51.6v12.021h-18.96v54.437H539.61Z" transform="translate(-258.233 -251.678)" />
                        <path class="f" d="M582.32,252.558H596v34.01h28.44v-34.01h13.683v66.458H624.442V298.785H596v20.231H582.32Z" transform="translate(-258.233 -251.678)" />
                        <path class="f" d="M652.005,252.558h43.979v12.021h-30.3v21.11h26.681v11.728H665.687v9.578h31.666v12.021H652.005Z" transform="translate(-258.233 -251.678)" />
                        <path class="f" d="M759.121,319.016H743.288l-10.946-16.81a26.386,26.386,0,0,1-3.909.293h-4.692v16.517H710.06V252.558h18.373c18.569,0,29.711,8.893,29.711,25.117,0,10.359-4.594,16.908-12.8,20.621Zm-31.079-28.44c11.142,0,16.028-3.519,16.028-12.9s-5.082-13.1-16.028-13.1h-4.3v26Z" transform="translate(-258.233 -251.678)" />
                    </g>
                </g>
            </g>
            <g transform="translate(196)">
                <g class="g">
                    <g transform="translate(-133.565 61.027)">
                        <path class="h" d="M157.435,217.862l11.057-6.4c2.91,4.753,6.694,8.245,13.387,8.245,5.626,0,9.215-2.813,9.215-6.693,0-4.656-3.687-6.3-9.895-9.021l-3.394-1.455c-9.8-4.171-16.3-9.409-16.3-20.467,0-10.185,7.76-17.945,19.885-17.945,8.632,0,14.84,3.007,19.3,10.864l-10.572,6.79c-2.328-4.171-4.851-5.82-8.73-5.82-3.977,0-6.5,2.522-6.5,5.82,0,4.074,2.522,5.723,8.341,8.245l3.4,1.455c11.543,4.947,18.042,9.991,18.042,21.34,0,12.222-9.6,18.915-22.5,18.915C169.56,231.733,161.411,225.719,157.435,217.862Z" transform="translate(-157.435 -164.027)" />
                        <path class="h" d="M228.341,176.831H209.523V164.9h51.216v11.931H241.921V230.86h-13.58Z" transform="translate(-157.435 -164.027)" />
                        <path class="h" d="M319.424,230.86H303.71l-10.864-16.684a26.122,26.122,0,0,1-3.88.291H284.31V230.86H270.729V164.9h18.237c18.43,0,29.488,8.827,29.488,24.929,0,10.282-4.559,16.781-12.707,20.467Zm-30.846-28.227c11.058,0,15.907-3.492,15.907-12.8s-5.044-13-15.907-13H284.31v25.8Z" transform="translate(-157.435 -164.027)" />
                        <path class="h" d="M328.057,197.88c0-19.5,15.131-33.853,34.143-33.853s34.145,14.356,34.145,33.853-15.132,33.853-34.145,33.853S328.057,217.377,328.057,197.88Zm54.32,0c0-12.319-8.148-21.728-20.177-21.728s-20.176,9.409-20.176,21.728,8.149,21.728,20.176,21.728S382.377,210.2,382.377,197.88Z" transform="translate(-157.435 -164.027)" />
                        <path class="h" d="M427.481,200.208a98.013,98.013,0,0,1-7.857-9.021,116.111,116.111,0,0,1,.97,12.028V230.86H407.887V164.318h1.358l33.271,31.234a93.765,93.765,0,0,1,7.76,9.021s-.873-7.469-.873-12.028V164.9H462.11v66.542h-1.358Z" transform="translate(-157.435 -164.027)" />
                        <path class="h" d="M473.651,197.88c0-19.5,13.774-33.756,33.66-33.756,10.766,0,18.526,2.91,23.959,9.118l-9.216,9.118c-3.3-3.4-7.08-6.014-14.743-6.014-11.932,0-19.692,9.215-19.692,21.534s7.954,21.728,21.825,21.728c4.268,0,9.506-.776,12.9-2.425v-9.7H506.437V195.552h28.324V224.07c-3.782,3.1-13.288,7.663-25.317,7.663C487.91,231.733,473.651,217.377,473.651,197.88Z" transform="translate(-157.435 -164.027)" />
                        <path class="h" d="M547.565,164.9h43.651v11.931h-30.07v20.952h26.481v11.64H561.146v9.506h31.428V230.86H547.565Z" transform="translate(-157.435 -164.027)" />
                        <path class="h" d="M653.877,230.86H638.163L627.3,214.176a26.121,26.121,0,0,1-3.88.291h-4.656V230.86h-13.58V164.9h18.236c18.43,0,29.488,8.827,29.488,24.929,0,10.282-4.559,16.781-12.707,20.467Zm-30.846-28.227c11.058,0,15.907-3.492,15.907-12.8s-5.043-13-15.907-13h-4.268v25.8Z" transform="translate(-157.435 -164.027)" />
                    </g>
                    <g transform="translate(-32.767 148.678)">
                        <path class="i" d="M277.193,264.579h-18.96V252.558h51.6v12.021H290.875v54.437H277.193Z" transform="translate(-258.233 -251.678)" />
                        <path class="i" d="M313.746,285.787c0-19.645,15.247-34.109,34.4-34.109s34.4,14.464,34.4,34.109-15.246,34.108-34.4,34.108S313.746,305.431,313.746,285.787Zm54.731,0c0-12.412-8.21-21.892-20.329-21.892s-20.328,9.48-20.328,21.892,8.209,21.892,20.328,21.892S368.477,298.2,368.477,285.787Z" transform="translate(-258.233 -251.678)" />
                        <path class="i" d="M391.934,285.787c0-19.645,13.878-34.012,33.913-34.012,10.848,0,18.667,2.933,24.139,9.187l-9.284,9.187c-3.323-3.42-7.135-6.059-14.855-6.059-12.022,0-19.84,9.285-19.84,21.7s8.014,21.892,21.99,21.892c4.3,0,9.577-.782,13-2.444v-9.773H424.967V283.441h28.538v28.733c-3.812,3.128-13.389,7.721-25.508,7.721C406.3,319.895,391.934,305.431,391.934,285.787Z" transform="translate(-258.233 -251.678)" />
                        <path class="i" d="M466.407,252.558h43.98v12.021h-30.3v21.11h26.681v11.728H480.09v9.578h31.665v12.021H466.407Z" transform="translate(-258.233 -251.678)" />
                        <path class="i" d="M539.61,264.579H520.65V252.558h51.6v12.021h-18.96v54.437H539.61Z" transform="translate(-258.233 -251.678)" />
                        <path class="i" d="M582.32,252.558H596v34.01h28.44v-34.01h13.683v66.458H624.442V298.785H596v20.231H582.32Z" transform="translate(-258.233 -251.678)" />
                        <path class="i" d="M652.005,252.558h43.979v12.021h-30.3v21.11h26.681v11.728H665.687v9.578h31.666v12.021H652.005Z" transform="translate(-258.233 -251.678)" />
                        <path class="i" d="M759.121,319.016H743.288l-10.946-16.81a26.386,26.386,0,0,1-3.909.293h-4.692v16.517H710.06V252.558h18.373c18.569,0,29.711,8.893,29.711,25.117,0,10.359-4.594,16.908-12.8,20.621Zm-31.079-28.44c11.142,0,16.028-3.519,16.028-12.9s-5.082-13.1-16.028-13.1h-4.3v26Z" transform="translate(-258.233 -251.678)" />
                    </g>
                </g>
            </g>
            <g transform="translate(395)">
                <g class="j">
                    <g transform="translate(-231.767 148.678)">
                        <path class="f" d="M277.193,264.579h-18.96V252.558h51.6v12.021H290.875v54.437H277.193Z" transform="translate(-258.233 -251.678)" />
                        <path class="f" d="M313.746,285.787c0-19.645,15.247-34.109,34.4-34.109s34.4,14.464,34.4,34.109-15.246,34.108-34.4,34.108S313.746,305.431,313.746,285.787Zm54.731,0c0-12.412-8.21-21.892-20.329-21.892s-20.328,9.48-20.328,21.892,8.209,21.892,20.328,21.892S368.477,298.2,368.477,285.787Z" transform="translate(-258.233 -251.678)" />
                        <path class="f" d="M391.934,285.787c0-19.645,13.878-34.012,33.913-34.012,10.848,0,18.667,2.933,24.139,9.187l-9.284,9.187c-3.323-3.42-7.135-6.059-14.855-6.059-12.022,0-19.84,9.285-19.84,21.7s8.014,21.892,21.99,21.892c4.3,0,9.577-.782,13-2.444v-9.773H424.967V283.441h28.538v28.733c-3.812,3.128-13.389,7.721-25.508,7.721C406.3,319.895,391.934,305.431,391.934,285.787Z" transform="translate(-258.233 -251.678)" />
                        <path class="f" d="M466.407,252.558h43.98v12.021h-30.3v21.11h26.681v11.728H480.09v9.578h31.665v12.021H466.407Z" transform="translate(-258.233 -251.678)" />
                        <path class="f" d="M539.61,264.579H520.65V252.558h51.6v12.021h-18.96v54.437H539.61Z" transform="translate(-258.233 -251.678)" />
                        <path class="f" d="M582.32,252.558H596v34.01h28.44v-34.01h13.683v66.458H624.442V298.785H596v20.231H582.32Z" transform="translate(-258.233 -251.678)" />
                        <path class="f" d="M652.005,252.558h43.979v12.021h-30.3v21.11h26.681v11.728H665.687v9.578h31.666v12.021H652.005Z" transform="translate(-258.233 -251.678)" />
                        <path class="f" d="M759.121,319.016H743.288l-10.946-16.81a26.386,26.386,0,0,1-3.909.293h-4.692v16.517H710.06V252.558h18.373c18.569,0,29.711,8.893,29.711,25.117,0,10.359-4.594,16.908-12.8,20.621Zm-31.079-28.44c11.142,0,16.028-3.519,16.028-12.9s-5.082-13.1-16.028-13.1h-4.3v26Z" transform="translate(-258.233 -251.678)" />
                    </g>
                    <g transform="translate(-333.565 61.027)">
                        <path class="f" d="M156.435,217.862l11.057-6.4c2.91,4.753,6.694,8.245,13.387,8.245,5.626,0,9.215-2.813,9.215-6.693,0-4.656-3.687-6.3-9.895-9.021l-3.394-1.455c-9.8-4.171-16.3-9.409-16.3-20.467,0-10.185,7.76-17.945,19.885-17.945,8.632,0,14.84,3.007,19.3,10.864l-10.572,6.79c-2.328-4.171-4.851-5.82-8.73-5.82-3.977,0-6.5,2.522-6.5,5.82,0,4.074,2.522,5.723,8.341,8.245l3.4,1.455c11.543,4.947,18.042,9.991,18.042,21.34,0,12.222-9.6,18.915-22.5,18.915C168.56,231.733,160.411,225.719,156.435,217.862Z" transform="translate(-156.435 -164.027)" />
                        <path class="f" d="M227.341,176.831H208.523V164.9h51.216v11.931H240.921V230.86h-13.58Z" transform="translate(-156.435 -164.027)" />
                        <path class="f" d="M318.424,230.86H302.71l-10.864-16.684a26.122,26.122,0,0,1-3.88.291H283.31V230.86H269.729V164.9h18.237c18.43,0,29.488,8.827,29.488,24.929,0,10.282-4.559,16.781-12.707,20.467Zm-30.846-28.227c11.058,0,15.907-3.492,15.907-12.8s-5.044-13-15.907-13H283.31v25.8Z" transform="translate(-156.435 -164.027)" />
                        <path class="f" d="M327.057,197.88c0-19.5,15.131-33.853,34.143-33.853s34.145,14.356,34.145,33.853-15.132,33.853-34.145,33.853S327.057,217.377,327.057,197.88Zm54.32,0c0-12.319-8.148-21.728-20.177-21.728s-20.176,9.409-20.176,21.728,8.149,21.728,20.176,21.728S381.377,210.2,381.377,197.88Z" transform="translate(-156.435 -164.027)" />
                        <path class="f" d="M426.481,200.208a98.013,98.013,0,0,1-7.857-9.021,116.111,116.111,0,0,1,.97,12.028V230.86H406.887V164.318h1.358l33.271,31.234a93.765,93.765,0,0,1,7.76,9.021s-.873-7.469-.873-12.028V164.9H461.11v66.542h-1.358Z" transform="translate(-156.435 -164.027)" />
                        <path class="f" d="M472.651,197.88c0-19.5,13.774-33.756,33.66-33.756,10.766,0,18.526,2.91,23.959,9.118l-9.216,9.118c-3.3-3.4-7.08-6.014-14.743-6.014-11.932,0-19.692,9.215-19.692,21.534s7.954,21.728,21.825,21.728c4.268,0,9.506-.776,12.9-2.425v-9.7H505.437V195.552h28.324V224.07c-3.782,3.1-13.288,7.663-25.317,7.663C486.91,231.733,472.651,217.377,472.651,197.88Z" transform="translate(-156.435 -164.027)" />
                        <path class="f" d="M546.565,164.9h43.651v11.931h-30.07v20.952h26.481v11.64H560.146v9.506h31.428V230.86H546.565Z" transform="translate(-156.435 -164.027)" />
                        <path class="f" d="M652.877,230.86H637.163L626.3,214.176a26.121,26.121,0,0,1-3.88.291h-4.656V230.86h-13.58V164.9h18.236c18.43,0,29.488,8.827,29.488,24.929,0,10.282-4.559,16.781-12.707,20.467Zm-30.846-28.227c11.058,0,15.907-3.492,15.907-12.8s-5.043-13-15.907-13h-4.268v25.8Z" transform="translate(-156.435 -164.027)" />
                    </g>
                </g>
            </g>
            <g class="k">
                <g transform="translate(62.435 61.027)">
                    <path class="h" d="M157.435,217.862l11.057-6.4c2.91,4.753,6.694,8.245,13.387,8.245,5.626,0,9.215-2.813,9.215-6.693,0-4.656-3.687-6.3-9.895-9.021l-3.394-1.455c-9.8-4.171-16.3-9.409-16.3-20.467,0-10.185,7.76-17.945,19.885-17.945,8.632,0,14.84,3.007,19.3,10.864l-10.572,6.79c-2.328-4.171-4.851-5.82-8.73-5.82-3.977,0-6.5,2.522-6.5,5.82,0,4.074,2.522,5.723,8.341,8.245l3.4,1.455c11.543,4.947,18.042,9.991,18.042,21.34,0,12.222-9.6,18.915-22.5,18.915C169.56,231.733,161.411,225.719,157.435,217.862Z" transform="translate(-157.435 -164.027)" />
                    <path class="h" d="M228.341,176.831H209.523V164.9h51.216v11.931H241.921V230.86h-13.58Z" transform="translate(-157.435 -164.027)" />
                    <path class="h" d="M319.424,230.86H303.71l-10.864-16.684a26.122,26.122,0,0,1-3.88.291H284.31V230.86H270.729V164.9h18.237c18.43,0,29.488,8.827,29.488,24.929,0,10.282-4.559,16.781-12.707,20.467Zm-30.846-28.227c11.058,0,15.907-3.492,15.907-12.8s-5.044-13-15.907-13H284.31v25.8Z" transform="translate(-157.435 -164.027)" />
                    <path class="h" d="M328.057,197.88c0-19.5,15.131-33.853,34.143-33.853s34.145,14.356,34.145,33.853-15.132,33.853-34.145,33.853S328.057,217.377,328.057,197.88Zm54.32,0c0-12.319-8.148-21.728-20.177-21.728s-20.176,9.409-20.176,21.728,8.149,21.728,20.176,21.728S382.377,210.2,382.377,197.88Z" transform="translate(-157.435 -164.027)" />
                    <path class="h" d="M427.481,200.208a98.013,98.013,0,0,1-7.857-9.021,116.111,116.111,0,0,1,.97,12.028V230.86H407.887V164.318h1.358l33.271,31.234a93.765,93.765,0,0,1,7.76,9.021s-.873-7.469-.873-12.028V164.9H462.11v66.542h-1.358Z" transform="translate(-157.435 -164.027)" />
                    <path class="h" d="M473.651,197.88c0-19.5,13.774-33.756,33.66-33.756,10.766,0,18.526,2.91,23.959,9.118l-9.216,9.118c-3.3-3.4-7.08-6.014-14.743-6.014-11.932,0-19.692,9.215-19.692,21.534s7.954,21.728,21.825,21.728c4.268,0,9.506-.776,12.9-2.425v-9.7H506.437V195.552h28.324V224.07c-3.782,3.1-13.288,7.663-25.317,7.663C487.91,231.733,473.651,217.377,473.651,197.88Z" transform="translate(-157.435 -164.027)" />
                    <path class="h" d="M547.565,164.9h43.651v11.931h-30.07v20.952h26.481v11.64H561.146v9.506h31.428V230.86H547.565Z" transform="translate(-157.435 -164.027)" />
                    <path class="h" d="M653.877,230.86H638.163L627.3,214.176a26.121,26.121,0,0,1-3.88.291h-4.656V230.86h-13.58V164.9h18.236c18.43,0,29.488,8.827,29.488,24.929,0,10.282-4.559,16.781-12.707,20.467Zm-30.846-28.227c11.058,0,15.907-3.492,15.907-12.8s-5.043-13-15.907-13h-4.268v25.8Z" transform="translate(-157.435 -164.027)" />
                </g>
                <g transform="translate(163.233 148.678)">
                    <path d="M277.193,264.579h-18.96V252.558h51.6v12.021H290.875v54.437H277.193Z" transform="translate(-258.233 -251.678)" />
                    <path d="M313.746,285.787c0-19.645,15.247-34.109,34.4-34.109s34.4,14.464,34.4,34.109-15.246,34.108-34.4,34.108S313.746,305.431,313.746,285.787Zm54.731,0c0-12.412-8.21-21.892-20.329-21.892s-20.328,9.48-20.328,21.892,8.209,21.892,20.328,21.892S368.477,298.2,368.477,285.787Z" transform="translate(-258.233 -251.678)" />
                    <path d="M391.934,285.787c0-19.645,13.878-34.012,33.913-34.012,10.848,0,18.667,2.933,24.139,9.187l-9.284,9.187c-3.323-3.42-7.135-6.059-14.855-6.059-12.022,0-19.84,9.285-19.84,21.7s8.014,21.892,21.99,21.892c4.3,0,9.577-.782,13-2.444v-9.773H424.967V283.441h28.538v28.733c-3.812,3.128-13.389,7.721-25.508,7.721C406.3,319.895,391.934,305.431,391.934,285.787Z" transform="translate(-258.233 -251.678)" />
                    <path d="M466.407,252.558h43.98v12.021h-30.3v21.11h26.681v11.728H480.09v9.578h31.665v12.021H466.407Z" transform="translate(-258.233 -251.678)" />
                    <path d="M539.61,264.579H520.65V252.558h51.6v12.021h-18.96v54.437H539.61Z" transform="translate(-258.233 -251.678)" />
                    <path d="M582.32,252.558H596v34.01h28.44v-34.01h13.683v66.458H624.442V298.785H596v20.231H582.32Z" transform="translate(-258.233 -251.678)" />
                    <path d="M652.005,252.558h43.979v12.021h-30.3v21.11h26.681v11.728H665.687v9.578h31.666v12.021H652.005Z" transform="translate(-258.233 -251.678)" />
                    <path d="M759.121,319.016H743.288l-10.946-16.81a26.386,26.386,0,0,1-3.909.293h-4.692v16.517H710.06V252.558h18.373c18.569,0,29.711,8.893,29.711,25.117,0,10.359-4.594,16.908-12.8,20.621Zm-31.079-28.44c11.142,0,16.028-3.519,16.028-12.9s-5.082-13.1-16.028-13.1h-4.3v26Z" transform="translate(-258.233 -251.678)" />
                </g>
            </g>
        </g>
    </g>
</svg>
