<svg xmlns="http://www.w3.org/2000/svg" width="710.061" height="276.061" viewBox="0 0 710.061 276.061"><defs><style>.a,.b{fill:none;stroke-width:1.5px;}.a{stroke:#f13747;}.b{stroke:#26a48b;}.c{fill:#fcfcfc;stroke:#0b0b0b;}</style></defs><g transform="translate(21.03 -395.97)"><line class="a" x2="61" y2="61" transform="translate(345.5 396.5)"/><line class="b" x2="61" y2="61" transform="translate(600.5 610.5)"/><line class="b" x2="61" y2="61" transform="translate(268.5 487.5)"/><line class="b" x2="61" y2="61" transform="translate(-20.5 499.5)"/><line class="b" x2="61" y2="61" transform="translate(551.5 402.5)"/><line class="b" x2="33" y2="32" transform="translate(104.5 544.5)"/><line class="b" x2="33" y2="32" transform="translate(130.5 399.5)"/><line class="b" x2="33" y2="32" transform="translate(258.5 534.5)"/><line class="b" x2="33" y2="32" transform="translate(395.5 612.5)"/><line class="b" x2="33" y2="32" transform="translate(168.5 574.5)"/><line class="a" x2="33" y2="32" transform="translate(258.5 411.5)"/><line class="b" x2="33" y2="32" transform="translate(225.5 447.5)"/><line class="b" x2="33" y2="32" transform="translate(304.5 421.5)"/><line class="b" x2="33" y2="32" transform="translate(587.5 489.5)"/><line class="b" x2="33" y2="32" transform="translate(455.5 425.5)"/><line class="a" x2="61" y2="61" transform="translate(44.5 396.5)"/><line class="a" x2="20" y2="20" transform="translate(134.5 483.5)"/><line class="a" y2="25" transform="translate(193.661 418.161) rotate(-45)"/><line class="a" y2="25" transform="translate(537.661 441.161) rotate(-45)"/><line class="a" y2="25" transform="translate(454.661 589.161) rotate(-45)"/><line class="a" y2="25" transform="translate(263.661 603.161) rotate(-45)"/><line class="b" y2="25" transform="translate(168.661 436.161) rotate(-45)"/><path class="c" d="M-16952.734,19532.9a42.594,42.594,0,0,1-15.131-2.629,33.9,33.9,0,0,1-11.645-7.285,32.144,32.144,0,0,1-7.482-11.055,36.583,36.583,0,0,1-2.646-13.932,37.858,37.858,0,0,1,2.543-13.918,32.384,32.384,0,0,1,7.125-11.021,32.125,32.125,0,0,1,10.969-7.252,37.569,37.569,0,0,1,14.07-2.611,40.279,40.279,0,0,1,14.408,2.3,25.193,25.193,0,0,1,10.289,7.1l-9.5,9.4c-3.611-3.721-7.578-6.2-15.2-6.2a20.691,20.691,0,0,0-8.363,1.682,18.591,18.591,0,0,0-6.4,4.656,20.921,20.921,0,0,0-4.1,7.037,26.557,26.557,0,0,0-1.439,8.826,25.625,25.625,0,0,0,1.5,8.857,20.423,20.423,0,0,0,4.383,7.1c4.031,4.211,9.775,6.438,16.613,6.438a40.849,40.849,0,0,0,6.988-.615,24.716,24.716,0,0,0,6.314-1.883v-10l-16.4,0,0-12.3h29.2v29.4a34.111,34.111,0,0,1-9.863,5.15A49.561,49.561,0,0,1-16952.734,19532.9Zm-156.8,0a35.371,35.371,0,0,1-24.953-9.914,33.505,33.505,0,0,1-7.506-11.055,35.738,35.738,0,0,1-2.744-13.932,35.74,35.74,0,0,1,2.744-13.934,33.505,33.505,0,0,1,7.506-11.055,35.381,35.381,0,0,1,24.953-9.912,35.366,35.366,0,0,1,24.945,9.912,33.505,33.505,0,0,1,7.506,11.055,35.79,35.79,0,0,1,2.744,13.934,35.787,35.787,0,0,1-2.744,13.932,33.505,33.505,0,0,1-7.506,11.055A35.352,35.352,0,0,1-17109.531,19532.9Zm0-57.3a21.053,21.053,0,0,0-8.482,1.713,19.379,19.379,0,0,0-6.57,4.725,23.541,23.541,0,0,0-5.75,15.965,23.531,23.531,0,0,0,5.75,15.961,19.34,19.34,0,0,0,6.57,4.723,21.054,21.054,0,0,0,8.482,1.715,21.052,21.052,0,0,0,8.48-1.715,19.329,19.329,0,0,0,6.568-4.723,23.528,23.528,0,0,0,5.75-15.961,23.541,23.541,0,0,0-5.75-15.965,19.368,19.368,0,0,0-6.568-4.725A21.044,21.044,0,0,0-17109.531,19475.6Zm105.5,57h-1.4l-34.3-32.2a102.18,102.18,0,0,1-8.1-9.3,119.919,119.919,0,0,1,1,12.4v28.5l-13.1,0,0-68.6h1.4l34.3,32.2a96.023,96.023,0,0,1,7.99,9.283l.012.018a.235.235,0,0,1-.006-.051c-.15-1.32-.9-8.117-.9-12.35V19464l13.1,0v68.6Zm169-.6h0l-14,0,0-68,18.795,0c19.322,0,30.4,9.369,30.4,25.7a28.679,28.679,0,0,1-.865,7.236,20.478,20.478,0,0,1-2.535,5.865,19.55,19.55,0,0,1-4.109,4.59,25.238,25.238,0,0,1-5.592,3.41l14.1,21.2h-16.2l-11.2-17.2a27.32,27.32,0,0,1-4,.3h-4.8v16.9Zm0-55.7v26.6h4.4c5.9,0,9.865-.953,12.475-3a9.272,9.272,0,0,0,2.965-4.09,16.982,16.982,0,0,0,.959-6.115c0-4.787-1.307-8.156-4-10.3-2.619-2.084-6.676-3.1-12.4-3.1h-4.4Zm-357.3,55.7h0l-14,0v-68l18.8,0c19.318,0,30.4,9.369,30.4,25.7a28.679,28.679,0,0,1-.865,7.236,20.445,20.445,0,0,1-2.535,5.865,19.561,19.561,0,0,1-4.107,4.59,25.2,25.2,0,0,1-5.59,3.41l14.1,21.2h-16.2l-11.2-17.2a27.32,27.32,0,0,1-4,.3h-4.8l0,16.9Zm0-55.7v26.6h4.4c5.9,0,9.865-.953,12.475-3a9.272,9.272,0,0,0,2.965-4.09,16.98,16.98,0,0,0,.961-6.115c0-4.787-1.309-8.156-4-10.3-2.619-2.084-6.676-3.1-12.4-3.1h-4.4Zm-46.2,55.7h0v0h-14v-55.7h-19.4V19464l52.8,0v12.3h-19.4Zm374,0h-46.4v-68l45,0v12.3h-31l0,21.6,27.295,0v12h-27.3l0,9.795h32.4v12.3Zm-428.566-.463v0l-11.07-11.07c.406.025.822.039,1.234.039a11.543,11.543,0,0,0,6.928-1.951,6.088,6.088,0,0,0,2.576-4.951,6.367,6.367,0,0,0-2.7-5.4,36.666,36.666,0,0,0-7.488-3.895l-.01-.006-3.5-1.5a48.384,48.384,0,0,1-6.885-3.508,24.114,24.114,0,0,1-5.3-4.377c-3.1-3.5-4.613-7.82-4.613-13.213a18.586,18.586,0,0,1,1.445-7.32,17.027,17.027,0,0,1,4.119-5.869,18.861,18.861,0,0,1,6.461-3.9,24.705,24.705,0,0,1,8.479-1.414,23.693,23.693,0,0,1,11.559,2.564,21.4,21.4,0,0,1,8.338,8.639l-10.9,7c-2.377-4.266-4.984-6-9-6-3.947,0-6.7,2.469-6.7,6a6.05,6.05,0,0,0,2.051,4.848,24.365,24.365,0,0,0,6.551,3.648l3.5,1.5c6.8,2.916,10.916,5.467,13.762,8.527,3.3,3.547,4.838,7.828,4.838,13.473a18.289,18.289,0,0,1-3.748,11.6,17.877,17.877,0,0,1-4.311,3.924,22.54,22.54,0,0,1-5.605,2.611Z" transform="translate(17373.834 -19009.912)"/><path class="c" d="M-17160.1,19533.8a42.626,42.626,0,0,1-15.129-2.627,33.914,33.914,0,0,1-11.645-7.287,32.107,32.107,0,0,1-7.482-11.055,36.569,36.569,0,0,1-2.646-13.932,37.855,37.855,0,0,1,2.543-13.916,32.417,32.417,0,0,1,7.123-11.021,32.1,32.1,0,0,1,10.967-7.252,37.558,37.558,0,0,1,14.068-2.609,40.261,40.261,0,0,1,14.416,2.3,25.163,25.163,0,0,1,10.287,7.1l-9.5,9.4c-3.611-3.721-7.58-6.2-15.2-6.2a20.663,20.663,0,0,0-8.357,1.682,18.5,18.5,0,0,0-6.4,4.654,20.893,20.893,0,0,0-4.1,7.035,26.524,26.524,0,0,0-1.441,8.826,25.6,25.6,0,0,0,1.5,8.857,20.4,20.4,0,0,0,4.381,7.105c4.029,4.211,9.773,6.438,16.611,6.438a40.8,40.8,0,0,0,6.988-.613,24.764,24.764,0,0,0,6.313-1.887v-10l-16.4,0v-12.3h29.2v29.4a34.02,34.02,0,0,1-9.861,5.15A49.543,49.543,0,0,1-17160.1,19533.8Zm-84.2,0a35.358,35.358,0,0,1-24.949-9.914,33.5,33.5,0,0,1-7.506-11.055,35.773,35.773,0,0,1-2.744-13.932,35.787,35.787,0,0,1,2.744-13.932,33.505,33.505,0,0,1,7.506-11.055,35.365,35.365,0,0,1,24.949-9.914,35.365,35.365,0,0,1,24.949,9.914,33.505,33.505,0,0,1,7.506,11.055,35.781,35.781,0,0,1,2.746,13.932,35.767,35.767,0,0,1-2.746,13.932,33.5,33.5,0,0,1-7.506,11.055A35.358,35.358,0,0,1-17244.3,19533.8Zm0-57.3a21.03,21.03,0,0,0-8.48,1.713,19.319,19.319,0,0,0-6.57,4.725,23.539,23.539,0,0,0-5.748,15.965,23.545,23.545,0,0,0,5.748,15.963,19.379,19.379,0,0,0,6.57,4.725,21.037,21.037,0,0,0,8.48,1.713,21.037,21.037,0,0,0,8.48-1.713,19.3,19.3,0,0,0,6.57-4.725,23.54,23.54,0,0,0,5.75-15.963,23.534,23.534,0,0,0-5.75-15.965,19.319,19.319,0,0,0-6.57-4.725A21.03,21.03,0,0,0-17244.3,19476.5Zm399.3,56.4h0l-14,0v-68h18.8c.48,0,.875.006,1.244.014,2.035,2,5.748,5.658,9.918,9.766l3.287,3.236c2.926,2.877,5.916,5.82,8.59,8.455,2.748,2.7,5.162,5.08,6.836,6.729a4.215,4.215,0,0,0,.4.355,21.93,21.93,0,0,1-3.928,11.193,22.311,22.311,0,0,1-9.051,7.055l14.1,21.2h-16.2l-11.2-17.2a26.479,26.479,0,0,1-4,.3h-4.8v16.9Zm0-55.7v26.6h4.4c5.906,0,9.871-.953,12.479-3a9.237,9.237,0,0,0,2.967-4.088,16.96,16.96,0,0,0,.959-6.111c0-4.787-1.309-8.156-4-10.3-2.619-2.084-6.676-3.1-12.4-3.1h-4.4Zm-92.6,55.7h0l-14,0v-20.7l-29.1,0v20.7l-14,0,0-68h14v34.8h29.1v-34.8h14l0,68Zm-89.3,0h0v0h-14V19477.2h-19.4l0-12.3h52.795v12.3h-19.4Zm-278.5,0h0v0h-14l0-55.693h-19.4v-12.3h52.8v12.3h-19.4Zm430.9,0h-46.4v-68h45v12.3h-31v21.6h27.3l0,12-27.3,0v9.8l32.4,0,0,12.295Zm-197.4,0h-46.4l0-68h45v12.3h-31l0,21.6h27.3v12l-27.3,0,0,9.8,32.406,0v12.295Z" transform="translate(17482.932 -18920.838)"/><line class="a" x2="61" y2="61" transform="translate(627.5 527.5)"/><line class="a" x2="61" y2="61" transform="translate(37.5 478.5)"/></g></svg>